<?xml version="1.0" encoding="UTF-8"?>
<svg version="1.1" xmlns="http://www.w3.org/2000/svg" width="280" height="322">
<path d="M0 0 C1.88671875 1.80078125 1.88671875 1.80078125 3.6875 4.3125 C6.75127649 8.3897691 9.8974298 12.28029879 13.3125 16.0625 C14.54419922 17.44115234 14.54419922 17.44115234 15.80078125 18.84765625 C17.89012292 21.20645956 17.89012292 21.20645956 21 22 C23.16811196 21.68652364 23.16811196 21.68652364 25.4375 21.0625 C28.54107042 20.26954038 30.71321742 20 34 20 C34.50367757 21.45706726 35.00282556 22.91570096 35.5 24.375 C35.91765625 25.59316406 35.91765625 25.59316406 36.34375 26.8359375 C37 29 37 29 37 31 C37.99 31 38.98 31 40 31 C40.13684708 31.55564133 40.27369415 32.11128265 40.41468811 32.6837616 C48.14460067 63.98434844 56.57529859 95.00622292 65.875 125.875 C66.11269608 126.66418194 66.35039215 127.45336388 66.59529114 128.26646042 C68.81392812 135.62957097 71.03843802 142.99090047 73.26815796 150.35066223 C78.6562875 168.1384473 83.97723822 185.94614987 89.28231049 203.75886345 C90.95068453 209.36054092 92.62263167 214.96113237 94.29791546 220.56074715 C95.33801066 224.03931213 96.37546584 227.51866047 97.41223335 230.99821854 C97.89330239 232.61092217 98.37541122 234.22331607 98.85865593 235.83536911 C101.15807918 243.5085918 103.42008389 251.13862982 105 259 C66.86992556 284.11123828 20.83849717 298.11753781 -24.7734375 298.16796875 C-25.85847565 298.17129715 -26.94351379 298.17462555 -28.06143188 298.17805481 C-30.34547507 298.18308276 -32.6295255 298.18546443 -34.91357422 298.18530273 C-38.33183567 298.1874726 -41.74976485 298.20562757 -45.16796875 298.22460938 C-94.06530013 298.3521759 -94.06530013 298.3521759 -104.67578125 290.80859375 C-108.66762473 285.35660693 -110.77900452 280.17285032 -112.31713867 273.67041016 C-112.51899056 272.85667309 -112.72084246 272.04293602 -112.92881107 271.20454025 C-113.36839487 269.42691497 -113.80310285 267.64807846 -114.23349762 265.86820602 C-114.93880428 262.95294241 -115.6574443 260.04123476 -116.3793335 257.1300354 C-117.43439967 252.87133947 -118.48461829 248.61149207 -119.53121948 244.35070801 C-122.37314693 232.7945497 -125.26566298 221.25107756 -128.171875 209.7109375 C-128.47787565 208.49576447 -128.7838763 207.28059143 -129.0991497 206.02859497 C-136.49308963 176.71999378 -144.32747881 147.53227912 -152.27229351 118.36887634 C-153.5700994 113.60386377 -154.86222019 108.83733439 -156.15194702 104.07012939 C-157.89607375 97.62484503 -159.65217382 91.18294212 -161.41703033 84.74329758 C-162.06893076 82.359707 -162.71762808 79.97523785 -163.36296844 77.58986282 C-164.24653363 74.3283178 -165.1427934 71.07053756 -166.04272461 67.81347656 C-166.29972232 66.85441721 -166.55672003 65.89535786 -166.82150555 64.9072361 C-167.06566613 64.03407438 -167.30982672 63.16091267 -167.56138611 62.2612915 C-167.76820479 61.50553959 -167.97502348 60.74978767 -168.1881094 59.97113419 C-169.10457334 57.74611348 -170.30733124 56.67351699 -172 55 C-172.43359375 52.00390625 -172.43359375 52.00390625 -172.4375 48.5625 C-172.45683594 47.42941406 -172.47617188 46.29632813 -172.49609375 45.12890625 C-171.88710896 41.28798641 -170.98550198 40.41786888 -168 38 C-165.22851562 37.06542969 -165.22851562 37.06542969 -161.90625 36.421875 C-161.27753494 36.2939859 -160.64881989 36.1660968 -160.00105286 36.03433228 C-158.59546796 35.7488623 -157.18858134 35.46975043 -155.78067017 35.19598389 C-151.64115499 34.38650381 -147.51447188 33.51559169 -143.38671875 32.6484375 C-142.44612106 32.45154327 -141.50552338 32.25464905 -140.53642273 32.05178833 C-127.14170503 29.22098206 -113.82532657 26.04094417 -100.50255203 22.89234924 C-98.31127427 22.37471045 -96.11976723 21.85805321 -93.92819214 21.3416748 C-77.9026916 17.56481244 -61.88860152 13.74340161 -45.890625 9.8515625 C-44.52748854 9.52034485 -43.1643447 9.18915758 -41.80119324 8.85800171 C-35.40150775 7.30257975 -29.00368308 5.73997097 -22.60864258 4.16552734 C-20.33418565 3.61019382 -18.05969234 3.05500922 -15.78515625 2.5 C-14.75823669 2.24457428 -13.73131714 1.98914856 -12.67327881 1.72598267 C-11.72930237 1.49672089 -10.78532593 1.26745911 -9.81274414 1.03125 C-8.99858536 0.83080078 -8.18442657 0.63035156 -7.34559631 0.42382812 C-4.81445482 -0.03352634 -2.56590486 -0.19600603 0 0 Z M-128 58 C-124 59 -124 59 -124 59 Z M-140.6875 59.875 C-141.36361328 59.95363281 -142.03972656 60.03226563 -142.73632812 60.11328125 C-146.80394439 60.58000121 -146.80394439 60.58000121 -150 63 C-142.21038876 63.46530864 -135.47321608 62.15721701 -128 60 C-128 59.67 -128 59.34 -128 59 C-132.28351619 58.88400536 -136.44788343 59.32397321 -140.6875 59.875 Z " fill="#96E55E" transform="translate(172,0)"/>
<path d="M0 0 C1.88671875 1.80078125 1.88671875 1.80078125 3.6875 4.3125 C6.78429567 8.45142959 10.00008821 12.32984738 13.5 16.125 C14.3559375 17.05570313 15.211875 17.98640625 16.09375 18.9453125 C16.7228125 19.62335937 17.351875 20.30140625 18 21 C17 23 17 23 14.87489319 23.78305054 C13.9365715 24.03301788 12.99824982 24.28298523 12.03149414 24.54052734 C10.96850601 24.82777679 9.90551788 25.11502625 8.81031799 25.41098022 C7.06536293 25.86883408 7.06536293 25.86883408 5.28515625 26.3359375 C4.08628281 26.65656158 2.88740936 26.97718567 1.65220642 27.30752563 C-0.90175066 27.98880015 -3.45629834 28.66694443 -6.01245117 29.33984375 C-9.86463752 30.35409301 -13.71263202 31.38372076 -17.56054688 32.4140625 C-30.64847076 35.90175131 -43.73812461 39.23946896 -57 42 C-57 41.34 -57 40.68 -57 40 C-58.57007812 40.63615234 -58.57007812 40.63615234 -60.171875 41.28515625 C-79.47099316 48.87194727 -99.66283288 53.22946831 -119.92260742 57.4074707 C-121.40214283 57.71288305 -122.88102113 58.02150098 -124.35913086 58.33374023 C-132.27752433 59.99535551 -140.08904412 61.25263946 -148.171875 61.75390625 C-148.86697678 61.79760345 -149.56207855 61.84130066 -150.27824402 61.88632202 C-155.74646858 62.1494703 -160.76184298 61.55728992 -166 60 C-166.185625 58.8553125 -166.185625 58.8553125 -166.375 57.6875 C-166.88102792 54.79732864 -166.88102792 54.79732864 -169 52 C-168.6708488 45.85584432 -168.6708488 45.85584432 -166.72070312 43.36791992 C-164.71286894 41.77173732 -163.13634615 41.24459277 -160.65625 40.61328125 C-159.40521484 40.2894043 -159.40521484 40.2894043 -158.12890625 39.95898438 C-157.26136719 39.74564453 -156.39382812 39.53230469 -155.5 39.3125 C-154.63246094 39.08755859 -153.76492187 38.86261719 -152.87109375 38.63085938 C-146.45671068 37 -146.45671068 37 -143 37 C-143 36.34 -143 35.68 -143 35 C-144.98 35 -146.96 35 -149 35 C-146.23226676 33.50778399 -143.69751555 32.57346795 -140.63061523 31.89697266 C-139.75455124 31.70066757 -138.87848724 31.50436249 -137.97587585 31.30210876 C-136.53182121 30.98627586 -136.53182121 30.98627586 -135.05859375 30.6640625 C-132.90198093 30.18140036 -130.74540761 29.6985617 -128.58886719 29.21557617 C-127.42850952 28.95763275 -126.26815186 28.69968933 -125.07263184 28.43392944 C-118.72603999 27.02161615 -112.3834368 25.5918622 -106.04296875 24.15234375 C-105.35511417 23.99621675 -104.6672596 23.84008976 -103.95856094 23.67923164 C-91.25507527 20.78996427 -78.58727663 17.75891861 -65.92578125 14.69140625 C-64.98741865 14.46421654 -64.04905605 14.23702682 -63.08225822 14.00295258 C-53.65774674 11.72044584 -44.23530257 9.42963335 -34.81614971 7.12511158 C-31.26563775 6.25752321 -27.71406658 5.39432918 -24.16226768 4.53202629 C-22.49570537 4.12619355 -20.82965851 3.71823754 -19.16416359 3.30804634 C-16.87140655 2.74342029 -14.57705669 2.18576891 -12.28222656 1.62963867 C-11.61352256 1.46302042 -10.94481855 1.29640217 -10.25585079 1.12473488 C-6.78240983 0.29106636 -3.57324322 -0.35422351 0 0 Z " fill="#FDF6F4" transform="translate(172,0)"/>
<path d="M0 0 C0.81498562 1.6029053 1.62689927 3.20737278 2.4375 4.8125 C2.88996094 5.70582031 3.34242188 6.59914063 3.80859375 7.51953125 C6.43829392 12.99448078 6.70411065 18.01505944 6 24 C2.57053749 33.72595569 -3.14612308 39.93845724 -12 45 C-15.5625 46.375 -15.5625 46.375 -18 47 C-18.0825 47.928125 -18.165 48.85625 -18.25 49.8125 C-18.86530202 54.30328639 -20.51150007 58.34602865 -22.16015625 62.546875 C-23.16195031 65.04089461 -23.16195031 65.04089461 -23 68 C-21.36935236 69.05771739 -19.69719127 70.05273046 -18 71 C-17.5671167 71.46341797 -17.1342334 71.92683594 -16.68823242 72.40429688 C-14.45012069 74.51974131 -12.05562141 75.65784509 -9.30078125 77.03125 C-7.60985352 77.87623047 -7.60985352 77.87623047 -5.88476562 78.73828125 C-4.70591797 79.31964844 -3.52707031 79.90101563 -2.3125 80.5 C-1.15298828 81.08136719 0.00652344 81.66273438 1.20117188 82.26171875 C7.05802253 85.17183101 12.85473497 87.77511359 19 90 C22 91.9375 22 91.9375 24 94 C24 95.32 24 96.64 24 98 C24.33 98.66 24.66 99.32 25 100 C26 102 26 102 26 106 C19.62576125 106.41078427 15.77826762 105.4851525 10.25 102.375 C9.53553711 101.98836182 8.82107422 101.60172363 8.08496094 101.20336914 C0.91492467 97.19699198 -5.7386396 92.43569751 -12.31152344 87.52294922 C-13.11106445 86.93658691 -13.91060547 86.35022461 -14.734375 85.74609375 C-15.43788086 85.21685303 -16.14138672 84.6876123 -16.86621094 84.14233398 C-19.43747697 82.76579465 -21.12087055 82.90811902 -24 83 C-27.3125 81.5 -27.3125 81.5 -30 80 C-30.16435547 80.53077148 -30.32871094 81.06154297 -30.49804688 81.60839844 C-32.44352634 87.68472657 -34.85293391 93.4491687 -37.5 99.25 C-37.89058594 100.12140625 -38.28117187 100.9928125 -38.68359375 101.890625 C-40.58043828 106.08028835 -42.50194278 110.12480867 -45 114 C-45.495 113.01 -45.495 113.01 -46 112 C-45.20504544 109.91998837 -44.29988366 107.88190538 -43.3515625 105.8671875 C-42.75586799 104.58348623 -42.16033445 103.29971026 -41.56494141 102.01586914 C-41.24793274 101.33976593 -40.93092407 100.66366272 -40.60430908 99.96707153 C-34.01190268 85.88389184 -28.17834015 71.67056836 -23 57 C-23.66 57 -24.32 57 -25 57 C-25.153479 57.57032959 -25.30695801 58.14065918 -25.46508789 58.72827148 C-27.5522496 66.10115007 -30.39091146 73.03930652 -33.4375 80.0625 C-33.82692276 80.96400787 -33.82692276 80.96400787 -34.22421265 81.88372803 C-38.10856367 90.86458056 -42.12894311 99.77905747 -46.3125 108.625 C-46.77906006 109.624104 -47.24562012 110.62320801 -47.72631836 111.65258789 C-50.9715226 118.40633719 -54.64260612 125.64260612 -60 131 C-62.375 131.3125 -62.375 131.3125 -65 131 C-66.8125 129.1875 -66.8125 129.1875 -68 127 C-68 126.01 -68 125.02 -68 124 C-68.66 124 -69.32 124 -70 124 C-68.21223241 119.01041137 -65.62671915 114.49503468 -63.0625 109.875 C-62.57595947 108.99481201 -62.08941895 108.11462402 -61.58813477 107.20776367 C-55.67312025 96.54893986 -49.58176487 85.98949859 -43.33203125 75.5234375 C-38.72676756 67.7985625 -34.38441096 60.0597976 -30.4765625 51.95703125 C-29.26644208 49.53358904 -27.97531142 47.32564779 -26.5 45.0625 C-24.58538439 41.15349314 -25.3121567 39.25492813 -26 35 C-26.59914487 24.23843631 -26.67958499 15.29508675 -19.8125 6.625 C-14.04442466 0.54186172 -8.11457716 -0.43470949 0 0 Z " fill="#F9F3EF" transform="translate(189,99)"/>
<path d="M0 0 C0.99 0 1.98 0 3 0 C5.27538845 9.07320625 7.54861035 18.14695379 9.8201561 27.22112274 C10.18911737 28.69497398 10.55811792 30.16881538 10.92715836 31.64264679 C18.65807541 62.51855207 18.65807541 62.51855207 22.11328125 76.74609375 C22.45292908 78.14464851 22.45292908 78.14464851 22.79943848 79.57145691 C23.81045341 83.74090895 24.81645677 87.91150425 25.81591797 92.08374023 C27.77832811 100.2397463 29.89509125 108.33262505 32.16976929 116.40722656 C34.21464752 123.69257118 36.04350184 131.01784208 37.8125 138.375 C38.27946289 140.27765625 38.27946289 140.27765625 38.75585938 142.21875 C39.04912109 143.43304688 39.34238281 144.64734375 39.64453125 145.8984375 C39.90596924 146.97786621 40.16740723 148.05729492 40.43676758 149.16943359 C41 152 41 152 41 156 C106.34796892 174.21861318 172.13440086 172.44908255 232.65234375 139.54296875 C237.72027536 136.67501794 242.25570596 133.30710505 246.75 129.6171875 C249 128 249 128 252 128 C252.33 129.65 252.66 131.3 253 133 C214.86992556 158.11123828 168.83849717 172.11753781 123.2265625 172.16796875 C121.59900528 172.17296135 121.59900528 172.17296135 119.93856812 172.17805481 C117.65452493 172.18308276 115.3704745 172.18546443 113.08642578 172.18530273 C109.66816433 172.1874726 106.25023515 172.20562757 102.83203125 172.22460938 C53.93469987 172.3521759 53.93469987 172.3521759 43.32421875 164.80859375 C39.00315707 158.90696673 36.99009835 153.24481429 35.28613281 146.21044922 C35.04480621 145.25139175 34.80347961 144.29233429 34.55484009 143.30421448 C33.76113011 140.14006537 32.98224595 136.9724574 32.203125 133.8046875 C31.64610147 131.57462471 31.08803833 129.34482137 30.5289917 127.11526489 C29.0566057 121.2333505 27.5962491 115.34851946 26.13903809 109.46282959 C23.82911781 100.1408439 21.50247036 90.8230112 19.17446709 81.5055275 C18.61095735 79.24950996 18.04800448 76.99335326 17.48561287 74.73705673 C13.95974946 60.59840844 10.35355747 46.4953523 6.34002686 32.48629761 C3.93659471 24.06362124 2.2121394 15.67531171 1 7 C0.81308594 5.69804687 0.62617188 4.39609375 0.43359375 3.0546875 C0.29050781 2.04664063 0.14742187 1.03859375 0 0 Z " fill="#080C05" transform="translate(24,126)"/>
<path d="M0 0 C4.80216705 0.73747565 8.31356642 2.67111101 12.5 5.0390625 C15.52322107 6.2011131 16.88548455 5.66094297 20 5 C25.67100276 6.12198843 30.54625744 8.00039691 34.0078125 12.76171875 C36.10117269 16.95369883 37.73193168 21.18970259 39.203125 25.63671875 C41.51251276 29.95929019 43.81530348 31.06495445 48.1875 32.9375 C49.16879883 33.39092773 49.16879883 33.39092773 50.16992188 33.85351562 C51.7706348 34.58960989 53.38415801 35.29773842 55 36 C54.27031096 40.50871015 52.67844067 43.28474359 50 47 C45.83607488 45.90423023 42.64150426 44.19179054 39.0625 41.875 C34.68757904 39.14812037 32.08721064 38.33645079 27 39 C27.495 38.01 27.495 38.01 28 37 C36.08330939 36.32639088 41.7355197 38.55828345 49 42 C44.72630501 37.15740405 38.400693 35.23232513 32.125 34.625 C29.10186803 34.80080108 29.10186803 34.80080108 27.0546875 36.015625 C23.26631949 37.83058458 19.93624208 37.18907313 16 36 C8.1578195 31.7973421 1.42629695 26.10173649 -5 20 C-3 19 -3 19 -1.12060547 19.43725586 C-0.00516357 19.82216187 -0.00516357 19.82216187 1.1328125 20.21484375 C2.34130859 20.62573242 2.34130859 20.62573242 3.57421875 21.04492188 C4.41597656 21.33947266 5.25773437 21.63402344 6.125 21.9375 C7.39923828 22.37352539 7.39923828 22.37352539 8.69921875 22.81835938 C10.80186749 23.53893001 12.90187477 24.26638315 15 25 C14.05898437 24.52691406 13.11796875 24.05382812 12.1484375 23.56640625 C4.4508789 19.535235 -1.06061184 16.10388422 -5 8 C-4.01 7.67 -3.02 7.34 -2 7 C-0.08642578 8.03222656 -0.08642578 8.03222656 2.0546875 9.640625 C2.83457031 10.21683594 3.61445312 10.79304687 4.41796875 11.38671875 C5.22878906 12.00160156 6.03960937 12.61648437 6.875 13.25 C8.47527906 14.4444298 10.07680752 15.63718782 11.6796875 16.828125 C12.42831055 17.38564453 13.17693359 17.94316406 13.94824219 18.51757812 C16.22076899 20.15950849 18.55241728 21.63252463 21 23 C21 22.34 21 21.68 21 21 C19.4011809 19.76969274 17.74469415 18.61359837 16.0625 17.5 C11.10421053 14.20842105 11.10421053 14.20842105 10 12 C13.72908331 12.50199198 17.36147686 13.04207023 21 14 C20.20565552 13.56131592 20.20565552 13.56131592 19.39526367 13.11376953 C16.99193111 11.78552194 14.58970619 10.45528352 12.1875 9.125 C11.35412109 8.66480469 10.52074219 8.20460937 9.66210938 7.73046875 C8.85966797 7.28574219 8.05722656 6.84101563 7.23046875 6.3828125 C6.49207764 5.97434082 5.75368652 5.56586914 4.99291992 5.14501953 C3.28741338 4.16513154 1.63660994 3.09107329 0 2 C0 1.34 0 0.68 0 0 Z " fill="#F8F3EE" transform="translate(96,123)"/>
<path d="M0 0 C0.99 0 1.98 0 3 0 C5.27538845 9.07320625 7.54861035 18.14695379 9.8201561 27.22112274 C10.18911737 28.69497398 10.55811792 30.16881538 10.92715836 31.64264679 C18.65807541 62.51855207 18.65807541 62.51855207 22.11328125 76.74609375 C22.45292908 78.14464851 22.45292908 78.14464851 22.79943848 79.57145691 C23.81045341 83.74090895 24.81645677 87.91150425 25.81591797 92.08374023 C27.77832811 100.2397463 29.89509125 108.33262505 32.16976929 116.40722656 C34.21464752 123.69257118 36.04350184 131.01784208 37.8125 138.375 C38.27946289 140.27765625 38.27946289 140.27765625 38.75585938 142.21875 C39.04912109 143.43304688 39.34238281 144.64734375 39.64453125 145.8984375 C39.90596924 146.97786621 40.16740723 148.05729492 40.43676758 149.16943359 C41 152 41 152 41 156 C43.31 156.66 45.62 157.32 48 158 C48 158.66 48 159.32 48 160 C42.04296875 159.90234375 42.04296875 159.90234375 40 159 C37.37536164 153.70487236 35.89926908 148.29813818 34.49145508 142.57763672 C34.26002808 141.65759354 34.02860107 140.73755035 33.79016113 139.78962708 C33.0279587 136.7542874 32.27386608 133.71699101 31.51953125 130.6796875 C30.98308381 128.53940898 30.4460192 126.39928506 29.90837097 124.25930786 C28.49110068 118.613116 27.08021095 112.96535174 25.67126465 107.31707764 C23.1696765 97.29027852 20.65968813 87.26559085 18.14453125 77.2421875 C17.87591467 76.17037106 17.60729809 75.09855461 17.33054161 73.99425888 C13.85506108 60.13994462 10.29051788 46.32202951 6.36238098 32.58834839 C3.95464705 24.13047487 2.21698407 15.70998518 1 7 C0.81308594 5.69804687 0.62617188 4.39609375 0.43359375 3.0546875 C0.29050781 2.04664063 0.14742187 1.03859375 0 0 Z " fill="#070B04" transform="translate(24,126)"/>
<path d="M0 0 C-0.33 0.99 -0.66 1.98 -1 3 C-2.89160156 3.81201172 -2.89160156 3.81201172 -5.390625 4.4296875 C-6.31665527 4.66494141 -7.24268555 4.90019531 -8.19677734 5.14257812 C-9.20434082 5.38427734 -10.2119043 5.62597656 -11.25 5.875 C-12.80968506 6.26461914 -12.80968506 6.26461914 -14.40087891 6.66210938 C-17.59722257 7.45597885 -20.79766771 8.23067993 -24 9 C-25.35786621 9.32919434 -25.35786621 9.32919434 -26.74316406 9.66503906 C-31.90224395 10.91424408 -37.06762693 12.13527255 -42.23535156 13.34814453 C-47.24394618 14.52908304 -52.24666716 15.73450017 -57.25 16.9375 C-59.38019923 17.44925664 -61.5104076 17.96097524 -63.640625 18.47265625 C-64.69830078 18.7267627 -65.75597656 18.98086914 -66.84570312 19.24267578 C-69.89168542 19.97399444 -72.93796984 20.7040388 -75.984375 21.43359375 C-77.98959139 21.91402889 -79.99479966 22.39449789 -82 22.875 C-82.99942627 23.11436279 -83.99885254 23.35372559 -85.02856445 23.6003418 C-91.20838735 25.08278625 -97.3846058 26.57942306 -103.55859375 28.0859375 C-105.04491449 28.44810975 -106.53124262 28.81025166 -108.01757812 29.17236328 C-110.8983413 29.87421936 -113.77844116 30.57871672 -116.65820312 31.28466797 C-122.33423446 32.67203652 -128.01417176 34.04895918 -133.72265625 35.296875 C-134.46394775 35.46026367 -135.20523926 35.62365234 -135.96899414 35.79199219 C-138.22276398 36.02281463 -139.85111955 35.67460979 -142 35 C-135.5 32 -135.5 32 -131 32 C-131 31.34 -131 30.68 -131 30 C-130.27688629 29.83063934 -129.55377258 29.66127869 -128.80874634 29.48678589 C-120.18509227 27.46657717 -111.5621593 25.44330832 -102.93959427 23.41845703 C-100.63456963 22.87724691 -98.32947964 22.33631582 -96.02438354 21.79541016 C-79.2515331 17.85853419 -62.48591238 13.89560326 -45.74609375 9.8203125 C-44.39217519 9.49110306 -43.03825272 9.16190974 -41.68432617 8.83273315 C-35.32668057 7.28609601 -28.97104299 5.73160564 -22.61767578 4.16748047 C-20.34021064 3.61148415 -18.06270641 3.05564793 -15.78515625 2.5 C-14.75805038 2.244534 -13.73094452 1.98906799 -12.67271423 1.7258606 C-11.7289241 1.4966391 -10.78513397 1.2674176 -9.81274414 1.03125 C-8.99858536 0.83080078 -8.18442657 0.63035156 -7.34559631 0.42382812 C-4.85078583 -0.02696166 -2.5298114 -0.07414241 0 0 Z " fill="#0B0B0B" transform="translate(172,0)"/>
<path d="M0 0 C2.25 1.9375 2.25 1.9375 4 5 C4.37125 5.6084375 4.7425 6.216875 5.125 6.84375 C9.06903439 14.18403623 9.36311448 22.5959367 7.33984375 30.6171875 C3.66891317 39.8024597 -3.48992118 46.27886086 -12 51 C-13.65517494 51.69470723 -15.31948014 52.36906798 -17 53 C-16.765625 51.15234375 -16.765625 51.15234375 -16 49 C-14.109375 47.69140625 -14.109375 47.69140625 -11.75 46.5625 C-7.78149389 44.50592076 -4.97341824 42.39819227 -2 39 C-1.29875 38.21625 -0.5975 37.4325 0.125 36.625 C4.87705544 29.97212238 6.04046978 24.09131285 5 16 C3.93225951 12.52262896 2.53025286 9.29403829 1 6 C0.67 5.01 0.34 4.02 0 3 C-10.83331554 4.23526507 -10.83331554 4.23526507 -19.39453125 10.5703125 C-24.14328304 16.67389549 -25.27414834 22.88230648 -25.1875 30.5625 C-25.18105469 31.82191406 -25.17460937 33.08132812 -25.16796875 34.37890625 C-25.01520163 37.67228107 -24.62279235 40.7664621 -24 44 C-24.99 44 -25.98 44 -27 44 C-30.55127682 36.59794109 -30.14473358 27.28565548 -28.0546875 19.4609375 C-25.90164397 14.00385232 -23.65666117 9.72532894 -19 6 C-17.7934375 4.9171875 -17.7934375 4.9171875 -16.5625 3.8125 C-11.3106491 0.09777619 -6.26884011 -0.70777227 0 0 Z " fill="#0F1609" transform="translate(189,96)"/>
<path d="M0 0 C0.99 0 1.98 0 3 0 C4.89350055 7.21506999 6.78054339 14.43180479 8.66002274 21.6505394 C9.53354289 25.00479656 10.40903243 28.35851 11.28955078 31.7109375 C14.97188371 45.73626212 18.50152292 59.72783887 21.20800781 73.97753906 C22.11909005 78.73339384 23.33940378 83.368986 24.75 88 C25.98197798 92.10659326 27 95.65837009 27 100 C25.515 99.505 25.515 99.505 24 99 C22.99039037 96.0276017 22.18742492 93.16530409 21.45629883 90.12158203 C21.22177505 89.18991211 20.98725128 88.25824219 20.74562073 87.29833984 C19.97023869 84.20446957 19.21349871 81.10635704 18.45703125 78.0078125 C17.92425988 75.86382945 17.39044845 73.7201046 16.8556366 71.57662964 C15.73584851 67.07756027 14.62450225 62.57652137 13.51977539 58.07373047 C12.10185569 52.2946936 10.66977016 46.5192952 9.23219776 40.74511909 C7.86482476 35.25054155 6.50434678 29.75426438 5.14453125 24.2578125 C4.88332804 23.20432743 4.62212482 22.15084236 4.35300636 21.0654335 C3.61670873 18.09027792 2.88529819 15.11396695 2.15551758 12.13720703 C1.93581299 11.25189301 1.7161084 10.36657898 1.48974609 9.45443726 C1.29214188 8.64399963 1.09453766 7.83356201 0.89094543 6.99856567 C0.71785764 6.29469286 0.54476984 5.59082005 0.36643696 4.86561775 C0 3 0 3 0 0 Z " fill="#040602" transform="translate(209,31)"/>
<path d="M0 0 C0 0.99 0 1.98 0 3 C-4.0985791 4.90631586 -8.16731559 6.39630266 -12.5 7.6875 C-17.73152794 9.25156506 -22.86787557 10.99831926 -28.01074219 12.83251953 C-39.36276166 16.87598993 -50.76841331 20.33689808 -62.44335938 23.32006836 C-64.20367416 23.7882193 -65.95496986 24.29121049 -67.69726562 24.82250977 C-74.25841154 26.78887729 -80.16475586 27.43543605 -87 27.3125 C-88.39025391 27.31733398 -88.39025391 27.31733398 -89.80859375 27.32226562 C-96.59789582 27.26806945 -96.59789582 27.26806945 -100 25 C-100 24.34 -100 23.68 -100 23 C-98.700625 23.23976563 -98.700625 23.23976563 -97.375 23.484375 C-81.40532838 25.92418594 -66.3831043 21.00381828 -51.3125 16.3125 C-49.29841201 15.68778767 -47.28383416 15.06489773 -45.2676239 14.44706726 C-43.46782354 13.89532923 -41.67000322 13.33714416 -39.87231445 12.77856445 C-37 12 -37 12 -34 12 C-34 11.34 -34 10.68 -34 10 C-33.42145264 9.83918945 -32.84290527 9.67837891 -32.24682617 9.51269531 C-17.90009836 5.56959542 -17.90009836 5.56959542 -3.86328125 0.6640625 C-2 0 -2 0 0 0 Z " fill="#141E0C" transform="translate(115,40)"/>
<path d="M0 0 C0.66 0 1.32 0 2 0 C0.61567693 7.50037189 -1.90453179 14.08063344 -4.9375 21.0625 C-5.66731079 22.75802002 -5.66731079 22.75802002 -6.41186523 24.48779297 C-7.93002332 27.99686997 -9.46335321 31.49898507 -11 35 C-11.47211914 36.08555176 -11.94423828 37.17110352 -12.43066406 38.28955078 C-25.71234345 68.71234345 -25.71234345 68.71234345 -34 77 C-36.8125 77.4375 -36.8125 77.4375 -40 77 C-43.10567268 74.58447681 -44.7140129 72.98995534 -45.8125 69.1875 C-45.874375 68.465625 -45.93625 67.74375 -46 67 C-45.01 67 -44.02 67 -43 67 C-42.01 68.98 -41.02 70.96 -40 73 C-37.64332313 73.35020207 -37.64332313 73.35020207 -35 73 C-28.75728773 66.96091926 -25.11223462 57.73383557 -21.4375 50 C-21.14607117 49.39314362 -20.85464233 48.78628723 -20.55438232 48.16104126 C-13.00185193 32.40948712 -6.47805105 16.21595737 0 0 Z " fill="#161515" transform="translate(164,156)"/>
<path d="M0 0 C3.31118513 0.62947774 6.53823354 1.38860687 9.78125 2.3046875 C22.79507513 5.89898206 35.58816376 8.4856381 49 10 C49.91023926 10.10296387 50.82047852 10.20592773 51.75830078 10.31201172 C57.16855326 10.91420792 62.58186787 11.47366716 68 12 C68 12.33 68 12.66 68 13 C12.65835946 13.86201932 12.65835946 13.86201932 2.1171875 5.5078125 C0.79054412 3.7173078 0.37610245 2.18139423 0 0 Z " fill="#91DE5B" transform="translate(65,285)"/>
<path d="M0 0 C0 0.66 0 1.32 0 2 C-0.65073486 2.16081055 -1.30146973 2.32162109 -1.97192383 2.48730469 C-4.92294893 3.22591706 -7.86752429 3.98764163 -10.8125 4.75 C-11.83666016 5.00265625 -12.86082031 5.2553125 -13.91601562 5.515625 C-15.39038086 5.90234375 -15.39038086 5.90234375 -16.89453125 6.296875 C-17.80050049 6.52729492 -18.70646973 6.75771484 -19.63989258 6.99511719 C-22.47894278 8.2039235 -23.51400585 9.31534321 -25 12 C-24.77916611 16.12223252 -24.13209068 19.44651554 -22 23 C-26.75 22.25 -26.75 22.25 -29 20 C-29.3359375 17.1015625 -29.3359375 17.1015625 -29.375 13.625 C-29.40335938 12.48289062 -29.43171875 11.34078125 -29.4609375 10.1640625 C-29 7 -29 7 -27.421875 4.6953125 C-24.28908626 2.50236038 -21.63014374 1.94396907 -17.875 1.25 C-17.2142749 1.12713623 -16.5535498 1.00427246 -15.87280273 0.87768555 C-10.54816668 -0.05061633 -5.38624425 -0.34218493 0 0 Z " fill="#1C1B1B" transform="translate(29,35)"/>
<path d="M0 0 C4.3432038 1.47459424 7.68996497 3.83031049 11.3125 6.5625 C18.82681286 12.09017708 26.77846114 16.61517927 35 21 C35.72445312 21.39960938 36.44890625 21.79921875 37.1953125 22.2109375 C40.35394849 23.59198614 43.58938141 23.65893814 47 24 C46.7834375 23.46890625 46.566875 22.9378125 46.34375 22.390625 C46.0653125 21.68421875 45.786875 20.9778125 45.5 20.25 C45.2215625 19.55390625 44.943125 18.8578125 44.65625 18.140625 C44 16 44 16 44 12 C48.93438639 16.77521264 48.93438639 16.77521264 49.1875 21.5 C49 25 49 25 47 27 C32.52319682 27.24128005 19.32425861 16.21644659 7.95703125 8.33056641 C6.70187219 7.47719603 5.4292466 6.64866359 4.13671875 5.85302734 C2.46875 4.82421875 2.46875 4.82421875 0 3 C0 2.01 0 1.02 0 0 Z " fill="#10140C" transform="translate(168,181)"/>
<path d="M0 0 C3.26304118 1.43807408 5.48722688 3.23738034 8.0625 5.6875 C14.81863373 11.76691097 21.68348692 17.50658498 31.02734375 18.22265625 C33.36979643 17.9582606 34.92829007 17.09654142 37 16 C43.84396906 15.00192118 50.06062396 17.67432414 56 21 C56.495 22.485 56.495 22.485 57 24 C53.89763201 23.52994424 51.60433036 22.80977421 48.75 21.4375 C44.58698205 19.56185455 40.49821148 19.523611 36 20 C35.01 20.495 35.01 20.495 34 21 C24.58265907 22.21514076 18.57245352 18.20798641 11.1953125 12.63720703 C9.35654445 11.20139685 7.54732028 9.73730971 5.75 8.25 C5.17668945 7.77844482 4.60337891 7.30688965 4.01269531 6.82104492 C2.61225958 5.61683353 1.29761549 4.31435892 0 3 C0 2.01 0 1.02 0 0 Z " fill="#161616" transform="translate(88,141)"/>
<path d="M0 0 C0.99 0 1.98 0 3 0 C4.62460804 6.3118179 6.22531505 12.62934985 7.80957031 18.95141602 C8.35128464 21.10124338 8.89845007 23.24970483 9.45117188 25.39672852 C10.24486436 28.48370692 11.01880235 31.57507195 11.7890625 34.66796875 C12.03999664 35.62648239 12.29093079 36.58499603 12.54946899 37.57255554 C14.19388623 44.29228778 14.19388623 44.29228778 13.13818359 48.14575195 C12.76258301 48.75765381 12.38698242 49.36955566 12 50 C9.58856485 45.47460672 8.39954128 40.74093041 7.0625 35.8125 C6.66381714 34.34768188 6.66381714 34.34768188 6.25708008 32.85327148 C3.37426308 22.01242977 1.56123125 11.10049744 0 0 Z " fill="#1A2710" transform="translate(24,126)"/>
<path d="M0 0 C-0.33 0.99 -0.66 1.98 -1 3 C-3.35123408 3.8219605 -5.54631725 4.43187886 -7.96484375 4.97265625 C-8.67218155 5.14123642 -9.37951935 5.30981659 -10.10829163 5.48350525 C-12.38201583 6.02206778 -14.65952331 6.54225255 -16.9375 7.0625 C-18.43842357 7.41616311 -19.93907856 7.77096811 -21.43945312 8.12695312 C-25.62008414 9.11344723 -29.80839486 10.06121945 -34 11 C-35.04172363 11.23960449 -36.08344727 11.47920898 -37.15673828 11.72607422 C-38.03442871 11.91830566 -38.91211914 12.11053711 -39.81640625 12.30859375 C-40.5441626 12.47029053 -41.27191895 12.6319873 -42.02172852 12.79858398 C-44.24871289 13.02532249 -45.87581736 12.66371386 -48 12 C-41.5 9 -41.5 9 -37 9 C-37 8.34 -37 7.68 -37 7 C-32.0541042 5.83355811 -27.10621972 4.67613067 -22.15625 3.52709961 C-20.47174905 3.13473177 -18.78782401 2.739883 -17.10449219 2.3425293 C-14.68831224 1.77263526 -12.27021866 1.21162199 -9.8515625 0.65234375 C-9.0963028 0.47219223 -8.34104309 0.29204071 -7.56289673 0.10643005 C-2.22774341 -1.11387171 -2.22774341 -1.11387171 0 0 Z " fill="#434141" transform="translate(78,23)"/>
<path d="M0 0 C0.99 0.33 1.98 0.66 3 1 C4.59341344 4.79799915 5.28042176 8.43032194 5.75 12.5 C6.81232943 20.0146746 8.86681534 27.20040439 10.96777344 34.484375 C11.22848633 35.39832031 11.48919922 36.31226563 11.7578125 37.25390625 C11.9964502 38.07189697 12.23508789 38.8898877 12.48095703 39.73266602 C13 42 13 42 13 46 C12.01 45.67 11.02 45.34 10 45 C9.01305515 42.09372982 8.22782155 39.30447085 7.51953125 36.328125 C7.30181564 35.45355652 7.08410004 34.57898804 6.85978699 33.67791748 C6.40082594 31.8232369 5.9481458 29.96699263 5.5012207 28.109375 C4.81787429 25.27231254 4.1148072 22.44072398 3.40820312 19.609375 C2.96496744 17.80758114 2.52287297 16.00550608 2.08203125 14.203125 C1.87270462 13.35711731 1.66337799 12.51110962 1.44770813 11.63946533 C0.50305888 7.68670355 -0.27703287 4.09779955 0 0 Z " fill="#0E1508" transform="translate(223,85)"/>
<path d="M0 0 C0.33 1.65 0.66 3.3 1 5 C-5.67476363 9.44984242 -12.6745492 12.75044789 -20 16 C-19.828125 13.72265625 -19.828125 13.72265625 -19 11 C-16.671875 9.12109375 -16.671875 9.12109375 -13.75 7.4375 C-10.74350851 5.6782962 -8.01398023 4.01158888 -5.328125 1.78515625 C-3 0 -3 0 0 0 Z " fill="#080D05" transform="translate(276,254)"/>
<path d="M0 0 C0.66 0.66 1.32 1.32 2 2 C-1.15554136 7.48198667 -4.3229256 12.95696992 -7.50292969 18.42480469 C-8.46103315 20.07289263 -9.41756447 21.72189616 -10.37207031 23.37207031 C-11.59463561 25.48175782 -12.82688766 27.58543485 -14.0625 29.6875 C-14.43173584 30.32824463 -14.80097168 30.96898926 -15.18139648 31.62915039 C-16.06503389 33.12066403 -17.02505256 34.56650585 -18 36 C-18.66 36 -19.32 36 -20 36 C-19.42303503 31.49183201 -17.5501944 28.0753734 -15.25390625 24.23828125 C-14.88273178 23.60641403 -14.51155731 22.97454681 -14.12913513 22.3235321 C-13.34655698 20.99453103 -12.56052116 19.66756063 -11.77124023 18.3425293 C-10.562819 16.31303575 -9.36554632 14.27728781 -8.16992188 12.24023438 C-7.40689344 10.94753665 -6.64324286 9.65520591 -5.87890625 8.36328125 C-5.52051163 7.75494949 -5.162117 7.14661774 -4.79286194 6.51985168 C-3.34146129 4.08926907 -2.01071621 2.01071621 0 0 Z " fill="#171914" transform="translate(152,160)"/>
<path d="M0 0 C0 0.99 0 1.98 0 3 C-5.38673667 5.50545892 -10.87651681 7.24821253 -16.56640625 8.9453125 C-20.93777828 10.28805476 -25.23769627 11.81225241 -29.5390625 13.36328125 C-32 14 -32 14 -35 13 C-34.67 12.01 -34.34 11.02 -34 10 C-32.13330078 9.17211914 -32.13330078 9.17211914 -29.6953125 8.53515625 C-28.80626221 8.2942627 -27.91721191 8.05336914 -27.0012207 7.80517578 C-26.05206787 7.56009277 -25.10291504 7.31500977 -24.125 7.0625 C-22.20359204 6.5434459 -20.28300732 6.0213342 -18.36328125 5.49609375 C-17.43725098 5.24327637 -16.5112207 4.99045898 -15.55712891 4.72998047 C-11.5728772 3.59260099 -7.71777599 2.1763523 -3.86328125 0.6640625 C-2 0 -2 0 0 0 Z " fill="#151D0F" transform="translate(115,40)"/>
<path d="M0 0 C0.99 0.33 1.98 0.66 3 1 C2.54625 1.680625 2.0925 2.36125 1.625 3.0625 C-1.52686235 8.76009733 -2.26025945 14.11336695 -2.1875 20.5625 C-2.18105469 21.82191406 -2.17460937 23.08132812 -2.16796875 24.37890625 C-2.01520163 27.67228107 -1.62279235 30.7664621 -1 34 C-1.99 34 -2.98 34 -4 34 C-7.56786855 26.56335833 -7.21895601 17.1304193 -4.9140625 9.3203125 C-1.78995902 1.78995902 -1.78995902 1.78995902 0 0 Z " fill="#1C2118" transform="translate(166,106)"/>
<path d="M0 0 C1 2 1 2 0.46875 3.8828125 C-4.00985787 14.24862265 -11.27842787 21.7591148 -21.7734375 26.1640625 C-22.87558594 26.57785156 -22.87558594 26.57785156 -24 27 C-23.765625 25.15234375 -23.765625 25.15234375 -23 23 C-21.109375 21.69140625 -21.109375 21.69140625 -18.75 20.5625 C-10.70711862 16.39447748 -5.92218957 10.02266048 -2 2 C-1.34 1.34 -0.68 0.68 0 0 Z " fill="#141911" transform="translate(196,122)"/>
<path d="M0 0 C6.1044029 1.75748567 11.64559044 4.62057217 17.3125 7.4375 C18.32634766 7.92798828 19.34019531 8.41847656 20.38476562 8.92382812 C21.34705078 9.40142578 22.30933594 9.87902344 23.30078125 10.37109375 C24.17903564 10.80349365 25.05729004 11.23589355 25.9621582 11.68139648 C28 13 28 13 29 16 C24.99774683 15.38353163 21.86463695 14.10770326 18.26171875 12.27734375 C16.66166992 11.47006836 16.66166992 11.47006836 15.02929688 10.64648438 C13.92650391 10.08251953 12.82371094 9.51855469 11.6875 8.9375 C10.56537109 8.36966797 9.44324219 7.80183594 8.28710938 7.21679688 C5.52195592 5.81657023 2.75976284 4.41081335 0 3 C0 2.01 0 1.02 0 0 Z " fill="#191D14" transform="translate(172,170)"/>
<path d="M0 0 C1.32 0 2.64 0 4 0 C4.21914062 0.73089844 4.43828125 1.46179688 4.6640625 2.21484375 C6.33233397 5.69284831 8.33137439 7.21654192 11.375 9.5625 C14.79687288 12.22344427 18.0009044 14.86587403 21 18 C16.22504849 16.30475094 12.01301222 13.84762664 7.6875 11.25 C6.94693359 10.83234375 6.20636719 10.4146875 5.44335938 9.984375 C3.42974093 8.76692459 1.6757982 7.65331587 0 6 C-0.48046875 2.671875 -0.48046875 2.671875 0 0 Z " fill="#F0EFE3" transform="translate(84,140)"/>
<path d="M0 0 C7.83485963 5.0988769 15.4149827 10.54051387 23 16 C22.67 16.99 22.34 17.98 22 19 C14.16514037 13.9011231 6.5850173 8.45948613 -1 3 C-0.67 2.01 -0.34 1.02 0 0 Z " fill="#161515" transform="translate(95,128)"/>
<path d="M0 0 C5.56919068 0.451556 10.99766732 1.82199021 16.4375 3.0625 C17.26443359 3.24876953 18.09136719 3.43503906 18.94335938 3.62695312 C20.96279004 4.0822005 22.98147387 4.54075861 25 5 C24.67 5.99 24.34 6.98 24 8 C15.04586479 6.75363686 6.63990827 4.63287146 -2 2 C-1.34 1.34 -0.68 0.68 0 0 Z " fill="#111A0B" transform="translate(72,285)"/>
<path d="M0 0 C0.33 0.66 0.66 1.32 1 2 C1.66 2 2.32 2 3 2 C3.33 1.34 3.66 0.68 4 0 C4.75743977 3.09796878 5.47595455 6.20369731 6.1875 9.3125 C6.40341797 10.19357422 6.61933594 11.07464844 6.84179688 11.98242188 C7.12700195 13.25375977 7.12700195 13.25375977 7.41796875 14.55078125 C7.69290161 15.72120972 7.69290161 15.72120972 7.97338867 16.9152832 C8 19 8 19 6.53637695 20.77807617 C6.02937256 21.18131104 5.52236816 21.5845459 5 22 C4.1606242 18.89743488 3.3295495 15.79270556 2.5 12.6875 C2.26152344 11.80642578 2.02304687 10.92535156 1.77734375 10.01757812 C1.55175781 9.17001953 1.32617188 8.32246094 1.09375 7.44921875 C0.88427734 6.66893311 0.67480469 5.88864746 0.45898438 5.0847168 C0 3 0 3 0 0 Z " fill="#1A2810" transform="translate(30,154)"/>
<path d="M0 0 C0.99 0 1.98 0 3 0 C3.99 1.98 4.98 3.96 6 6 C8.33071879 6.41870553 8.33071879 6.41870553 11 6 C13.20142332 3.5609294 13.20142332 3.5609294 15 1 C15.66 1 16.32 1 17 1 C16.4229284 4.89523329 14.80519876 7.27061743 12 10 C9.0625 10.625 9.0625 10.625 6 10 C2.89432732 7.58447681 1.2859871 5.98995534 0.1875 2.1875 C0.125625 1.465625 0.06375 0.74375 0 0 Z " fill="#192013" transform="translate(118,223)"/>
<path d="M0 0 C-3.04394377 2.02929584 -4.98253059 2.54187162 -8.5 3.3125 C-12.81932454 4.42938698 -12.81932454 4.42938698 -16.1875 7.25 C-17.77193596 12.61270634 -17.43278817 16.9823744 -15 22 C-16.96875 20.90234375 -16.96875 20.90234375 -19 19 C-19.53125 16.00390625 -19.53125 16.00390625 -19.5 12.5625 C-19.5103125 11.42941406 -19.520625 10.29632813 -19.53125 9.12890625 C-18.89312141 5.37051656 -18.04880655 4.2330024 -15 2 C-12.59765625 1.171875 -12.59765625 1.171875 -10.0625 0.75 C-9.22847656 0.60046875 -8.39445313 0.4509375 -7.53515625 0.296875 C-4.99776682 -0.00026151 -2.55218059 -0.05478742 0 0 Z " fill="#E4DEDC" transform="translate(19,36)"/>
<path d="M0 0 C3.3 0 6.6 0 10 0 C10 0.66 10 1.32 10 2 C4.72 3.32 -0.56 4.64 -6 6 C-6 5.34 -6 4.68 -6 4 C-6.66 3.67 -7.32 3.34 -8 3 C-5.36 2.67 -2.72 2.34 0 2 C0 1.34 0 0.68 0 0 Z " fill="#363534" transform="translate(19,35)"/>
<path d="M0 0 C0.81726562 0.15339844 1.63453125 0.30679688 2.4765625 0.46484375 C6.44624772 1.0677782 10.36946033 1.34157964 14.375 1.5625 C15.11105469 1.60568359 15.84710938 1.64886719 16.60546875 1.69335938 C18.40348068 1.79843799 20.20171958 1.89962093 22 2 C22 2.66 22 3.32 22 4 C18.89591193 4.05807043 15.7919636 4.09361914 12.6875 4.125 C11.36588867 4.15013672 11.36588867 4.15013672 10.01757812 4.17578125 C9.17001953 4.18222656 8.32246094 4.18867187 7.44921875 4.1953125 C6.66893311 4.20578613 5.88864746 4.21625977 5.0847168 4.22705078 C3 4 3 4 0 2 C0 1.34 0 0.68 0 0 Z " fill="#000000" transform="translate(15,63)"/>
<path d="M0 0 C6.92845425 -0.78732435 12.9776715 1.627876 19 5 C19.33 5.99 19.66 6.98 20 8 C16.89382104 7.52936682 14.46479554 6.76645624 11.5625 5.5 C8.1224359 3.87948718 8.1224359 3.87948718 4.6875 3.5 C3.800625 3.335 2.91375 3.17 2 3 C1.34 2.01 0.68 1.02 0 0 Z " fill="#242323" transform="translate(125,157)"/>
<path d="M0 0 C5.68502535 1.64566523 10.76681636 4.29032784 16 7 C16 7.99 16 8.98 16 10 C9.83643195 8.3341708 4.51740344 5.12194714 -1 2 C-0.67 1.34 -0.34 0.68 0 0 Z " fill="#151712" transform="translate(97,120)"/>
<path d="M0 0 C3 1 3 1 4.6875 3.8125 C6.76949627 8.99580323 6.24310673 14.51659261 6 20 C5.34 20.33 4.68 20.66 4 21 C3.96261719 20.32195312 3.92523438 19.64390625 3.88671875 18.9453125 C3.41514671 12.26933186 2.18078865 6.32291553 0 0 Z " fill="#090C06" transform="translate(191,102)"/>
<path d="M0 0 C-3.22515763 1.73662334 -6.51329166 2.8905928 -10 4 C-10 4.66 -10 5.32 -10 6 C-11.58086048 6.36504603 -13.16483907 6.71660506 -14.75 7.0625 C-15.63171875 7.25972656 -16.5134375 7.45695312 -17.421875 7.66015625 C-19.98679028 7.99825872 -21.57091639 7.81158635 -24 7 C-17.5 4 -17.5 4 -13 4 C-13 3.34 -13 2.68 -13 2 C-4.57142857 -0.28571429 -4.57142857 -0.28571429 0 0 Z " fill="#4B4949" transform="translate(54,28)"/>
<path d="M0 0 C4.93438639 4.77521264 4.93438639 4.77521264 5.1875 9.5 C5 13 5 13 3 15 C-0.125 15.125 -0.125 15.125 -3 15 C-2.67 14.01 -2.34 13.02 -2 12 C-0.35 12 1.3 12 3 12 C2.7834375 11.46890625 2.566875 10.9378125 2.34375 10.390625 C2.0653125 9.68421875 1.786875 8.9778125 1.5 8.25 C1.2215625 7.55390625 0.943125 6.8578125 0.65625 6.140625 C0 4 0 4 0 0 Z " fill="#191E14" transform="translate(212,193)"/>
<path d="M0 0 C0.99 0.33 1.98 0.66 3 1 C1.50893112 5.27750385 -1.03814285 6.39347545 -5 8.3125 C-6.0725 8.84488281 -7.145 9.37726563 -8.25 9.92578125 C-9.1575 10.28027344 -10.065 10.63476562 -11 11 C-11.66 10.67 -12.32 10.34 -13 10 C-11.71802734 9.04287109 -11.71802734 9.04287109 -10.41015625 8.06640625 C-9.29423934 7.23181293 -8.17835564 6.39717522 -7.0625 5.5625 C-6.21655273 4.93118164 -6.21655273 4.93118164 -5.35351562 4.28710938 C-2.57122778 2.26901433 -2.57122778 2.26901433 0 0 Z " fill="#8ED858" transform="translate(274,256)"/>
<path d="M0 0 C0.66 0 1.32 0 2 0 C0.90974682 5.65649 -0.327618 10.86902656 -3 16 C-3.99 16.33 -4.98 16.66 -6 17 C-4.33846988 11.14340094 -2.52958084 5.5409866 0 0 Z " fill="#131212" transform="translate(164,156)"/>
<path d="M0 0 C-2.52952288 3.15111212 -4.76756266 3.58798017 -8.6875 4.1875 C-9.68136719 4.34605469 -10.67523438 4.50460938 -11.69921875 4.66796875 C-12.45847656 4.77753906 -13.21773437 4.88710937 -14 5 C-14 4.34 -14 3.68 -14 3 C-14.99 2.67 -15.98 2.34 -17 2 C-14.73139163 1.4695592 -12.46001511 0.95094566 -10.1875 0.4375 C-8.29064453 0.00244141 -8.29064453 0.00244141 -6.35546875 -0.44140625 C-3 -1 -3 -1 0 0 Z " fill="#19260F" transform="translate(51,62)"/>
<path d="M0 0 C0 0.66 0 1.32 0 2 C-1.55966218 2.508783 -3.12289241 3.00663469 -4.6875 3.5 C-5.99267578 3.91765625 -5.99267578 3.91765625 -7.32421875 4.34375 C-9.99391677 4.99850805 -12.26396684 5.11831495 -15 5 C-11.5845815 0.30379956 -5.36926611 0 0 0 Z " fill="#131212" transform="translate(58,28)"/>
<path d="M0 0 C1.23556641 0.01740234 1.23556641 0.01740234 2.49609375 0.03515625 C3.32238281 0.04417969 4.14867187 0.05320313 5 0.0625 C5.63808594 0.07410156 6.27617187 0.08570313 6.93359375 0.09765625 C0.84792287 3.14049169 -3.23055632 4.32937998 -10.06640625 4.09765625 C-10.06640625 3.43765625 -10.06640625 2.77765625 -10.06640625 2.09765625 C-8.93203125 1.95328125 -7.79765625 1.80890625 -6.62890625 1.66015625 C-3.60888417 1.18331066 -2.70258268 0.1277213 0 0 Z " fill="#0B0A0A" transform="translate(124.06640625,157.90234375)"/>
<path d="M0 0 C0.33 0 0.66 0 1 0 C1.66 5.94 2.32 11.88 3 18 C2.01 18 1.02 18 0 18 C-2.18529142 13.70226021 -1.97797551 10.87886533 -1.125 6.1875 C-0.92132813 5.02605469 -0.71765625 3.86460938 -0.5078125 2.66796875 C-0.34023437 1.78753906 -0.17265625 0.90710938 0 0 Z " fill="#37432D" transform="translate(162,122)"/>
<path d="M0 0 C0.33 0 0.66 0 1 0 C0.67 5.28 0.34 10.56 0 16 C-0.66 15.67 -1.32 15.34 -2 15 C-2.05386629 12.87527424 -2.09273071 10.75016348 -2.125 8.625 C-2.14820313 7.44164063 -2.17140625 6.25828125 -2.1953125 5.0390625 C-2 2 -2 2 0 0 Z " fill="#0C1308" transform="translate(162,117)"/>
<path d="M0 0 C3.63 0.66 7.26 1.32 11 2 C10.67 2.99 10.34 3.98 10 5 C4.06 4.01 4.06 4.01 -2 3 C-1.34 2.67 -0.68 2.34 0 2 C0 1.34 0 0.68 0 0 Z " fill="#1D2C12" transform="translate(86,288)"/>
<path d="M0 0 C0 0.99 0 1.98 0 3 C-6.625 6 -6.625 6 -10 6 C-10.33 5.01 -10.66 4.02 -11 3 C-9.54293274 2.49632243 -8.08429904 1.99717444 -6.625 1.5 C-5.81289062 1.2215625 -5.00078125 0.943125 -4.1640625 0.65625 C-2 0 -2 0 0 0 Z " fill="#23271E" transform="translate(115,40)"/>
<path d="M0 0 C-2.36797991 2.61724095 -4.89600354 4.32861729 -8 6 C-8.66 6 -9.32 6 -10 6 C-9.875 4.1875 -9.875 4.1875 -9 2 C-3.81203008 -1.27067669 -3.81203008 -1.27067669 0 0 Z " fill="#192510" transform="translate(182,143)"/>
<path d="M0 0 C0.99 0 1.98 0 3 0 C4.5625 2.8125 4.5625 2.8125 6 6 C5.67 6.99 5.34 7.98 5 9 C1.7457985 6.16569547 0.4793247 4.31392226 0 0 Z " fill="#1F2618" transform="translate(118,223)"/>
<path d="M0 0 C0.33 0 0.66 0 1 0 C1.28875 1.0725 1.5775 2.145 1.875 3.25 C2.72820109 6.09400364 3.5636503 8.43508983 5 11 C4.01 11 3.02 11 2 11 C-0.57969732 7.65594791 -1.46750249 5.20752241 -1 1 C-0.67 0.67 -0.34 0.34 0 0 Z " fill="#0F0E0E" transform="translate(2,47)"/>
<path d="M0 0 C-2.35686635 1.26908188 -4.56309961 2.18019188 -7.125 3 C-10.08650724 3.79613329 -10.08650724 3.79613329 -12 6 C-12 5.34 -12 4.68 -12 4 C-13.98 4 -15.96 4 -18 4 C-12.50312124 1.03343051 -6.25589769 -0.4036063 0 0 Z " fill="#B6B2B0" transform="translate(41,31)"/>
<path d="M0 0 C0.33 0.66 0.66 1.32 1 2 C1.66 2 2.32 2 3 2 C3.33 1.34 3.66 0.68 4 0 C4.33 1.98 4.66 3.96 5 6 C4.34 6 3.68 6 3 6 C3 7.65 3 9.3 3 11 C0.87953208 7.46588679 0.46800711 4.05606165 0 0 Z " fill="#49702E" transform="translate(30,154)"/>
<path d="M0 0 C5.28497409 -0.44041451 5.28497409 -0.44041451 8 0 C10.5 2.5 10.5 2.5 12 5 C11.01 5.33 10.02 5.66 9 6 C8.67 5.01 8.34 4.02 8 3 C6.14255793 2.38932856 6.14255793 2.38932856 4 2 C2.6520257 1.36345658 1.31403276 0.70394612 0 0 Z " fill="#222D19" transform="translate(181,96)"/>
<path d="M0 0 C2.89932357 2.39509338 3.50168276 4.31245243 4 8 C3.34 8 2.68 8 2 8 C1.67 8.99 1.34 9.98 1 11 C-0.17571451 7.32589215 -0.07366746 3.83070817 0 0 Z " fill="#15200D" transform="translate(36,172)"/>
<path d="M0 0 C2.86697492 1.28519565 4.97607712 2.57129254 7 5 C7 5.66 7 6.32 7 7 C3.76509224 6.44225728 2.02144994 5.62788492 0 3 C0 2.01 0 1.02 0 0 Z " fill="#212120" transform="translate(88,141)"/>
<path d="M0 0 C2.02045442 0.60183749 4.02111039 1.27306096 6 2 C6.33 2.66 6.66 3.32 7 4 C6.01 5.32 5.02 6.64 4 8 C2.68 5.36 1.36 2.72 0 0 Z " fill="#F1EDE7" transform="translate(213,193)"/>
<path d="M0 0 C0.99 0.33 1.98 0.66 3 1 C2.67 1.99 2.34 2.98 2 4 C-0.5625 5.1875 -0.5625 5.1875 -3 6 C-2.625 3.5625 -2.625 3.5625 -2 1 C-1.34 0.67 -0.68 0.34 0 0 Z " fill="#273C19" transform="translate(259,264)"/>
<path d="M0 0 C-0.33 0.66 -0.66 1.32 -1 2 C-3.64860427 2.59355614 -6.29197322 2.74209269 -9 3 C-9 2.34 -9 1.68 -9 1 C-3.375 -1.125 -3.375 -1.125 0 0 Z " fill="#0E1509" transform="translate(81,53)"/>
<path d="M0 0 C2.52588702 2.36292656 3.88820837 3.66462511 5 7 C4.01 7.33 3.02 7.66 2 8 C0.4375 5.6875 0.4375 5.6875 -1 3 C-0.67 2.01 -0.34 1.02 0 0 Z " fill="#201F1F" transform="translate(212,193)"/>
<path d="M0 0 C0.66 0 1.32 0 2 0 C3.35439668 2.70879335 3.06501451 5.00933268 3 8 C2.34 8 1.68 8 1 8 C-0.35439668 5.29120665 -0.06501451 2.99066732 0 0 Z " fill="#10180A" transform="translate(30,148)"/>
<path d="M0 0 C0.66 0 1.32 0 2 0 C2.33 1.32 2.66 2.64 3 4 C2.34 4 1.68 4 1 4 C1 5.98 1 7.96 1 10 C-0.80411967 7.24075815 -1.0127245 6.11027897 -0.625 2.75 C-0.41875 1.8425 -0.2125 0.935 0 0 Z " fill="#496F2D" transform="translate(29,144)"/>
<path d="M0 0 C2.97 1.98 2.97 1.98 6 4 C5.67 4.99 5.34 5.98 5 7 C3.02 5.68 1.04 4.36 -1 3 C-0.67 2.01 -0.34 1.02 0 0 Z " fill="#141712" transform="translate(95,128)"/>
<path d="M0 0 C0.99 0.33 1.98 0.66 3 1 C4.33599181 4.00598158 5.14345053 6.09147996 4.625 9.375 C4.41875 9.91125 4.2125 10.4475 4 11 C3.34 9.02 2.68 7.04 2 5 C1.34 5 0.68 5 0 5 C0 3.35 0 1.7 0 0 Z " fill="#375322" transform="translate(223,85)"/>
<path d="M0 0 C2.475 0.99 2.475 0.99 5 2 C5 3.32 5 4.64 5 6 C2.5 4.6875 2.5 4.6875 0 3 C0 2.01 0 1.02 0 0 Z " fill="#292827" transform="translate(112,141)"/>
<path d="M0 0 C-0.33 0.99 -0.66 1.98 -1 3 C-2.98 3 -4.96 3 -7 3 C-7 2.01 -7 1.02 -7 0 C-2.25 -1.125 -2.25 -1.125 0 0 Z " fill="#2C2C2C" transform="translate(78,23)"/>
<path d="M0 0 C0.99 0.33 1.98 0.66 3 1 C1.1875 3 1.1875 3 -1 5 C-1.99 5 -2.98 5 -4 5 C-3 2 -3 2 0 0 Z " fill="#0E1508" transform="translate(265,260)"/>
<path d="M0 0 C0.33 0.99 0.66 1.98 1 3 C-0.3125 5.1875 -0.3125 5.1875 -2 7 C-2.66 7 -3.32 7 -4 7 C-3.39816251 4.97954558 -2.72693904 2.97888961 -2 1 C-1.34 0.67 -0.68 0.34 0 0 Z " fill="#212020" transform="translate(150,193)"/>
<path d="M0 0 C0.66 0 1.32 0 2 0 C1.75 2.375 1.75 2.375 1 5 C-1.0625 6.3125 -1.0625 6.3125 -3 7 C-1.125 2.25 -1.125 2.25 0 0 Z " fill="#0D100A" transform="translate(142,176)"/>
<path d="M0 0 C0.99 0.33 1.98 0.66 3 1 C3.875 2.875 3.875 2.875 4 5 C2.5625 6.75 2.5625 6.75 1 8 C0.67 5.36 0.34 2.72 0 0 Z " fill="#304A1E" transform="translate(34,168)"/>
<path d="M0 0 C2.97 0.495 2.97 0.495 6 1 C6 1.99 6 2.98 6 4 C4.35 3.67 2.7 3.34 1 3 C0.67 2.01 0.34 1.02 0 0 Z " fill="#141E0C" transform="translate(15,63)"/>
</svg>
