<svg width="25" height="24" viewBox="0 0 25 24" fill="none" xmlns="http://www.w3.org/2000/svg">
<ellipse cx="12.2574" cy="11.7945" rx="11.5" ry="11" transform="rotate(-4.10203 12.2574 11.7945)" fill="#F8AD00"/>
<path d="M13.6737 0.143767L14.807 0.328796L15.9406 0.517722C16.0958 0.543419 16.242 0.602161 16.3721 0.690428L17.3232 1.33889L18.2741 1.98346C18.3575 2.0402 18.4386 2.10274 18.5144 2.16596L19.3598 2.86901L20.2055 3.57595C20.2858 3.64306 20.3592 3.71721 20.4288 3.79491L21.8848 5.42149C21.9339 5.47634 21.9864 5.53248 22.0418 5.59038L22.8544 6.43676L23.6632 7.28342C23.8172 7.44517 23.8921 7.65262 23.8818 7.87477L23.829 9.04952L23.7728 10.1775L23.9034 10.3601L24.1119 10.6467C24.1986 10.7675 24.2145 10.8985 24.2191 10.9405C24.226 11.0024 24.2227 11.0665 24.2203 11.1206L24.1714 12.2402L24.1227 13.3638C24.1169 13.4905 24.0941 13.6159 24.0555 13.7367L23.3703 15.8693C23.3375 15.9715 23.2983 16.0714 23.2507 16.1677L22.7512 17.1748L22.2558 18.1855C22.1905 18.3177 22.1012 18.4353 21.991 18.5334L20.3121 20.0245C20.2563 20.0742 20.2014 20.1279 20.1471 20.1813L19.3349 20.9797L18.5189 21.7784C18.4045 21.8908 18.2698 21.9757 18.1176 22.0265L17.0351 22.3861L15.9565 22.7454C15.8474 22.7817 15.7348 22.8053 15.6211 22.8204L14.5079 22.9707L13.3984 23.1168C13.278 23.1328 13.1551 23.1318 13.0343 23.1195L11.9339 23.0104L10.8331 22.8974C10.7533 22.8893 10.6732 22.8791 10.5924 22.8716L9.4769 22.7715L8.36503 22.6671C8.21016 22.6528 8.06247 22.6045 7.92804 22.5262L6.96354 21.9648L5.99876 21.3996C5.90747 21.3464 5.81803 21.2877 5.73543 21.2226L4.8722 20.5444L4.00479 19.8625C3.93735 19.8094 3.86925 19.7536 3.80102 19.697L2.92219 18.965L2.04364 18.2369C1.92481 18.1382 1.82827 18.0153 1.75939 17.8774L1.247 16.8489L0.730725 15.8207C0.664882 15.6883 0.626307 15.546 0.614271 15.3983L0.52099 14.2614L0.42743 13.1206C0.421162 13.044 0.412551 12.9676 0.403151 12.8913L0.267012 11.7575L0.126976 10.624C0.106377 10.4564 0.12675 10.2906 0.189733 10.1339L0.614964 9.07343L1.04047 8.01685C1.0779 7.92382 1.1199 7.83319 1.16591 7.74546L1.68635 6.75648L2.20316 5.77167C2.24537 5.69139 2.29125 5.61096 2.33863 5.5309L2.9253 4.53717L3.51225 3.54733L3.68112 3.33549C3.74603 3.27578 3.82033 3.22636 3.9015 3.18653L4.94223 2.6811L5.97878 2.17206C6.05575 2.13451 6.13144 2.09775 6.20585 2.06178L8.21218 1.09548C8.33262 1.03738 8.45897 0.996632 8.59148 0.978201L9.6927 0.824816L10.7903 0.675606C10.8584 0.666221 10.9286 0.652378 10.999 0.63714L12.1175 0.396361L13.2357 0.151685C13.3802 0.120358 13.528 0.119713 13.6737 0.143767ZM12.3284 1.37205L11.2103 1.61673C11.116 1.6371 11.0216 1.65147 10.9278 1.6644L9.83047 1.8175L8.72897 1.96699C8.69968 1.97107 8.67178 1.97951 8.64465 1.99262L7.64176 2.47967L6.6425 2.96254C6.56886 2.99813 6.49173 3.03559 6.41543 3.07282L5.37859 3.57797L4.3604 4.07003L3.7843 5.04734L3.19764 6.04107C3.15849 6.10724 3.12049 6.17208 3.08637 6.23703L2.56955 7.22184L2.05302 8.21054C2.02302 8.26772 1.99308 8.32643 1.96791 8.38896L1.54267 9.44944L1.11716 10.506L1.25692 11.6356L1.39696 12.7691C1.40808 12.8595 1.41691 12.9506 1.42431 13.0413L1.51759 14.1782L1.61115 15.3189C1.61294 15.3386 1.6176 15.3577 1.62703 15.3766L2.13941 16.405L2.65569 17.4332C2.66264 17.4466 2.67057 17.4575 2.68158 17.4666L3.56014 18.1947L4.44286 18.9264C4.50446 18.9775 4.56557 19.0265 4.62575 19.0739L5.48926 19.756L6.35667 20.4379C6.40196 20.4736 6.44947 20.5073 6.50086 20.5372L7.46536 21.0986L8.43404 21.6635C8.44178 21.6678 8.44866 21.6688 8.45797 21.6697L9.56985 21.774L10.6856 21.878C10.7689 21.8858 10.8517 21.8949 10.9342 21.9033L12.0346 22.0124L13.1354 22.1253C13.1777 22.1296 13.2241 22.1294 13.2684 22.1236L15.4875 21.8313C15.538 21.8246 15.5912 21.8135 15.6417 21.7967L16.7203 21.4374L17.8029 21.0778C17.8096 21.0754 17.812 21.0705 17.8176 21.065L18.6337 20.2663L19.4458 19.4679C19.5116 19.4032 19.5797 19.3418 19.6478 19.2811L20.487 18.5316L21.3264 17.7861C21.3403 17.7736 21.35 17.7577 21.3584 17.7407L21.858 16.7336L22.3533 15.723C22.3791 15.6707 22.4025 15.6164 22.4201 15.5615L22.7627 14.4952L23.1013 13.4292C23.1128 13.393 23.119 13.3566 23.1208 13.3181L23.1733 12.1943L23.2176 11.1181L23.0914 10.9431L22.8868 10.6562C22.7982 10.5326 22.7834 10.3982 22.7793 10.3584C22.7729 10.2968 22.7717 10.2339 22.7742 10.1786L22.8309 9.00361L22.8777 7.90762L22.1285 7.12717L21.3201 6.28441C21.2565 6.21804 21.1953 6.15069 21.1374 6.08603L20.4133 5.27246L19.6856 4.46307C19.648 4.42111 19.6076 4.37951 19.5634 4.34259L18.718 3.63955L17.8722 2.93261C17.8228 2.89135 17.7682 2.8501 17.7108 2.81104L16.7599 2.16647L15.8126 1.51772C15.8025 1.51084 15.792 1.50647 15.7803 1.50437L14.6467 1.31545L13.5095 1.1307C13.4881 1.12731 13.4673 1.12684 13.4469 1.13127L12.3284 1.37205Z" fill="#F8AD00"/>
<path d="M12.2574 7.79443L12.2574 16.7944M12.2574 7.79443L8.75739 10.6744M12.2574 7.79443L15.7574 10.6744" stroke="white" stroke-width="1.5" stroke-linecap="round" stroke-linejoin="round"/>
</svg>
