<svg width="373" height="456" viewBox="0 0 373 456" fill="none" xmlns="http://www.w3.org/2000/svg">
<path d="M12.8858 1.80133L12.8735 1.05143L12.8858 1.80133ZM21.0458 2.24063L20.9535 2.98493L21.0458 2.24063ZM23.0858 2.49371L22.9935 3.23801L23.0858 2.49371ZM31.2458 2.0837L31.0815 1.35192L31.2458 2.0837ZM32.2658 1.85466L32.4301 2.58643L32.2658 1.85466ZM33.2858 1.62561L33.1215 0.893835L33.2858 1.62561ZM41.4458 1.53189L41.594 0.796684L41.4458 1.53189ZM43.4858 1.94312L43.3376 2.67833L43.4858 1.94312ZM63.8858 2.38705L63.8454 1.63813L63.8858 2.38705ZM73.0658 1.77377L73.0081 1.02599L73.0658 1.77377ZM74.0858 1.69513L74.1434 2.44291L74.0858 1.69513ZM84.2858 1.98173L84.2125 2.72814L84.2858 1.98173ZM102.646 1.90818L102.775 2.64694L102.646 1.90818ZM103.666 1.72957L103.536 0.990814L103.666 1.72957ZM104.686 1.55097L104.815 2.28973L104.686 1.55097ZM113.866 1.57013L113.759 2.31249L113.866 1.57013ZM114.886 1.71685L114.779 2.45921L114.886 1.71685ZM125.086 1.93945L125.041 1.19078L125.086 1.93945ZM133.246 1.9664L133.196 2.71477L133.246 1.9664ZM135.286 2.1013L135.236 2.84967L135.286 2.1013ZM145.486 2.11098L145.454 1.36165L145.486 2.11098ZM176.086 0.928771L176.064 1.67846L176.086 0.928771ZM184.246 1.80592L184.109 2.54325L184.246 1.80592ZM185.266 1.99577L185.403 1.25844L185.266 1.99577ZM186.286 2.18563L186.149 2.92297L186.286 2.18563ZM194.446 2.65493L194.393 1.90682L194.446 2.65493ZM195.466 2.5824L195.519 3.33051L195.466 2.5824ZM196.486 2.50987L196.433 1.76176L196.486 2.50987ZM214.846 2.36869L214.775 1.62201L214.846 2.36869ZM227.086 1.95229L227.066 2.70203L227.086 1.95229ZM237.286 1.34342L237.199 0.59851L237.286 1.34342ZM245.446 1.14627L245.394 1.8945L245.446 1.14627ZM256.666 1.88201L256.62 2.63058L256.666 1.88201ZM257.686 1.94494L257.64 2.69351L257.686 1.94494ZM276.046 2.05252L276.129 1.30715L276.046 2.05252ZM287.266 2.83629L287.251 3.58614L287.266 2.83629ZM288.286 2.85642L288.271 3.60627L288.286 2.85642ZM297.466 2.53379L297.407 1.78613L297.466 2.53379ZM298.486 2.45317L298.545 3.20084L298.486 2.45317ZM308.686 2.23049L308.674 2.98039L308.686 2.23049ZM316.846 2.39748L316.827 3.14726L316.846 2.39748ZM318.886 2.4477L318.867 3.19747L318.886 2.4477ZM327.046 2.10124L327.127 2.84678L327.046 2.10124ZM328.066 1.98951L327.984 1.24397L328.066 1.98951ZM329.086 1.87779L329.004 1.13225L329.086 1.87779ZM337.246 1.38865L337.238 0.638693L337.246 1.38865ZM339.286 1.36754L339.278 0.617576L339.286 1.36754ZM347.446 1.47452L347.418 2.22402L347.446 1.47452ZM349.486 1.54913L349.513 0.799632L349.486 1.54913ZM357.646 2.15899L357.73 1.41372L357.646 2.15899ZM366.309 4.6089L365.882 5.22572L366.309 4.6089ZM366.944 5.04864L367.371 4.43183L366.944 5.04864ZM367.58 5.48838L367.154 6.1052L367.58 5.48838ZM370.149 11.3273L370.899 11.3226L370.149 11.3273ZM370.155 12.3473L369.405 12.3521L370.155 12.3473ZM370.162 13.3673L370.912 13.3626L370.162 13.3673ZM370.571 21.5273L369.825 21.5976L370.571 21.5273ZM370.763 23.5673L370.017 23.6376L370.763 23.5673ZM371.301 31.7273L370.552 31.7557L371.301 31.7273ZM371.378 33.7673L372.128 33.739L371.378 33.7673ZM371.517 41.9273L372.267 41.9303L371.517 41.9273ZM371.513 42.9473L370.763 42.9444L371.513 42.9473ZM371.509 43.9673L370.759 43.9644L371.509 43.9673ZM371.402 52.1273L372.152 52.1441L371.402 52.1273ZM371.379 53.1473L370.629 53.1306L371.379 53.1473ZM371.356 54.1673L370.606 54.1506L371.356 54.1673ZM370.844 62.3273L370.098 62.2505L370.844 62.3273ZM370.739 63.3473L369.993 63.2705L370.739 63.3473ZM370.634 64.3673L371.38 64.4442L370.634 64.3673ZM370.259 72.5273L371.009 72.5191L370.259 72.5273ZM370.281 74.5673L369.531 74.5756L370.281 74.5673ZM370.876 82.7273L371.619 82.6272L370.876 82.7273ZM371.013 83.7473L370.27 83.8475L371.013 83.7473ZM371.151 84.7673L371.894 84.6672L371.151 84.7673ZM371.68 92.9273L372.43 92.9312L371.68 92.9273ZM371.674 93.9473L370.924 93.9435L371.674 93.9473ZM371.669 94.9673L372.419 94.9712L371.669 94.9673ZM370.944 103.127L370.205 103L370.944 103.127ZM370.768 104.147L371.507 104.275L370.768 104.147ZM370.592 105.167L369.853 105.04L370.592 105.167ZM370.219 113.327L369.471 113.388L370.219 113.327ZM370.384 115.367L371.132 115.307L370.384 115.367ZM370.576 123.527L371.325 123.553L370.576 123.527ZM370.506 125.567L369.757 125.542L370.506 125.567ZM370.618 133.727L369.87 133.773L370.618 133.727ZM370.681 134.747L371.43 134.701L370.681 134.747ZM370.744 135.767L369.995 135.813L370.744 135.767ZM371.107 143.927L370.358 143.948L371.107 143.927ZM371.135 144.947L371.885 144.927L371.135 144.947ZM371.163 145.967L370.414 145.988L371.163 145.967ZM370.983 154.127L371.731 154.181L370.983 154.127ZM370.837 156.167L370.088 156.114L370.837 156.167ZM370.563 164.327L369.813 164.331L370.563 164.327ZM370.572 166.367L371.322 166.364L370.572 166.367ZM371.01 174.527L371.756 174.451L371.01 174.527ZM371.22 176.567L370.474 176.644L371.22 176.567ZM371.293 184.727L372.04 184.791L371.293 184.727ZM371.12 186.767L370.373 186.704L371.12 186.767ZM370.879 194.927L371.629 194.908L370.879 194.927ZM370.905 195.947L370.155 195.967L370.905 195.947ZM370.931 196.967L370.182 196.987L370.931 196.967ZM370.457 205.127L369.715 205.022L370.457 205.127ZM370.168 207.167L370.91 207.273L370.168 207.167ZM370.316 215.327L369.578 215.459L370.316 215.327ZM370.68 217.367L371.418 217.236L370.68 217.367ZM371.14 225.527L371.889 225.576L371.14 225.527ZM371.007 227.567L370.259 227.518L371.007 227.567ZM370.275 235.727L369.529 235.642L370.275 235.727ZM370.158 236.747L370.903 236.832L370.158 236.747ZM370.042 237.767L369.296 237.682L370.042 237.767ZM369.667 245.927L370.417 245.911L369.667 245.927ZM369.69 246.947L368.94 246.964L369.69 246.947ZM369.712 247.967L370.462 247.951L369.712 247.967ZM370.257 256.127L371.003 256.044L370.257 256.127ZM370.371 257.147L369.625 257.23L370.371 257.147ZM370.484 258.167L371.229 258.084L370.484 258.167ZM370.969 266.327L371.719 266.322L370.969 266.327ZM370.977 267.347L370.227 267.353L370.977 267.347ZM370.985 268.367L371.735 268.362L370.985 268.367ZM371.325 276.527L370.577 276.584L371.325 276.527ZM371.402 277.547L372.15 277.491L371.402 277.547ZM371.479 278.567L370.731 278.624L371.479 278.567ZM371.72 286.727L372.47 286.74L371.72 286.727ZM371.703 287.747L372.453 287.76L371.703 287.747ZM371.686 288.767L370.936 288.755L371.686 288.767ZM371.668 296.927L372.418 296.918L371.668 296.927ZM371.681 297.947L370.931 297.956L371.681 297.947ZM371.693 298.967L372.443 298.958L371.693 298.967ZM371.511 307.127L370.762 307.085L371.511 307.127ZM371.396 309.167L372.144 309.21L371.396 309.167ZM370.886 317.327L371.634 317.378L370.886 317.327ZM370.746 319.367L369.998 319.316L370.746 319.367ZM370.486 327.527L371.236 327.524L370.486 327.527ZM370.49 328.547L369.74 328.551L370.49 328.547ZM370.495 329.567L369.745 329.571L370.495 329.567ZM370.989 337.727L370.244 337.814L370.989 337.727ZM371.109 338.747L371.853 338.66L371.109 338.747ZM371.228 339.767L371.973 339.68L371.228 339.767ZM371.534 347.927L372.284 347.959L371.534 347.927ZM371.492 348.947L370.743 348.916L371.492 348.947ZM371.449 349.967L372.199 349.999L371.449 349.967ZM371.432 358.127L370.683 358.155L371.432 358.127ZM371.509 360.167L372.258 360.139L371.509 360.167ZM371.556 368.327L372.305 368.347L371.556 368.327ZM371.529 369.347L372.279 369.367L371.529 369.347ZM371.502 370.367L370.753 370.348L371.502 370.367ZM371.013 378.527L371.759 378.598L371.013 378.527ZM370.917 379.547L370.17 379.477L370.917 379.547ZM370.821 380.567L371.568 380.638L370.821 380.567ZM370.594 388.727L371.344 388.699L370.594 388.727ZM370.673 390.767L371.422 390.739L370.673 390.767ZM370.71 398.927L371.46 398.949L370.71 398.927ZM370.65 400.967L369.9 400.945L370.65 400.967ZM370.587 409.127L371.337 409.117L370.587 409.127ZM370.616 411.167L369.866 411.178L370.616 411.167ZM371.152 419.327L371.896 419.24L371.152 419.327ZM371.39 421.367L370.645 421.455L371.39 421.367ZM371.451 429.527L372.197 429.604L371.451 429.527ZM371.243 431.567L370.496 431.491L371.243 431.567ZM370.588 439.727L369.839 439.684L370.588 439.727ZM370.529 440.747L371.278 440.791L370.529 440.747ZM370.47 441.767L369.721 441.724L370.47 441.767ZM368.686 448.752L369.348 449.104L368.686 448.752ZM368.3 449.478L367.638 449.125L368.3 449.478ZM367.913 450.204L367.251 449.851L367.913 450.204ZM362.33 453.344L362.286 452.595L362.33 453.344ZM361.321 453.403L361.364 454.151L361.321 453.403ZM360.311 453.462L360.355 454.21L360.311 453.462ZM352.194 453.897L352.231 454.646L352.194 453.897ZM350.154 453.997L350.191 454.746L350.154 453.997ZM341.994 454.549L342.059 455.296L341.994 454.549ZM339.954 454.725L339.89 453.978L339.954 454.725ZM331.794 454.684L331.866 453.937L331.794 454.684ZM330.774 454.585L330.702 455.332L330.774 454.585ZM329.754 454.487L329.826 453.74L329.754 454.487ZM321.594 453.708L321.524 454.455L321.594 453.708ZM320.574 453.612L320.645 452.865L320.574 453.612ZM319.554 453.516L319.484 454.263L319.554 453.516ZM311.394 453.046L311.41 452.296L311.394 453.046ZM310.374 453.025L310.359 453.774L310.374 453.025ZM309.354 453.003L309.37 452.253L309.354 453.003ZM301.194 453.635L301.064 452.897L301.194 453.635ZM300.174 453.815L300.304 454.553L300.174 453.815ZM299.154 453.994L299.024 453.255L299.154 453.994ZM290.994 454.597L291.015 453.848L290.994 454.597ZM289.974 454.569L289.953 455.318L289.974 454.569ZM288.954 454.54L288.975 453.791L288.954 454.54ZM280.794 454.293L280.77 455.042L280.794 454.293ZM278.754 454.226L278.779 453.476L278.754 454.226ZM270.594 453.612L270.682 452.867L270.594 453.612ZM268.554 453.372L268.467 454.117L268.554 453.372ZM260.394 453.723L260.245 452.988L260.394 453.723ZM259.374 453.931L259.524 454.666L259.374 453.931ZM258.354 454.139L258.205 453.404L258.354 454.139ZM250.194 455.018L250.186 454.268L250.194 455.018ZM249.174 455.03L249.183 455.78L249.174 455.03ZM248.154 455.042L248.146 454.292L248.154 455.042ZM239.994 454.395L240.12 453.655L239.994 454.395ZM237.954 454.048L237.829 454.787L237.954 454.048ZM229.794 453.818L229.879 454.564L229.794 453.818ZM228.774 453.935L228.859 454.68L228.774 453.935ZM227.754 454.051L227.669 453.306L227.754 454.051ZM219.594 454.652L219.569 453.902L219.594 454.652ZM217.554 454.72L217.579 455.47L217.554 454.72ZM209.394 454.098L209.257 454.836L209.394 454.098ZM208.374 453.909L208.511 453.171L208.374 453.909ZM207.354 453.719L207.217 454.457L207.354 453.719ZM199.194 453.528L199.298 454.271L199.194 453.528ZM197.154 453.811L197.258 454.554L197.154 453.811ZM188.994 454.532L189.023 455.281L188.994 454.532ZM187.974 454.57L187.946 453.821L187.974 454.57ZM186.954 454.609L186.983 455.358L186.954 454.609ZM178.794 454.378L178.865 453.631L178.794 454.378ZM177.774 454.282L177.704 455.029L177.774 454.282ZM176.754 454.186L176.684 454.933L176.754 454.186ZM168.594 453.54L168.546 454.288L168.594 453.54ZM167.574 453.474L167.622 452.726L167.574 453.474ZM166.554 453.409L166.506 454.157L166.554 453.409ZM158.394 453.059L158.41 452.31L158.394 453.059ZM156.354 453.015L156.338 453.765L156.354 453.015ZM148.194 453.081L148.223 453.831L148.194 453.081ZM146.154 453.158L146.126 452.409L146.154 453.158ZM137.994 453.203L138.014 452.453L137.994 453.203ZM135.954 453.148L135.934 453.898L135.954 453.148ZM127.794 453.502L127.879 454.248L127.794 453.502ZM126.774 453.618L126.859 454.364L126.774 453.618ZM125.754 453.734L125.67 452.989L125.754 453.734ZM117.594 453.727L117.68 452.981L117.594 453.727ZM116.574 453.609L116.66 452.864L116.574 453.609ZM115.554 453.491L115.468 454.236L115.554 453.491ZM107.394 452.996L107.39 453.746L107.394 452.996ZM106.374 452.99L106.379 452.24L106.374 452.99ZM105.354 452.984L105.35 453.734L105.354 452.984ZM97.1943 452.898L97.1827 453.648L97.1943 452.898ZM96.1743 452.882L96.1859 452.132L96.1743 452.882ZM95.1543 452.866L95.1427 453.616L95.1543 452.866ZM86.9943 453.09L86.9418 452.342L86.9943 453.09ZM85.9743 453.162L86.0269 453.91L85.9743 453.162ZM84.9543 453.233L84.9017 452.485L84.9543 453.233ZM76.7943 453.719L76.8309 454.468L76.7943 453.719ZM75.7743 453.769L75.7378 453.02L75.7743 453.769ZM74.7543 453.819L74.7909 454.568L74.7543 453.819ZM66.5943 453.583L66.6737 452.838L66.5943 453.583ZM64.5543 453.366L64.475 454.112L64.5543 453.366ZM56.3943 453.609L56.517 454.348L56.3943 453.609ZM54.3543 453.947L54.2317 453.207L54.3543 453.947ZM46.1943 454.517L46.1749 455.267L46.1943 454.517ZM44.1543 454.465L44.1737 453.715L44.1543 454.465ZM35.9943 454.411L35.9847 453.661L35.9943 454.411ZM33.9543 454.437L33.9639 455.187L33.9543 454.437ZM25.7943 454.639L25.8217 455.389L25.7943 454.639ZM23.7543 454.714L23.7269 453.964L23.7543 454.714ZM15.5943 454.617L15.5492 455.366L15.5943 454.617ZM13.5543 454.494L13.5994 453.746L13.5543 454.494ZM6.20105 452.269L5.81291 452.911L6.20105 452.269ZM5.38273 451.774L5.77086 451.132L5.38273 451.774ZM4.5644 451.279L4.17627 451.921L4.5644 451.279ZM1.04655 445.205L0.297884 445.25L1.04655 445.205ZM0.985406 444.182L0.236741 444.227L0.985406 444.182ZM0.924263 443.158L1.67293 443.114L0.924263 443.158ZM1.51618 434.984L0.781463 434.834L1.51618 434.984ZM1.93443 432.944L2.66914 433.095L1.93443 432.944ZM2.12815 424.784L1.38729 424.901L2.12815 424.784ZM1.96746 423.764L2.70833 423.648L1.96746 423.764ZM1.80677 422.744L1.06591 422.861L1.80677 422.744ZM0.949533 414.584L0.200567 414.624L0.949533 414.584ZM0.895914 413.564L1.64488 413.525L0.895914 413.564ZM0.842295 412.544L0.0933291 412.584L0.842295 412.544ZM0.915085 404.384L1.66323 404.437L0.915085 404.384ZM0.986902 403.364L0.238754 403.312L0.986902 403.364ZM1.05872 402.344L1.80687 402.397L1.05872 402.344ZM1.80644 394.184L2.55171 394.269L1.80644 394.184ZM1.92155 393.164L1.17628 393.08L1.92155 393.164ZM2.03666 392.144L2.78193 392.229L2.03666 392.144ZM1.92264 383.984L2.66532 383.88L1.92264 383.984ZM1.63541 381.944L0.892733 382.049L1.63541 381.944ZM1.6107 373.784L0.867417 373.684L1.6107 373.784ZM1.74814 372.764L2.49142 372.865L1.74814 372.764ZM1.88558 371.744L1.1423 371.644L1.88558 371.744ZM2.58172 363.584L1.8322 363.558L2.58172 363.584ZM1.9114 353.384L2.64417 353.225L1.9114 353.384ZM1.68893 352.364L0.956152 352.524L1.68893 352.364ZM1.46645 351.344L2.19923 351.185L1.46645 351.344ZM1.51297 343.184L0.781978 343.017L1.51297 343.184ZM1.74707 342.164L2.47807 342.332L1.74707 342.164ZM1.98117 341.144L1.25018 340.977L1.98117 341.144ZM2.28985 332.984L3.03113 332.87L2.28985 332.984ZM2.13292 331.964L1.39164 332.078L2.13292 331.964ZM1.97599 330.944L2.71727 330.83L1.97599 330.944ZM1.25915 320.744L0.509233 320.755L1.25915 320.744ZM1.87365 312.584L2.61363 312.707L1.87365 312.584ZM2.21061 310.544L1.47063 310.422L2.21061 310.544ZM2.68924 302.384L3.43838 302.349L2.68924 302.384ZM2.5916 300.344L1.84246 300.38L2.5916 300.344ZM2.60011 292.184L3.34918 292.222L2.60011 292.184ZM2.65105 291.164L1.90199 291.127L2.65105 291.164ZM2.702 290.144L3.45107 290.182L2.702 290.144ZM2.39133 281.984L1.64722 282.078L2.39133 281.984ZM2.26272 280.964L3.00683 280.871L2.26272 280.964ZM2.13411 279.944L1.39 280.038L2.13411 279.944ZM1.56933 271.784L0.819384 271.794L1.56933 271.784ZM1.54416 269.744L0.794221 269.754L1.54416 269.744ZM1.56815 260.564L0.818229 260.553L1.56815 260.564ZM1.93013 241.184L1.18072 241.155L1.93013 241.184ZM2.08996 230.984L1.34012 231L2.08996 230.984ZM2.04811 228.944L1.29826 228.96L2.04811 228.944ZM2.23555 220.784L2.9839 220.834L2.23555 220.784ZM2.30334 219.764L1.555 219.715L2.30334 219.764ZM2.37114 218.744L3.11948 218.794L2.37114 218.744ZM2.34656 210.584L1.59852 210.639L2.34656 210.584ZM2.27262 209.564L3.02066 209.51L2.27262 209.564ZM2.19868 208.544L1.45065 208.599L2.19868 208.544ZM1.86613 200.384L1.11616 200.391L1.86613 200.384ZM2.24529 190.184L2.99107 190.264L2.24529 190.184ZM2.46247 188.144L1.71669 188.065L2.46247 188.144ZM2.38462 179.984L3.12878 179.891L2.38462 179.984ZM2.25657 178.964L1.51241 179.058L2.25657 178.964ZM2.12851 177.944L2.87267 177.851L2.12851 177.944ZM2.14222 169.784L2.88606 169.88L2.14222 169.784ZM2.2737 168.764L1.52985 168.669L2.2737 168.764ZM2.40518 167.744L3.14903 167.84L2.40518 167.744ZM2.33216 159.584L3.0742 159.475L2.33216 159.584ZM2.18242 158.564L1.44037 158.673L2.18242 158.564ZM2.03268 157.544L2.77473 157.435L2.03268 157.544ZM1.67726 149.384L0.928593 149.34L1.67726 149.384ZM1.73814 148.364L2.48681 148.409L1.73814 148.364ZM1.79903 147.344L1.05036 147.3L1.79903 147.344ZM2.35909 139.184L3.10684 139.242L2.35909 139.184ZM2.43822 138.164L1.69046 138.106L2.43822 138.164ZM2.51735 137.144L1.7696 137.086L2.51735 137.144ZM2.40588 127.964L1.65851 128.027L2.40588 127.964ZM1.54033 98.3844L0.791156 98.4196L1.54033 98.3844ZM1.17452 87.1644L0.424607 87.1759L1.17452 87.1644ZM1.74398 77.9844L1.00325 77.8668L1.74398 77.9844ZM1.98276 65.7444L1.23807 65.8336L1.98276 65.7444ZM1.16758 57.5844L0.419977 57.6443L1.16758 57.5844ZM1.00417 55.5444L0.256562 55.6043L1.00417 55.5444ZM1.26041 37.1844L0.513147 37.1204L1.26041 37.1844ZM3.84224 7.24949L3.12372 7.03449L3.84224 7.24949ZM6.20949 1.99182L6.08944 1.25149L6.20949 1.99182ZM11.8658 1.81804L11.8781 2.56794L12.8981 2.55123L12.8858 1.80133L12.8735 1.05143L11.8535 1.06814L11.8658 1.81804ZM12.8858 1.80133L12.8981 2.55123C15.5829 2.50723 18.2679 2.65176 20.9535 2.98493L21.0458 2.24063L21.1381 1.49634C18.3837 1.15463 15.6287 1.00628 12.8735 1.05143L12.8858 1.80133ZM21.0458 2.24063L20.9535 2.98493L21.9735 3.11147L22.0658 2.36717L22.1581 1.62288L21.1381 1.49634L21.0458 2.24063ZM22.0658 2.36717L21.9735 3.11147L22.9935 3.23801L23.0858 2.49371L23.1781 1.74942L22.1581 1.62288L22.0658 2.36717ZM23.0858 2.49371L22.9935 3.23801C25.8006 3.58626 28.6074 3.44484 31.4101 2.81548L31.2458 2.0837L31.0815 1.35192C28.4442 1.94413 25.811 2.07605 23.1781 1.74942L23.0858 2.49371ZM31.2458 2.0837L31.4101 2.81548L32.4301 2.58643L32.2658 1.85466L32.1015 1.12288L31.0815 1.35192L31.2458 2.0837ZM32.2658 1.85466L32.4301 2.58643L33.4501 2.35739L33.2858 1.62561L33.1215 0.893835L32.1015 1.12288L32.2658 1.85466ZM33.2858 1.62561L33.4501 2.35739C36.0678 1.76957 38.6813 1.73972 41.2976 2.26711L41.4458 1.53189L41.594 0.796684C38.7702 0.227462 35.9438 0.260084 33.1215 0.893835L33.2858 1.62561ZM41.4458 1.53189L41.2976 2.26711L42.3176 2.47272L42.4658 1.73751L42.614 1.0023L41.594 0.796684L41.4458 1.53189ZM42.4658 1.73751L42.3176 2.47272L43.3376 2.67833L43.4858 1.94312L43.634 1.20791L42.614 1.0023L42.4658 1.73751ZM43.4858 1.94312L43.3376 2.67833C46.1065 3.23651 48.8774 3.50936 51.6494 3.49619L51.6458 2.7462L51.6422 1.99621C48.9742 2.00888 46.305 1.74635 43.634 1.20791L43.4858 1.94312ZM51.6458 2.7462L51.6494 3.49619L52.6694 3.49135L52.6658 2.74136L52.6622 1.99136L51.6422 1.99621L51.6458 2.7462ZM52.6658 2.74136L52.6694 3.49135L53.6894 3.4865L53.6858 2.73651L53.6822 1.98652L52.6622 1.99136L52.6658 2.74136ZM53.6858 2.73651L53.6894 3.4865C56.4217 3.47352 59.1539 3.39335 61.8862 3.24598L61.8458 2.49707L61.8054 1.74816C59.0977 1.8942 56.3899 1.97366 53.6822 1.98652L53.6858 2.73651ZM61.8458 2.49707L61.8862 3.24598L62.9062 3.19097L62.8658 2.44206L62.8254 1.69315L61.8054 1.74816L61.8458 2.49707ZM62.8658 2.44206L62.9062 3.19097L63.9262 3.13596L63.8858 2.38705L63.8454 1.63813L62.8254 1.69315L62.8658 2.44206ZM63.8858 2.38705L63.9262 3.13596C66.652 2.98894 69.3777 2.81036 72.1035 2.6002L72.0458 1.85241L71.9881 1.10463C69.2739 1.31391 66.5596 1.49174 63.8454 1.63813L63.8858 2.38705ZM72.0458 1.85241L72.1035 2.6002L73.1235 2.52155L73.0658 1.77377L73.0081 1.02599L71.9881 1.10463L72.0458 1.85241ZM73.0658 1.77377L73.1235 2.52155L74.1434 2.44291L74.0858 1.69513L74.0281 0.947346L73.0081 1.02599L73.0658 1.77377ZM74.0858 1.69513L74.1434 2.44291C76.8198 2.23656 79.4959 2.26482 82.1725 2.52774L82.2458 1.78134L82.3191 1.03493C79.5557 0.763471 76.7918 0.73426 74.0281 0.947346L74.0858 1.69513ZM82.2458 1.78134L82.1725 2.52774L83.1925 2.62794L83.2658 1.88153L83.3391 1.13513L82.3191 1.03493L82.2458 1.78134ZM83.2658 1.88153L83.1925 2.62794L84.2125 2.72814L84.2858 1.98173L84.3591 1.23532L83.3391 1.13513L83.2658 1.88153ZM84.2858 1.98173L84.2125 2.72814C86.9509 2.99714 89.6895 3.16388 92.4281 3.22834L92.4458 2.47855L92.4634 1.72876C89.7621 1.66518 87.0607 1.5007 84.3591 1.23532L84.2858 1.98173ZM92.4458 2.47855L92.4281 3.22834L93.4481 3.25235L93.4658 2.50256L93.4834 1.75277L92.4634 1.72876L92.4458 2.47855ZM93.4658 2.50256L93.4481 3.25235L94.4681 3.27636L94.4858 2.52657L94.5034 1.77678L93.4834 1.75277L93.4658 2.50256ZM94.4858 2.52657L94.4681 3.27636C97.2381 3.34156 100.007 3.13159 102.775 2.64694L102.646 1.90818L102.516 1.16942C99.8442 1.63734 97.1735 1.83963 94.5034 1.77678L94.4858 2.52657ZM102.646 1.90818L102.775 2.64694L103.795 2.46833L103.666 1.72957L103.536 0.990814L102.516 1.16942L102.646 1.90818ZM103.666 1.72957L103.795 2.46833L104.815 2.28973L104.686 1.55097L104.556 0.812208L103.536 0.990814L103.666 1.72957ZM104.686 1.55097L104.815 2.28973C107.458 1.82704 110.098 1.78586 112.739 2.16577L112.846 1.42341L112.953 0.681055C110.154 0.278472 107.354 0.322328 104.556 0.812208L104.686 1.55097ZM112.846 1.42341L112.739 2.16577L113.759 2.31249L113.866 1.57013L113.973 0.827773L112.953 0.681055L112.846 1.42341ZM113.866 1.57013L113.759 2.31249L114.779 2.45921L114.886 1.71685L114.993 0.974491L113.973 0.827773L113.866 1.57013ZM114.886 1.71685L114.779 2.45921C117.549 2.8576 120.319 2.97448 123.09 2.80955L123.046 2.06088L123.001 1.3122C120.332 1.47107 117.663 1.35859 114.993 0.974491L114.886 1.71685ZM123.046 2.06088L123.09 2.80955L124.11 2.74884L124.066 2.00017L124.021 1.25149L123.001 1.3122L123.046 2.06088ZM124.066 2.00017L124.11 2.74884L125.13 2.68813L125.086 1.93945L125.041 1.19078L124.021 1.25149L124.066 2.00017ZM125.086 1.93945L125.13 2.68813C127.819 2.5281 130.508 2.53698 133.196 2.71477L133.246 1.9664L133.295 1.21804C130.544 1.0361 127.793 1.02702 125.041 1.19078L125.086 1.93945ZM133.246 1.9664L133.196 2.71477L134.216 2.78222L134.266 2.03385L134.315 1.28549L133.295 1.21804L133.246 1.9664ZM134.266 2.03385L134.216 2.78222L135.236 2.84967L135.286 2.1013L135.335 1.35293L134.315 1.28549L134.266 2.03385ZM135.286 2.1013L135.236 2.84967C137.983 3.03132 140.73 3.06377 143.478 2.94701L143.446 2.19768L143.414 1.44836C140.721 1.56281 138.028 1.53101 135.335 1.35293L135.286 2.1013ZM143.446 2.19768L143.478 2.94701L144.498 2.90365L144.466 2.15433L144.434 1.40501L143.414 1.44836L143.446 2.19768ZM144.466 2.15433L144.498 2.90365L145.518 2.8603L145.486 2.11098L145.454 1.36165L144.434 1.40501L144.466 2.15433ZM145.486 2.11098L145.518 2.8603C148.256 2.74391 150.994 2.5261 153.733 2.2069L153.646 1.46194L153.559 0.716989C150.857 1.03195 148.155 1.24683 145.454 1.36165L145.486 2.11098ZM153.646 1.46194L153.733 2.2069L154.753 2.08799L154.666 1.34304L154.579 0.598083L153.559 0.716989L153.646 1.46194ZM154.666 1.34304L154.753 2.08799L155.773 1.96909L155.686 1.22413L155.599 0.479178L154.579 0.598083L154.666 1.34304ZM155.686 1.22413L155.773 1.96909C158.464 1.65536 161.155 1.49901 163.846 1.49999L163.846 0.749985L163.846 -1.45435e-05C161.097 -0.00100684 158.348 0.15875 155.599 0.479178L155.686 1.22413ZM163.846 0.749985L163.846 1.49999L164.866 1.50035L164.866 0.750353L164.866 0.000353575L163.846 -1.45435e-05L163.846 0.749985ZM164.866 0.750353L164.866 1.50035L165.886 1.50072L165.886 0.750722L165.886 0.000721693L164.866 0.000353575L164.866 0.750353ZM165.886 0.750722L165.886 1.50072C168.598 1.5017 171.311 1.54133 174.024 1.6196L174.046 0.869912L174.067 0.120224C171.34 0.0415401 168.613 0.001706 165.886 0.000721693L165.886 0.750722ZM174.046 0.869912L174.024 1.6196L175.044 1.64903L175.066 0.899341L175.087 0.149653L174.067 0.120224L174.046 0.869912ZM175.066 0.899341L175.044 1.64903L176.064 1.67846L176.086 0.928771L176.107 0.179083L175.087 0.149653L175.066 0.899341ZM176.086 0.928771L176.064 1.67846C178.745 1.7558 181.426 2.04395 184.109 2.54325L184.246 1.80592L184.383 1.06858C181.626 0.555311 178.867 0.258699 176.107 0.179083L176.086 0.928771ZM184.246 1.80592L184.109 2.54325L185.129 2.73311L185.266 1.99577L185.403 1.25844L184.383 1.06858L184.246 1.80592ZM185.266 1.99577L185.129 2.73311L186.149 2.92297L186.286 2.18563L186.423 1.44829L185.403 1.25844L185.266 1.99577ZM186.286 2.18563L186.149 2.92297C188.93 3.44076 191.714 3.60106 194.499 3.40304L194.446 2.65493L194.393 1.90682C191.737 2.09564 189.081 1.94307 186.423 1.44829L186.286 2.18563ZM194.446 2.65493L194.499 3.40304L195.519 3.33051L195.466 2.5824L195.413 1.83429L194.393 1.90682L194.446 2.65493ZM195.466 2.5824L195.519 3.33051L196.539 3.25798L196.486 2.50987L196.433 1.76176L195.413 1.83429L195.466 2.5824ZM196.486 2.50987L196.539 3.25798C199.228 3.06675 201.917 3.0416 204.607 3.18251L204.646 2.43354L204.685 1.68456C201.934 1.54042 199.183 1.56616 196.433 1.76176L196.486 2.50987ZM204.646 2.43354L204.607 3.18251L205.627 3.23596L205.666 2.48698L205.705 1.73801L204.685 1.68456L204.646 2.43354ZM205.666 2.48698L205.627 3.23596L206.647 3.2894L206.686 2.54043L206.725 1.79146L205.705 1.73801L205.666 2.48698ZM206.686 2.54043L206.647 3.2894C209.403 3.43386 212.16 3.37582 214.916 3.11536L214.846 2.36869L214.775 1.62201C212.092 1.8756 209.408 1.93206 206.725 1.79146L206.686 2.54043ZM214.846 2.36869L214.916 3.11536L215.936 3.01898L215.866 2.2723L215.795 1.52563L214.775 1.62201L214.846 2.36869ZM215.866 2.2723L215.936 3.01898L216.956 2.92259L216.886 2.17592L216.815 1.42924L215.795 1.52563L215.866 2.2723ZM216.886 2.17592L216.956 2.92259C219.646 2.66839 222.336 2.5769 225.026 2.64806L225.046 1.89832L225.066 1.14858C222.315 1.07582 219.565 1.16939 216.815 1.42924L216.886 2.17592ZM225.046 1.89832L225.026 2.64806L226.046 2.67504L226.066 1.92531L226.086 1.17557L225.066 1.14858L225.046 1.89832ZM226.066 1.92531L226.046 2.67504L227.066 2.70203L227.086 1.95229L227.106 1.20255L226.086 1.17557L226.066 1.92531ZM227.086 1.95229L227.066 2.70203C229.822 2.77494 232.578 2.64998 235.333 2.32726L235.246 1.58236L235.159 0.837448C232.474 1.1519 229.79 1.27356 227.106 1.20255L227.086 1.95229ZM235.246 1.58236L235.333 2.32726L236.353 2.20779L236.266 1.46289L236.179 0.717979L235.159 0.837448L235.246 1.58236ZM236.266 1.46289L236.353 2.20779L237.373 2.08833L237.286 1.34342L237.199 0.59851L236.179 0.717979L236.266 1.46289ZM237.286 1.34342L237.373 2.08833C240.047 1.77511 242.721 1.71054 245.394 1.8945L245.446 1.14627L245.497 0.398037C242.731 0.20769 239.964 0.274557 237.199 0.59851L237.286 1.34342ZM245.446 1.14627L245.394 1.8945L246.414 1.96468L246.466 1.21645L246.517 0.468218L245.497 0.398037L245.446 1.14627ZM246.466 1.21645L246.414 1.96468L247.434 2.03486L247.486 1.28663L247.537 0.5384L246.517 0.468218L246.466 1.21645ZM247.486 1.28663L247.434 2.03486C250.156 2.22213 252.878 2.39973 255.6 2.56765L255.646 1.81908L255.692 1.0705C252.974 0.902796 250.256 0.725429 247.537 0.5384L247.486 1.28663ZM255.646 1.81908L255.6 2.56765L256.62 2.63058L256.666 1.88201L256.712 1.13343L255.692 1.0705L255.646 1.81908ZM256.666 1.88201L256.62 2.63058L257.64 2.69351L257.686 1.94494L257.732 1.19636L256.712 1.13343L256.666 1.88201ZM257.686 1.94494L257.64 2.69351C260.39 2.86318 263.14 2.86719 265.89 2.70554L265.846 1.95684L265.802 1.20813C263.112 1.36624 260.422 1.36232 257.732 1.19636L257.686 1.94494ZM265.846 1.95684L265.89 2.70554L266.91 2.64559L266.866 1.89688L266.822 1.14817L265.802 1.20813L265.846 1.95684ZM266.866 1.89688L266.91 2.64559L267.93 2.58563L267.886 1.83692L267.842 1.08822L266.822 1.14817L266.866 1.89688ZM267.886 1.83692L267.93 2.58563C270.607 2.42826 273.285 2.49897 275.963 2.79789L276.046 2.05252L276.129 1.30715C273.367 0.998845 270.604 0.925831 267.842 1.08822L267.886 1.83692ZM276.046 2.05252L275.963 2.79789L276.983 2.91175L277.066 2.16637L277.149 1.421L276.129 1.30715L276.046 2.05252ZM277.066 2.16637L276.983 2.91175L278.003 3.0256L278.086 2.28023L278.169 1.53486L277.149 1.421L277.066 2.16637ZM278.086 2.28023L278.003 3.0256C280.745 3.33173 283.488 3.51188 286.231 3.56601L286.246 2.81616L286.261 2.06631C283.564 2.01308 280.866 1.83595 278.169 1.53486L278.086 2.28023ZM286.246 2.81616L286.231 3.56601L287.251 3.58614L287.266 2.83629L287.281 2.08643L286.261 2.06631L286.246 2.81616ZM287.266 2.83629L287.251 3.58614L288.271 3.60627L288.286 2.85642L288.301 2.10656L287.281 2.08643L287.266 2.83629ZM288.286 2.85642L288.271 3.60627C291.016 3.66043 293.76 3.57903 296.505 3.36209L296.446 2.61442L296.387 1.86675C293.691 2.07982 290.996 2.15975 288.301 2.10656L288.286 2.85642ZM296.446 2.61442L296.505 3.36209L297.525 3.28146L297.466 2.53379L297.407 1.78613L296.387 1.86675L296.446 2.61442ZM297.466 2.53379L297.525 3.28146L298.545 3.20084L298.486 2.45317L298.427 1.7055L297.407 1.78613L297.466 2.53379ZM298.486 2.45317L298.545 3.20084C301.241 2.9877 303.937 2.90313 306.634 2.94711L306.646 2.19721L306.658 1.44731C303.914 1.40255 301.17 1.48862 298.427 1.7055L298.486 2.45317ZM306.646 2.19721L306.634 2.94711L307.654 2.96375L307.666 2.21385L307.678 1.46395L306.658 1.44731L306.646 2.19721ZM307.666 2.21385L307.654 2.96375L308.674 2.98039L308.686 2.23049L308.698 1.48059L307.678 1.46395L307.666 2.21385ZM308.686 2.23049L308.674 2.98039C311.391 3.02473 314.109 3.08035 316.827 3.14726L316.846 2.39748L316.864 1.64771C314.142 1.5807 311.42 1.52499 308.698 1.48059L308.686 2.23049ZM316.846 2.39748L316.827 3.14726L317.847 3.17236L317.866 2.42259L317.884 1.67282L316.864 1.64771L316.846 2.39748ZM317.866 2.42259L317.847 3.17236L318.867 3.19747L318.886 2.4477L318.904 1.69793L317.884 1.67282L317.866 2.42259ZM318.886 2.4477L318.867 3.19747C321.621 3.26526 324.374 3.14833 327.127 2.84678L327.046 2.10124L326.964 1.3557C324.277 1.65001 321.591 1.76406 318.904 1.69793L318.886 2.4477ZM327.046 2.10124L327.127 2.84678L328.147 2.73505L328.066 1.98951L327.984 1.24397L326.964 1.3557L327.046 2.10124ZM328.066 1.98951L328.147 2.73505L329.167 2.62333L329.086 1.87779L329.004 1.13225L327.984 1.24397L328.066 1.98951ZM329.086 1.87779L329.167 2.62333C331.863 2.32807 334.558 2.16651 337.254 2.13861L337.246 1.38865L337.238 0.638693C334.493 0.667106 331.749 0.831641 329.004 1.13225L329.086 1.87779ZM337.246 1.38865L337.254 2.13861L338.274 2.12805L338.266 1.37809L338.258 0.628134L337.238 0.638693L337.246 1.38865ZM338.266 1.37809L338.274 2.12805L339.294 2.1175L339.286 1.36754L339.278 0.617576L338.258 0.628134L338.266 1.37809ZM339.286 1.36754L339.294 2.1175C342.002 2.08946 344.71 2.12497 347.418 2.22402L347.446 1.47452L347.473 0.725022C344.742 0.625114 342.01 0.589298 339.278 0.617576L339.286 1.36754ZM347.446 1.47452L347.418 2.22402L348.438 2.26132L348.466 1.51183L348.493 0.762327L347.473 0.725022L347.446 1.47452ZM348.466 1.51183L348.438 2.26132L349.458 2.29863L349.486 1.54913L349.513 0.799632L348.493 0.762327L348.466 1.51183ZM349.486 1.54913L349.458 2.29863C352.159 2.39741 354.86 2.59928 357.562 2.90425L357.646 2.15899L357.73 1.41372C354.991 1.10452 352.252 0.899809 349.513 0.799632L349.486 1.54913ZM357.646 2.15899L357.562 2.90425L358.582 3.01941L358.666 2.27415L358.75 1.52888L357.73 1.41372L357.646 2.15899ZM358.666 2.27415L358.582 3.01941L359.602 3.13457L359.686 2.38931L359.77 1.64404L358.75 1.52888L358.666 2.27415ZM359.686 2.38931L359.602 3.13457C362.237 3.43216 364.317 4.14282 365.882 5.22572L366.309 4.6089L366.735 3.99209C364.91 2.72972 362.574 1.96064 359.77 1.64404L359.686 2.38931ZM366.309 4.6089L365.882 5.22572L366.518 5.66546L366.944 5.04864L367.371 4.43183L366.735 3.99209L366.309 4.6089ZM366.944 5.04864L366.518 5.66546L367.154 6.1052L367.58 5.48838L368.007 4.87157L367.371 4.43183L366.944 5.04864ZM367.58 5.48838L367.154 6.1052C368.586 7.09604 369.383 8.7705 369.399 11.3321L370.149 11.3273L370.899 11.3226C370.881 8.44417 369.965 6.226 368.007 4.87157L367.58 5.48838ZM370.149 11.3273L369.399 11.3321L369.405 12.3521L370.155 12.3473L370.905 12.3426L370.899 11.3226L370.149 11.3273ZM370.155 12.3473L369.405 12.3521L369.412 13.3721L370.162 13.3673L370.912 13.3626L370.905 12.3426L370.155 12.3473ZM370.162 13.3673L369.412 13.3721C369.429 16.1141 369.567 18.8559 369.825 21.5976L370.571 21.5273L371.318 21.4571C371.064 18.7588 370.929 16.0606 370.912 13.3626L370.162 13.3673ZM370.571 21.5273L369.825 21.5976L369.921 22.6176L370.667 22.5473L371.414 22.4771L371.318 21.4571L370.571 21.5273ZM370.667 22.5473L369.921 22.6176L370.017 23.6376L370.763 23.5673L371.51 23.4971L371.414 22.4771L370.667 22.5473ZM370.763 23.5673L370.017 23.6376C370.271 26.3437 370.45 29.0497 370.552 31.7557L371.301 31.7273L372.051 31.699C371.948 28.965 371.767 26.231 371.51 23.4971L370.763 23.5673ZM371.301 31.7273L370.552 31.7557L370.59 32.7757L371.34 32.7473L372.089 32.719L372.051 31.699L371.301 31.7273ZM371.34 32.7473L370.59 32.7757L370.629 33.7957L371.378 33.7673L372.128 33.739L372.089 32.719L371.34 32.7473ZM371.378 33.7673L370.629 33.7957C370.731 36.5053 370.777 39.2148 370.767 41.9244L371.517 41.9273L372.267 41.9303C372.277 39.1998 372.231 36.4694 372.128 33.739L371.378 33.7673ZM371.517 41.9273L370.767 41.9244L370.763 42.9444L371.513 42.9473L372.263 42.9503L372.267 41.9303L371.517 41.9273ZM371.513 42.9473L370.763 42.9444L370.759 43.9644L371.509 43.9673L372.259 43.9703L372.263 42.9503L371.513 42.9473ZM371.509 43.9673L370.759 43.9644C370.748 46.6798 370.713 49.3952 370.652 52.1106L371.402 52.1273L372.152 52.1441C372.212 49.4195 372.248 46.6949 372.259 43.9703L371.509 43.9673ZM371.402 52.1273L370.652 52.1106L370.629 53.1306L371.379 53.1473L372.129 53.1641L372.152 52.1441L371.402 52.1273ZM371.379 53.1473L370.629 53.1306L370.606 54.1506L371.356 54.1673L372.106 54.1841L372.129 53.1641L371.379 53.1473ZM371.356 54.1673L370.606 54.1506C370.546 56.8504 370.377 59.5503 370.098 62.2505L370.844 62.3273L371.59 62.4042C371.873 59.6643 372.045 56.9243 372.106 54.1841L371.356 54.1673ZM370.844 62.3273L370.098 62.2505L369.993 63.2705L370.739 63.3473L371.485 63.4242L371.59 62.4042L370.844 62.3273ZM370.739 63.3473L369.993 63.2705L369.888 64.2905L370.634 64.3673L371.38 64.4442L371.485 63.4242L370.739 63.3473ZM370.634 64.3673L369.888 64.2905C369.605 67.0386 369.478 69.787 369.509 72.5356L370.259 72.5273L371.009 72.5191C370.979 69.8276 371.103 67.1361 371.38 64.4442L370.634 64.3673ZM370.259 72.5273L369.509 72.5356L369.52 73.5556L370.27 73.5473L371.02 73.5391L371.009 72.5191L370.259 72.5273ZM370.27 73.5473L369.52 73.5556L369.531 74.5756L370.281 74.5673L371.031 74.5591L371.02 73.5391L370.27 73.5473ZM370.281 74.5673L369.531 74.5756C369.562 77.3266 369.762 80.0773 370.133 82.8275L370.876 82.7273L371.619 82.6272C371.257 79.9374 371.061 77.2481 371.031 74.5591L370.281 74.5673ZM370.876 82.7273L370.133 82.8275L370.27 83.8475L371.013 83.7473L371.757 83.6472L371.619 82.6272L370.876 82.7273ZM371.013 83.7473L370.27 83.8475L370.408 84.8675L371.151 84.7673L371.894 84.6672L371.757 83.6472L371.013 83.7473ZM371.151 84.7673L370.408 84.8675C370.769 87.5533 370.943 90.2386 370.93 92.9235L371.68 92.9273L372.43 92.9312C372.444 90.1761 372.265 87.4214 371.894 84.6672L371.151 84.7673ZM371.68 92.9273L370.93 92.9235L370.924 93.9435L371.674 93.9473L372.424 93.9512L372.43 92.9312L371.68 92.9273ZM371.674 93.9473L370.924 93.9435L370.919 94.9635L371.669 94.9673L372.419 94.9712L372.424 93.9512L371.674 93.9473ZM371.669 94.9673L370.919 94.9635C370.905 97.6414 370.668 100.32 370.205 103L370.944 103.127L371.683 103.255C372.16 100.495 372.405 97.7333 372.419 94.9712L371.669 94.9673ZM370.944 103.127L370.205 103L370.029 104.02L370.768 104.147L371.507 104.275L371.683 103.255L370.944 103.127ZM370.768 104.147L370.029 104.02L369.853 105.04L370.592 105.167L371.331 105.295L371.507 104.275L370.768 104.147ZM370.592 105.167L369.853 105.04C369.373 107.821 369.246 110.604 369.471 113.388L370.219 113.327L370.966 113.267C370.751 110.61 370.873 107.953 371.331 105.295L370.592 105.167ZM370.219 113.327L369.471 113.388L369.554 114.408L370.302 114.347L371.049 114.287L370.966 113.267L370.219 113.327ZM370.302 114.347L369.554 114.408L369.637 115.428L370.384 115.367L371.132 115.307L371.049 114.287L370.302 114.347ZM370.384 115.367L369.637 115.428C369.855 118.119 369.918 120.811 369.826 123.502L370.576 123.527L371.325 123.553C371.419 120.804 371.355 118.055 371.132 115.307L370.384 115.367ZM370.576 123.527L369.826 123.502L369.791 124.522L370.541 124.547L371.29 124.573L371.325 123.553L370.576 123.527ZM370.541 124.547L369.791 124.522L369.757 125.542L370.506 125.567L371.256 125.593L371.29 124.573L370.541 124.547ZM370.506 125.567L369.757 125.542C369.663 128.286 369.701 131.03 369.87 133.773L370.618 133.727L371.367 133.681C371.201 130.985 371.164 128.289 371.256 125.593L370.506 125.567ZM370.618 133.727L369.87 133.773L369.933 134.793L370.681 134.747L371.43 134.701L371.367 133.681L370.618 133.727ZM370.681 134.747L369.933 134.793L369.995 135.813L370.744 135.767L371.493 135.721L371.43 134.701L370.681 134.747ZM370.744 135.767L369.995 135.813C370.163 138.525 370.283 141.236 370.358 143.948L371.107 143.927L371.857 143.907C371.782 141.178 371.661 138.45 371.493 135.721L370.744 135.767ZM371.107 143.927L370.358 143.948L370.386 144.968L371.135 144.947L371.885 144.927L371.857 143.907L371.107 143.927ZM371.135 144.947L370.386 144.968L370.414 145.988L371.163 145.967L371.913 145.947L371.885 144.927L371.135 144.947ZM371.163 145.967L370.414 145.988C370.488 148.683 370.428 151.378 370.235 154.074L370.983 154.127L371.731 154.181C371.928 151.436 371.988 148.692 371.913 145.947L371.163 145.967ZM370.983 154.127L370.235 154.074L370.162 155.094L370.91 155.147L371.658 155.201L371.731 154.181L370.983 154.127ZM370.91 155.147L370.162 155.094L370.088 156.114L370.837 156.167L371.585 156.221L371.658 155.201L370.91 155.147ZM370.837 156.167L370.088 156.114C369.892 158.853 369.8 161.592 369.813 164.331L370.563 164.327L371.313 164.324C371.3 161.623 371.391 158.922 371.585 156.221L370.837 156.167ZM370.563 164.327L369.813 164.331L369.817 165.351L370.567 165.347L371.317 165.344L371.313 164.324L370.563 164.327ZM370.567 165.347L369.817 165.351L369.822 166.371L370.572 166.367L371.322 166.364L371.317 165.344L370.567 165.347ZM370.572 166.367L369.822 166.371C369.834 169.115 369.982 171.86 370.264 174.604L371.01 174.527L371.756 174.451C371.479 171.755 371.334 169.059 371.322 166.364L370.572 166.367ZM371.01 174.527L370.264 174.604L370.369 175.624L371.115 175.547L371.861 175.471L371.756 174.451L371.01 174.527ZM371.115 175.547L370.369 175.624L370.474 176.644L371.22 176.567L371.966 176.491L371.861 175.471L371.115 175.547ZM371.22 176.567L370.474 176.644C370.748 179.318 370.772 181.991 370.546 184.664L371.293 184.727L372.04 184.791C372.275 182.024 372.25 179.257 371.966 176.491L371.22 176.567ZM371.293 184.727L370.546 184.664L370.459 185.684L371.206 185.747L371.954 185.811L372.04 184.791L371.293 184.727ZM371.206 185.747L370.459 185.684L370.373 186.704L371.12 186.767L371.867 186.831L371.954 185.811L371.206 185.747ZM371.12 186.767L370.373 186.704C370.139 189.451 370.058 192.199 370.129 194.947L370.879 194.927L371.629 194.908C371.559 192.216 371.639 189.523 371.867 186.831L371.12 186.767ZM370.879 194.927L370.129 194.947L370.155 195.967L370.905 195.947L371.655 195.928L371.629 194.908L370.879 194.927ZM370.905 195.947L370.155 195.967L370.182 196.987L370.931 196.967L371.681 196.948L371.655 195.928L370.905 195.947ZM370.931 196.967L370.182 196.987C370.251 199.665 370.095 202.343 369.715 205.022L370.457 205.127L371.2 205.233C371.592 202.472 371.752 199.71 371.681 196.948L370.931 196.967ZM370.457 205.127L369.715 205.022L369.57 206.042L370.313 206.147L371.055 206.253L371.2 205.233L370.457 205.127ZM370.313 206.147L369.57 206.042L369.425 207.062L370.168 207.167L370.91 207.273L371.055 206.253L370.313 206.147ZM370.168 207.167L369.425 207.062C369.028 209.861 369.079 212.661 369.578 215.459L370.316 215.327L371.054 215.196C370.583 212.554 370.536 209.914 370.91 207.273L370.168 207.167ZM370.316 215.327L369.578 215.459L369.759 216.479L370.498 216.347L371.236 216.216L371.054 215.196L370.316 215.327ZM370.498 216.347L369.759 216.479L369.941 217.499L370.68 217.367L371.418 217.236L371.236 216.216L370.498 216.347ZM370.68 217.367L369.941 217.499C370.416 220.16 370.566 222.82 370.392 225.478L371.14 225.527L371.889 225.576C372.07 222.795 371.913 220.014 371.418 217.236L370.68 217.367ZM371.14 225.527L370.392 225.478L370.325 226.498L371.074 226.547L371.822 226.596L371.889 225.576L371.14 225.527ZM371.074 226.547L370.325 226.498L370.259 227.518L371.007 227.567L371.755 227.616L371.822 226.596L371.074 226.547ZM371.007 227.567L370.259 227.518C370.082 230.226 369.839 232.934 369.529 235.642L370.275 235.727L371.02 235.812C371.332 233.08 371.577 230.348 371.755 227.616L371.007 227.567ZM370.275 235.727L369.529 235.642L369.413 236.662L370.158 236.747L370.903 236.832L371.02 235.812L370.275 235.727ZM370.158 236.747L369.413 236.662L369.296 237.682L370.042 237.767L370.787 237.852L370.903 236.832L370.158 236.747ZM370.042 237.767L369.296 237.682C368.982 240.436 368.856 243.19 368.917 245.944L369.667 245.927L370.417 245.911C370.357 243.225 370.48 240.539 370.787 237.852L370.042 237.767ZM369.667 245.927L368.917 245.944L368.94 246.964L369.69 246.947L370.439 246.931L370.417 245.911L369.667 245.927ZM369.69 246.947L368.94 246.964L368.963 247.984L369.712 247.967L370.462 247.951L370.439 246.931L369.69 246.947ZM369.712 247.967L368.963 247.984C369.024 250.726 369.207 253.468 369.512 256.21L370.257 256.127L371.003 256.044C370.703 253.346 370.523 250.648 370.462 247.951L369.712 247.967ZM370.257 256.127L369.512 256.21L369.625 257.23L370.371 257.147L371.116 257.064L371.003 256.044L370.257 256.127ZM370.371 257.147L369.625 257.23L369.739 258.25L370.484 258.167L371.229 258.084L371.116 257.064L370.371 257.147ZM370.484 258.167L369.739 258.25C370.038 260.945 370.198 263.639 370.219 266.333L370.969 266.327L371.719 266.322C371.698 263.576 371.535 260.83 371.229 258.084L370.484 258.167ZM370.969 266.327L370.219 266.333L370.227 267.353L370.977 267.347L371.727 267.342L371.719 266.322L370.969 266.327ZM370.977 267.347L370.227 267.353L370.235 268.373L370.985 268.367L371.735 268.362L371.727 267.342L370.977 267.347ZM370.985 268.367L370.235 268.373C370.256 271.11 370.37 273.847 370.577 276.584L371.325 276.527L372.072 276.471C371.868 273.768 371.755 271.065 371.735 268.362L370.985 268.367ZM371.325 276.527L370.577 276.584L370.654 277.604L371.402 277.547L372.15 277.491L372.072 276.471L371.325 276.527ZM371.402 277.547L370.654 277.604L370.731 278.624L371.479 278.567L372.227 278.511L372.15 277.491L371.402 277.547ZM371.479 278.567L370.731 278.624C370.935 281.321 371.015 284.018 370.97 286.715L371.72 286.727L372.47 286.74C372.515 283.997 372.434 281.254 372.227 278.511L371.479 278.567ZM371.72 286.727L370.97 286.715L370.953 287.735L371.703 287.747L372.453 287.76L372.47 286.74L371.72 286.727ZM371.703 287.747L370.953 287.735L370.936 288.755L371.686 288.767L372.436 288.78L372.453 287.76L371.703 287.747ZM371.686 288.767L370.936 288.755C370.891 291.482 370.885 294.209 370.918 296.936L371.668 296.927L372.418 296.918C372.385 294.205 372.391 291.493 372.436 288.78L371.686 288.767ZM371.668 296.927L370.918 296.936L370.931 297.956L371.681 297.947L372.43 297.938L372.418 296.918L371.668 296.927ZM371.681 297.947L370.931 297.956L370.943 298.976L371.693 298.967L372.443 298.958L372.43 297.938L371.681 297.947ZM371.693 298.967L370.943 298.976C370.976 301.679 370.916 304.382 370.762 307.085L371.511 307.127L372.26 307.17C372.415 304.433 372.476 301.695 372.443 298.958L371.693 298.967ZM371.511 307.127L370.762 307.085L370.705 308.105L371.453 308.147L372.202 308.19L372.26 307.17L371.511 307.127ZM371.453 308.147L370.705 308.105L370.647 309.125L371.396 309.167L372.144 309.21L372.202 308.19L371.453 308.147ZM371.396 309.167L370.647 309.125C370.493 311.842 370.323 314.559 370.137 317.276L370.886 317.327L371.634 317.378C371.82 314.656 371.99 311.933 372.144 309.21L371.396 309.167ZM370.886 317.327L370.137 317.276L370.068 318.296L370.816 318.347L371.564 318.398L371.634 317.378L370.886 317.327ZM370.816 318.347L370.068 318.296L369.998 319.316L370.746 319.367L371.495 319.418L371.564 318.398L370.816 318.347ZM370.746 319.367L369.998 319.316C369.811 322.054 369.724 324.792 369.736 327.531L370.486 327.527L371.236 327.524C371.224 324.822 371.31 322.12 371.495 319.418L370.746 319.367ZM370.486 327.527L369.736 327.531L369.74 328.551L370.49 328.547L371.24 328.544L371.236 327.524L370.486 327.527ZM370.49 328.547L369.74 328.551L369.745 329.571L370.495 329.567L371.245 329.564L371.24 328.544L370.49 328.547ZM370.495 329.567L369.745 329.571C369.757 332.319 369.923 335.067 370.244 337.814L370.989 337.727L371.734 337.64C371.42 334.948 371.256 332.256 371.245 329.564L370.495 329.567ZM370.989 337.727L370.244 337.814L370.364 338.834L371.109 338.747L371.853 338.66L371.734 337.64L370.989 337.727ZM371.109 338.747L370.364 338.834L370.483 339.854L371.228 339.767L371.973 339.68L371.853 338.66L371.109 338.747ZM371.228 339.767L370.483 339.854C370.796 342.535 370.897 345.216 370.785 347.896L371.534 347.927L372.284 347.959C372.399 345.199 372.295 342.439 371.973 339.68L371.228 339.767ZM371.534 347.927L370.785 347.896L370.743 348.916L371.492 348.947L372.241 348.979L372.284 347.959L371.534 347.927ZM371.492 348.947L370.743 348.916L370.7 349.936L371.449 349.967L372.199 349.999L372.241 348.979L371.492 348.947ZM371.449 349.967L370.7 349.936C370.586 352.676 370.58 355.416 370.683 358.155L371.432 358.127L372.182 358.099C372.081 355.399 372.086 352.699 372.199 349.999L371.449 349.967ZM371.432 358.127L370.683 358.155L370.721 359.176L371.471 359.147L372.22 359.119L372.182 358.099L371.432 358.127ZM371.471 359.147L370.721 359.176L370.759 360.195L371.509 360.167L372.258 360.139L372.22 359.119L371.471 359.147ZM371.509 360.167L370.759 360.195C370.861 362.9 370.876 365.604 370.806 368.308L371.556 368.327L372.305 368.347C372.377 365.611 372.361 362.875 372.258 360.139L371.509 360.167ZM371.556 368.327L370.806 368.308L370.779 369.328L371.529 369.347L372.279 369.367L372.305 368.347L371.556 368.327ZM371.529 369.347L370.779 369.328L370.753 370.348L371.502 370.367L372.252 370.387L372.279 369.367L371.529 369.347ZM371.502 370.367L370.753 370.348C370.682 373.051 370.52 375.754 370.266 378.457L371.013 378.527L371.759 378.598C372.017 375.861 372.181 373.124 372.252 370.387L371.502 370.367ZM371.013 378.527L370.266 378.457L370.17 379.477L370.917 379.547L371.664 379.618L371.759 378.598L371.013 378.527ZM370.917 379.547L370.17 379.477L370.074 380.497L370.821 380.567L371.568 380.638L371.664 379.618L370.917 379.547ZM370.821 380.567L370.074 380.497C369.816 383.25 369.739 386.003 369.845 388.756L370.594 388.727L371.344 388.699C371.241 386.012 371.315 383.325 371.568 380.638L370.821 380.567ZM370.594 388.727L369.845 388.756L369.884 389.776L370.634 389.747L371.383 389.719L371.344 388.699L370.594 388.727ZM370.634 389.747L369.884 389.776L369.923 390.796L370.673 390.767L371.422 390.739L371.383 389.719L370.634 389.747ZM370.673 390.767L369.923 390.796C370.027 393.499 370.04 396.202 369.96 398.905L370.71 398.927L371.46 398.949C371.54 396.212 371.528 393.475 371.422 390.739L370.673 390.767ZM370.71 398.927L369.96 398.905L369.93 399.925L370.68 399.947L371.43 399.969L371.46 398.949L370.71 398.927ZM370.68 399.947L369.93 399.925L369.9 400.945L370.65 400.967L371.4 400.989L371.43 399.969L370.68 399.947ZM370.65 400.967L369.9 400.945C369.82 403.676 369.799 406.407 369.838 409.138L370.587 409.127L371.337 409.117C371.299 406.408 371.32 403.699 371.4 400.989L370.65 400.967ZM370.587 409.127L369.838 409.138L369.852 410.158L370.602 410.147L371.352 410.137L371.337 409.117L370.587 409.127ZM370.602 410.147L369.852 410.158L369.866 411.178L370.616 411.167L371.366 411.157L371.352 410.137L370.602 410.147ZM370.616 411.167L369.866 411.178C369.905 413.924 370.085 416.669 370.407 419.415L371.152 419.327L371.896 419.24C371.581 416.545 371.404 413.851 371.366 411.157L370.616 411.167ZM371.152 419.327L370.407 419.415L370.526 420.435L371.271 420.347L372.016 420.26L371.896 419.24L371.152 419.327ZM371.271 420.347L370.526 420.435L370.645 421.455L371.39 421.367L372.135 421.28L372.016 420.26L371.271 420.347ZM371.39 421.367L370.645 421.455C370.958 424.12 370.977 426.786 370.705 429.451L371.451 429.527L372.197 429.604C372.481 426.829 372.46 424.054 372.135 421.28L371.39 421.367ZM371.451 429.527L370.705 429.451L370.601 430.471L371.347 430.547L372.093 430.624L372.197 429.604L371.451 429.527ZM371.347 430.547L370.601 430.471L370.496 431.491L371.243 431.567L371.989 431.644L372.093 430.624L371.347 430.547ZM371.243 431.567L370.496 431.491C370.217 434.222 369.998 436.953 369.839 439.684L370.588 439.727L371.337 439.771C371.494 437.062 371.712 434.353 371.989 431.644L371.243 431.567ZM370.588 439.727L369.839 439.684L369.78 440.704L370.529 440.747L371.278 440.791L371.337 439.771L370.588 439.727ZM370.529 440.747L369.78 440.704L369.721 441.724L370.47 441.767L371.218 441.811L371.278 440.791L370.529 440.747ZM370.47 441.767L369.721 441.724C369.567 444.361 368.993 446.579 368.024 448.399L368.686 448.752L369.348 449.104C370.441 447.052 371.055 444.613 371.218 441.811L370.47 441.767ZM368.686 448.752L368.024 448.399L367.638 449.125L368.3 449.478L368.962 449.83L369.348 449.104L368.686 448.752ZM368.3 449.478L367.638 449.125L367.251 449.851L367.913 450.204L368.575 450.556L368.962 449.83L368.3 449.478ZM367.913 450.204L367.251 449.851C366.373 451.501 364.786 452.449 362.286 452.595L362.33 453.344L362.374 454.093C365.257 453.924 367.392 452.779 368.575 450.556L367.913 450.204ZM362.33 453.344L362.286 452.595L361.277 452.654L361.321 453.403L361.364 454.151L362.374 454.093L362.33 453.344ZM361.321 453.403L361.277 452.654L360.268 452.713L360.311 453.462L360.355 454.21L361.364 454.151L361.321 453.403ZM360.311 453.462L360.268 452.713C357.579 452.87 354.875 453.015 352.158 453.148L352.194 453.897L352.231 454.646C354.953 454.513 357.661 454.368 360.355 454.21L360.311 453.462ZM352.194 453.897L352.158 453.148L351.138 453.198L351.174 453.947L351.211 454.696L352.231 454.646L352.194 453.897ZM351.174 453.947L351.138 453.198L350.118 453.248L350.154 453.997L350.191 454.746L351.211 454.696L351.174 453.947ZM350.154 453.997L350.118 453.248C347.388 453.381 344.659 453.566 341.93 453.802L341.994 454.549L342.059 455.296C344.77 455.062 347.48 454.879 350.191 454.746L350.154 453.997ZM341.994 454.549L341.93 453.802L340.91 453.89L340.974 454.637L341.039 455.384L342.059 455.296L341.994 454.549ZM340.974 454.637L340.91 453.89L339.89 453.978L339.954 454.725L340.019 455.473L341.039 455.384L340.974 454.637ZM339.954 454.725L339.89 453.978C337.215 454.209 334.541 454.196 331.866 453.937L331.794 454.684L331.722 455.43C334.488 455.697 337.253 455.711 340.019 455.473L339.954 454.725ZM331.794 454.684L331.866 453.937L330.846 453.839L330.774 454.585L330.702 455.332L331.722 455.43L331.794 454.684ZM330.774 454.585L330.846 453.839L329.826 453.74L329.754 454.487L329.682 455.234L330.702 455.332L330.774 454.585ZM329.754 454.487L329.826 453.74C327.106 453.478 324.385 453.218 321.665 452.962L321.594 453.708L321.524 454.455C324.243 454.712 326.963 454.971 329.682 455.234L329.754 454.487ZM321.594 453.708L321.665 452.962L320.645 452.865L320.574 453.612L320.504 454.359L321.524 454.455L321.594 453.708ZM320.574 453.612L320.645 452.865L319.625 452.769L319.554 453.516L319.484 454.263L320.504 454.359L320.574 453.612ZM319.554 453.516L319.625 452.769C316.887 452.511 314.148 452.353 311.41 452.296L311.394 453.046L311.379 453.796C314.08 453.852 316.782 454.008 319.484 454.263L319.554 453.516ZM311.394 453.046L311.41 452.296L310.39 452.275L310.374 453.025L310.359 453.774L311.379 453.796L311.394 453.046ZM310.374 453.025L310.39 452.275L309.37 452.253L309.354 453.003L309.339 453.753L310.359 453.774L310.374 453.025ZM309.354 453.003L309.37 452.253C306.601 452.196 303.832 452.41 301.064 452.897L301.194 453.635L301.324 454.374C303.997 453.904 306.668 453.697 309.339 453.753L309.354 453.003ZM301.194 453.635L301.064 452.897L300.044 453.076L300.174 453.815L300.304 454.553L301.324 454.374L301.194 453.635ZM300.174 453.815L300.044 453.076L299.024 453.255L299.154 453.994L299.284 454.733L300.304 454.553L300.174 453.815ZM299.154 453.994L299.024 453.255C296.353 453.725 293.684 453.922 291.015 453.848L290.994 454.597L290.973 455.347C293.745 455.425 296.515 455.22 299.284 454.733L299.154 453.994ZM290.994 454.597L291.015 453.848L289.995 453.819L289.974 454.569L289.953 455.318L290.973 455.347L290.994 454.597ZM289.974 454.569L289.995 453.819L288.975 453.791L288.954 454.54L288.933 455.29L289.953 455.318L289.974 454.569ZM288.954 454.54L288.975 453.791C286.256 453.714 283.538 453.632 280.819 453.543L280.794 454.293L280.77 455.042C283.491 455.131 286.212 455.214 288.933 455.29L288.954 454.54ZM280.794 454.293L280.819 453.543L279.799 453.51L279.774 454.259L279.75 455.009L280.77 455.042L280.794 454.293ZM279.774 454.259L279.799 453.51L278.779 453.476L278.754 454.226L278.73 454.975L279.75 455.009L279.774 454.259ZM278.754 454.226L278.779 453.476C276.08 453.388 273.381 453.185 270.682 452.867L270.594 453.612L270.507 454.357C273.247 454.68 275.989 454.886 278.73 454.975L278.754 454.226ZM270.594 453.612L270.682 452.867L269.662 452.747L269.574 453.492L269.487 454.237L270.507 454.357L270.594 453.612ZM269.574 453.492L269.662 452.747L268.642 452.627L268.554 453.372L268.467 454.117L269.487 454.237L269.574 453.492ZM268.554 453.372L268.642 452.627C265.842 452.297 263.042 452.418 260.245 452.988L260.394 453.723L260.544 454.458C263.187 453.919 265.827 453.806 268.467 454.117L268.554 453.372ZM260.394 453.723L260.245 452.988L259.225 453.196L259.374 453.931L259.524 454.666L260.544 454.458L260.394 453.723ZM259.374 453.931L259.225 453.196L258.205 453.404L258.354 454.139L258.504 454.874L259.524 454.666L259.374 453.931ZM258.354 454.139L258.205 453.404C255.53 453.949 252.857 454.237 250.186 454.268L250.194 455.018L250.203 455.768C252.971 455.736 255.739 455.438 258.504 454.874L258.354 454.139ZM250.194 455.018L250.186 454.268L249.166 454.28L249.174 455.03L249.183 455.78L250.203 455.768L250.194 455.018ZM249.174 455.03L249.166 454.28L248.146 454.292L248.154 455.042L248.163 455.792L249.183 455.78L249.174 455.03ZM248.154 455.042L248.146 454.292C245.471 454.323 242.796 454.111 240.12 453.655L239.994 454.395L239.869 455.134C242.632 455.604 245.397 455.824 248.163 455.792L248.154 455.042ZM239.994 454.395L240.12 453.655L239.1 453.482L238.974 454.221L238.849 454.961L239.869 455.134L239.994 454.395ZM238.974 454.221L239.1 453.482L238.08 453.308L237.954 454.048L237.829 454.787L238.849 454.961L238.974 454.221ZM237.954 454.048L238.08 453.308C235.291 452.834 232.5 452.755 229.709 453.073L229.794 453.818L229.879 454.564C232.529 454.262 235.178 454.336 237.829 454.787L237.954 454.048ZM229.794 453.818L229.709 453.073L228.689 453.189L228.774 453.935L228.859 454.68L229.879 454.564L229.794 453.818ZM228.774 453.935L228.689 453.189L227.669 453.306L227.754 454.051L227.839 454.796L228.859 454.68L228.774 453.935ZM227.754 454.051L227.669 453.306C224.969 453.613 222.269 453.812 219.569 453.902L219.594 454.652L219.619 455.401C222.359 455.31 225.099 455.108 227.839 454.796L227.754 454.051ZM219.594 454.652L219.569 453.902L218.549 453.936L218.574 454.686L218.599 455.436L219.619 455.401L219.594 454.652ZM218.574 454.686L218.549 453.936L217.529 453.97L217.554 454.72L217.579 455.47L218.599 455.436L218.574 454.686ZM217.554 454.72L217.529 453.97C214.864 454.06 212.199 453.857 209.531 453.361L209.394 454.098L209.257 454.836C212.03 455.351 214.804 455.562 217.579 455.47L217.554 454.72ZM209.394 454.098L209.531 453.361L208.511 453.171L208.374 453.909L208.237 454.646L209.257 454.836L209.394 454.098ZM208.374 453.909L208.511 453.171L207.491 452.982L207.354 453.719L207.217 454.457L208.237 454.646L208.374 453.909ZM207.354 453.719L207.491 452.982C204.693 452.462 201.892 452.396 199.091 452.785L199.194 453.528L199.298 454.271C201.937 453.904 204.576 453.966 207.217 454.457L207.354 453.719ZM199.194 453.528L199.091 452.785L198.071 452.927L198.174 453.67L198.278 454.412L199.298 454.271L199.194 453.528ZM198.174 453.67L198.071 452.927L197.051 453.068L197.154 453.811L197.258 454.554L198.278 454.412L198.174 453.67ZM197.154 453.811L197.051 453.068C194.356 453.443 191.661 453.681 188.966 453.782L188.994 454.532L189.023 455.281C191.768 455.178 194.513 454.935 197.258 454.554L197.154 453.811ZM188.994 454.532L188.966 453.782L187.946 453.821L187.974 454.57L188.003 455.32L189.023 455.281L188.994 454.532ZM187.974 454.57L187.946 453.821L186.926 453.859L186.954 454.609L186.983 455.358L188.003 455.32L187.974 454.57ZM186.954 454.609L186.926 453.859C184.239 453.96 181.552 453.884 178.865 453.631L178.794 454.378L178.724 455.125C181.477 455.384 184.23 455.462 186.983 455.358L186.954 454.609ZM178.794 454.378L178.865 453.631L177.845 453.535L177.774 454.282L177.704 455.029L178.724 455.125L178.794 454.378ZM177.774 454.282L177.845 453.535L176.825 453.439L176.754 454.186L176.684 454.933L177.704 455.029L177.774 454.282ZM176.754 454.186L176.825 453.439C174.097 453.182 171.37 452.966 168.642 452.791L168.594 453.54L168.546 454.288C171.259 454.462 173.971 454.677 176.684 454.933L176.754 454.186ZM168.594 453.54L168.642 452.791L167.622 452.726L167.574 453.474L167.526 454.223L168.546 454.288L168.594 453.54ZM167.574 453.474L167.622 452.726L166.602 452.66L166.554 453.409L166.506 454.157L167.526 454.223L167.574 453.474ZM166.554 453.409L166.602 452.66C163.872 452.485 161.141 452.368 158.41 452.31L158.394 453.059L158.378 453.809C161.088 453.867 163.797 453.984 166.506 454.157L166.554 453.409ZM158.394 453.059L158.41 452.31L157.39 452.288L157.374 453.037L157.358 453.787L158.378 453.809L158.394 453.059ZM157.374 453.037L157.39 452.288L156.37 452.266L156.354 453.015L156.338 453.765L157.358 453.787L157.374 453.037ZM156.354 453.015L156.37 452.266C153.636 452.207 150.901 452.229 148.166 452.332L148.194 453.081L148.223 453.831C150.928 453.729 153.633 453.707 156.338 453.765L156.354 453.015ZM148.194 453.081L148.166 452.332L147.146 452.37L147.174 453.12L147.203 453.869L148.223 453.831L148.194 453.081ZM147.174 453.12L147.146 452.37L146.126 452.409L146.154 453.158L146.183 453.908L147.203 453.869L147.174 453.12ZM146.154 453.158L146.126 452.409C143.422 452.51 140.718 452.525 138.014 452.453L137.994 453.203L137.974 453.952C140.71 454.026 143.446 454.011 146.183 453.908L146.154 453.158ZM137.994 453.203L138.014 452.453L136.994 452.426L136.974 453.175L136.954 453.925L137.974 453.952L137.994 453.203ZM136.974 453.175L136.994 452.426L135.974 452.398L135.954 453.148L135.934 453.898L136.954 453.925L136.974 453.175ZM135.954 453.148L135.974 452.398C133.219 452.325 130.464 452.444 127.71 452.757L127.794 453.502L127.879 454.248C130.564 453.943 133.249 453.826 135.934 453.898L135.954 453.148ZM127.794 453.502L127.71 452.757L126.69 452.873L126.774 453.618L126.859 454.364L127.879 454.248L127.794 453.502ZM126.774 453.618L126.69 452.873L125.67 452.989L125.754 453.734L125.839 454.479L126.859 454.364L126.774 453.618ZM125.754 453.734L125.67 452.989C123.006 453.292 120.344 453.289 117.68 452.981L117.594 453.727L117.508 454.472C120.285 454.792 123.062 454.795 125.839 454.479L125.754 453.734ZM117.594 453.727L117.68 452.981L116.66 452.864L116.574 453.609L116.488 454.354L117.508 454.472L117.594 453.727ZM116.574 453.609L116.66 452.864L115.64 452.746L115.554 453.491L115.468 454.236L116.488 454.354L116.574 453.609ZM115.554 453.491L115.64 452.746C112.893 452.429 110.146 452.262 107.399 452.246L107.394 452.996L107.39 453.746C110.083 453.762 112.775 453.925 115.468 454.236L115.554 453.491ZM107.394 452.996L107.399 452.246L106.379 452.24L106.374 452.99L106.37 453.74L107.39 453.746L107.394 452.996ZM106.374 452.99L106.379 452.24L105.359 452.234L105.354 452.984L105.35 453.734L106.37 453.74L106.374 452.99ZM105.354 452.984L105.359 452.234C102.641 452.219 99.9235 452.19 97.2059 452.148L97.1943 452.898L97.1827 453.648C99.9052 453.69 102.628 453.719 105.35 453.734L105.354 452.984ZM97.1943 452.898L97.2059 452.148L96.1859 452.132L96.1743 452.882L96.1627 453.632L97.1827 453.648L97.1943 452.898ZM96.1743 452.882L96.1859 452.132L95.1659 452.116L95.1543 452.866L95.1427 453.616L96.1627 453.632L96.1743 452.882ZM95.1543 452.866L95.1659 452.116C92.4245 452.074 89.6831 452.149 86.9418 452.342L86.9943 453.09L87.0469 453.838C89.7456 453.648 92.4442 453.574 95.1427 453.616L95.1543 452.866ZM86.9943 453.09L86.9418 452.342L85.9218 452.413L85.9743 453.162L86.0269 453.91L87.0469 453.838L86.9943 453.09ZM85.9743 453.162L85.9218 452.413L84.9017 452.485L84.9543 453.233L85.0069 453.981L86.0269 453.91L85.9743 453.162ZM84.9543 453.233L84.9017 452.485C82.1871 452.676 79.4724 452.837 76.7578 452.97L76.7943 453.719L76.8309 454.468C79.5562 454.335 82.2816 454.173 85.0069 453.981L84.9543 453.233ZM76.7943 453.719L76.7578 452.97L75.7378 453.02L75.7743 453.769L75.8109 454.518L76.8309 454.468L76.7943 453.719ZM75.7743 453.769L75.7378 453.02L74.7178 453.069L74.7543 453.819L74.7909 454.568L75.8109 454.518L75.7743 453.769ZM74.7543 453.819L74.7178 453.069C72.0366 453.2 69.3554 453.123 66.6737 452.838L66.5943 453.583L66.515 454.329C69.2733 454.623 72.032 454.702 74.7909 454.568L74.7543 453.819ZM66.5943 453.583L66.6737 452.838L65.6537 452.729L65.5743 453.475L65.495 454.221L66.515 454.329L66.5943 453.583ZM65.5743 453.475L65.6537 452.729L64.6337 452.621L64.5543 453.366L64.475 454.112L65.495 454.221L65.5743 453.475ZM64.5543 453.366L64.6337 452.621C61.8459 452.324 59.0579 452.407 56.2717 452.869L56.3943 453.609L56.517 454.348C59.1707 453.909 61.8228 453.83 64.475 454.112L64.5543 453.366ZM56.3943 453.609L56.2717 452.869L55.2517 453.038L55.3743 453.778L55.497 454.518L56.517 454.348L56.3943 453.609ZM55.3743 453.778L55.2517 453.038L54.2317 453.207L54.3543 453.947L54.477 454.687L55.497 454.518L55.3743 453.778ZM54.3543 453.947L54.2317 453.207C51.558 453.65 48.8855 453.837 46.2137 453.768L46.1943 454.517L46.1749 455.267C48.9431 455.339 51.7107 455.145 54.477 454.687L54.3543 453.947ZM46.1943 454.517L46.2137 453.768L45.1937 453.741L45.1743 454.491L45.1549 455.241L46.1749 455.267L46.1943 454.517ZM45.1743 454.491L45.1937 453.741L44.1737 453.715L44.1543 454.465L44.1349 455.214L45.1549 455.241L45.1743 454.491ZM44.1543 454.465L44.1737 453.715C41.444 453.644 38.7144 453.626 35.9847 453.661L35.9943 454.411L36.0039 455.161C38.7143 455.126 41.4246 455.144 44.1349 455.214L44.1543 454.465ZM35.9943 454.411L35.9847 453.661L34.9647 453.674L34.9743 454.424L34.9839 455.174L36.0039 455.161L35.9943 454.411ZM34.9743 454.424L34.9647 453.674L33.9447 453.688L33.9543 454.437L33.9639 455.187L34.9839 455.174L34.9743 454.424ZM33.9543 454.437L33.9447 453.688C31.2188 453.722 28.4928 453.79 25.7669 453.89L25.7943 454.639L25.8217 455.389C28.5358 455.289 31.2499 455.222 33.9639 455.187L33.9543 454.437ZM25.7943 454.639L25.7669 453.89L24.7469 453.927L24.7743 454.676L24.8017 455.426L25.8217 455.389L25.7943 454.639ZM24.7743 454.676L24.7469 453.927L23.7269 453.964L23.7543 454.714L23.7817 455.463L24.8017 455.426L24.7743 454.676ZM23.7543 454.714L23.7269 453.964C21.0311 454.063 18.3353 454.031 15.6394 453.869L15.5943 454.617L15.5492 455.366C18.2933 455.531 21.0375 455.564 23.7817 455.463L23.7543 454.714ZM15.5943 454.617L15.6394 453.869L14.6194 453.807L14.5743 454.556L14.5292 455.304L15.5492 455.366L15.5943 454.617ZM14.5743 454.556L14.6194 453.807L13.5994 453.746L13.5543 454.494L13.5092 455.243L14.5292 455.304L14.5743 454.556ZM13.5543 454.494L13.5994 453.746C10.9922 453.589 8.66029 452.88 6.58918 451.627L6.20105 452.269L5.81291 452.911C8.10618 454.298 10.6765 455.072 13.5092 455.243L13.5543 454.494ZM6.20105 452.269L6.58918 451.627L5.77086 451.132L5.38273 451.774L4.99459 452.416L5.81291 452.911L6.20105 452.269ZM5.38273 451.774L5.77086 451.132L4.95254 450.637L4.5644 451.279L4.17627 451.921L4.99459 452.416L5.38273 451.774ZM4.5644 451.279L4.95254 450.637C2.99874 449.456 1.94481 447.665 1.79522 445.161L1.04655 445.205L0.297884 445.25C0.474388 448.205 1.7657 450.463 4.17627 451.921L4.5644 451.279ZM1.04655 445.205L1.79522 445.161L1.73407 444.137L0.985406 444.182L0.236741 444.227L0.297884 445.25L1.04655 445.205ZM0.985406 444.182L1.73407 444.137L1.67293 443.114L0.924263 443.158L0.175598 443.203L0.236741 444.227L0.985406 444.182ZM0.924263 443.158L1.67293 443.114C1.51385 440.451 1.7062 437.792 2.2509 435.135L1.51618 434.984L0.781463 434.834C0.21084 437.617 0.00857806 440.407 0.175598 443.203L0.924263 443.158ZM1.51618 434.984L2.2509 435.135L2.46002 434.115L1.7253 433.964L0.990586 433.814L0.781463 434.834L1.51618 434.984ZM1.7253 433.964L2.46002 434.115L2.66914 433.095L1.93443 432.944L1.19971 432.794L0.990586 433.814L1.7253 433.964ZM1.93443 432.944L2.66914 433.095C3.2447 430.288 3.31163 427.477 2.86902 424.668L2.12815 424.784L1.38729 424.901C1.8017 427.532 1.73948 430.161 1.19971 432.794L1.93443 432.944ZM2.12815 424.784L2.86902 424.668L2.70833 423.648L1.96746 423.764L1.2266 423.881L1.38729 424.901L2.12815 424.784ZM1.96746 423.764L2.70833 423.648L2.54764 422.628L1.80677 422.744L1.06591 422.861L1.2266 423.881L1.96746 423.764ZM1.80677 422.744L2.54764 422.628C2.12312 419.933 1.84011 417.239 1.6985 414.545L0.949533 414.584L0.200567 414.624C0.344929 417.37 0.633409 420.116 1.06591 422.861L1.80677 422.744ZM0.949533 414.584L1.6985 414.545L1.64488 413.525L0.895914 413.564L0.146948 413.604L0.200567 414.624L0.949533 414.584ZM0.895914 413.564L1.64488 413.525L1.59126 412.505L0.842295 412.544L0.0933291 412.584L0.146948 413.604L0.895914 413.564ZM0.842295 412.544L1.59126 412.505C1.44989 409.816 1.47388 407.126 1.66323 404.437L0.915085 404.384L0.166937 404.332C-0.026729 407.082 -0.0512697 409.833 0.0933291 412.584L0.842295 412.544ZM0.915085 404.384L1.66323 404.437L1.73505 403.417L0.986902 403.364L0.238754 403.312L0.166937 404.332L0.915085 404.384ZM0.986902 403.364L1.73505 403.417L1.80687 402.397L1.05872 402.344L0.31057 402.292L0.238754 403.312L0.986902 403.364ZM1.05872 402.344L1.80687 402.397C1.99764 399.688 2.24591 396.978 2.55171 394.269L1.80644 394.184L1.06117 394.1C0.753025 396.831 0.502824 399.561 0.31057 402.292L1.05872 402.344ZM1.80644 394.184L2.55171 394.269L2.66682 393.249L1.92155 393.164L1.17628 393.08L1.06117 394.1L1.80644 394.184ZM1.92155 393.164L2.66682 393.249L2.78193 392.229L2.03666 392.144L1.29139 392.06L1.17628 393.08L1.92155 393.164ZM2.03666 392.144L2.78193 392.229C3.09601 389.446 3.05707 386.662 2.66532 383.88L1.92264 383.984L1.17997 384.089C1.55418 386.747 1.59126 389.403 1.29139 392.06L2.03666 392.144ZM1.92264 383.984L2.66532 383.88L2.5217 382.86L1.77903 382.964L1.03635 383.069L1.17997 384.089L1.92264 383.984ZM1.77903 382.964L2.5217 382.86L2.37808 381.84L1.63541 381.944L0.892733 382.049L1.03635 383.069L1.77903 382.964ZM1.63541 381.944L2.37808 381.84C2.00465 379.188 1.99664 376.537 2.35398 373.885L1.6107 373.784L0.867417 373.684C0.491744 376.472 0.5002 379.261 0.892733 382.049L1.63541 381.944ZM1.6107 373.784L2.35398 373.885L2.49142 372.865L1.74814 372.764L1.00486 372.664L0.867417 373.684L1.6107 373.784ZM1.74814 372.764L2.49142 372.865L2.62886 371.845L1.88558 371.744L1.1423 371.644L1.00486 372.664L1.74814 372.764ZM1.88558 371.744L2.62886 371.845C2.99862 369.1 3.23277 366.356 3.33124 363.611L2.58172 363.584L1.8322 363.558C1.73551 366.253 1.50556 368.948 1.1423 371.644L1.88558 371.744ZM2.58172 363.584L3.33124 363.611L3.36783 362.591L2.61831 362.564L1.8688 362.538L1.8322 363.558L2.58172 363.584ZM2.61831 362.564L3.36783 362.591L3.40443 361.571L2.65491 361.544L1.90539 361.518L1.8688 362.538L2.61831 362.564ZM2.65491 361.544L3.40443 361.571C3.50431 358.787 3.25049 356.004 2.64417 353.225L1.9114 353.384L1.17862 353.544C1.75882 356.204 2.00067 358.862 1.90539 361.518L2.65491 361.544ZM1.9114 353.384L2.64417 353.225L2.4217 352.205L1.68893 352.364L0.956152 352.524L1.17862 353.544L1.9114 353.384ZM1.68893 352.364L2.4217 352.205L2.19923 351.185L1.46645 351.344L0.733681 351.504L0.956152 352.524L1.68893 352.364ZM1.46645 351.344L2.19923 351.185C1.62958 348.573 1.64436 345.965 2.24397 343.352L1.51297 343.184L0.781978 343.017C0.133046 345.844 0.11681 348.676 0.733681 351.504L1.46645 351.344ZM1.51297 343.184L2.24397 343.352L2.47807 342.332L1.74707 342.164L1.01608 341.997L0.781978 343.017L1.51297 343.184ZM1.74707 342.164L2.47807 342.332L2.71217 341.312L1.98117 341.144L1.25018 340.977L1.01608 341.997L1.74707 342.164ZM1.98117 341.144L2.71217 341.312C3.35735 338.501 3.46424 335.685 3.03113 332.87L2.28985 332.984L1.54857 333.098C1.95243 335.723 1.85354 338.348 1.25018 340.977L1.98117 341.144ZM2.28985 332.984L3.03113 332.87L2.8742 331.85L2.13292 331.964L1.39164 332.078L1.54857 333.098L2.28985 332.984ZM2.13292 331.964L2.8742 331.85L2.71727 330.83L1.97599 330.944L1.23471 331.058L1.39164 332.078L2.13292 331.964ZM1.97599 330.944L2.71727 330.83C2.30397 328.144 2.07787 325.459 2.03878 322.773L1.28886 322.784L0.538936 322.795C0.579049 325.55 0.811037 328.305 1.23471 331.058L1.97599 330.944ZM1.28886 322.784L2.03878 322.773L2.02393 321.754L1.274 321.764L0.524084 321.775L0.538936 322.795L1.28886 322.784ZM1.274 321.764L2.02393 321.754L2.00907 320.733L1.25915 320.744L0.509233 320.755L0.524084 321.775L1.274 321.764ZM1.25915 320.744L2.00907 320.733C1.97013 318.059 2.17152 315.383 2.61363 312.707L1.87365 312.584L1.13368 312.462C0.677239 315.226 0.46897 317.99 0.509233 320.755L1.25915 320.744ZM1.87365 312.584L2.61363 312.707L2.7821 311.687L2.04213 311.564L1.30216 311.442L1.13368 312.462L1.87365 312.584ZM2.04213 311.564L2.7821 311.687L2.95058 310.667L2.21061 310.544L1.47063 310.422L1.30216 311.442L2.04213 311.564ZM2.21061 310.544L2.95058 310.667C3.40837 307.895 3.57112 305.122 3.43838 302.349L2.68924 302.384L1.9401 302.42C2.06772 305.087 1.91138 307.754 1.47063 310.422L2.21061 310.544ZM2.68924 302.384L3.43838 302.349L3.38956 301.329L2.64042 301.364L1.89128 301.4L1.9401 302.42L2.68924 302.384ZM2.64042 301.364L3.38956 301.329L3.34074 300.309L2.5916 300.344L1.84246 300.38L1.89128 301.4L2.64042 301.364ZM2.5916 300.344L3.34074 300.309C3.21173 297.613 3.21454 294.917 3.34918 292.222L2.60011 292.184L1.85104 292.147C1.71397 294.891 1.71111 297.636 1.84246 300.38L2.5916 300.344ZM2.60011 292.184L3.34918 292.222L3.40012 291.202L2.65105 291.164L1.90199 291.127L1.85104 292.147L2.60011 292.184ZM2.65105 291.164L3.40012 291.202L3.45107 290.182L2.702 290.144L1.95293 290.107L1.90199 291.127L2.65105 291.164ZM2.702 290.144L3.45107 290.182C3.58912 287.418 3.48386 284.654 3.13544 281.891L2.39133 281.984L1.64722 282.078C1.98474 284.755 2.08659 287.431 1.95293 290.107L2.702 290.144ZM2.39133 281.984L3.13544 281.891L3.00683 280.871L2.26272 280.964L1.51861 281.058L1.64722 282.078L2.39133 281.984ZM2.26272 280.964L3.00683 280.871L2.87821 279.851L2.13411 279.944L1.39 280.038L1.51861 281.058L2.26272 280.964ZM2.13411 279.944L2.87821 279.851C2.53876 277.158 2.35247 274.467 2.31927 271.775L1.56933 271.784L0.819384 271.794C0.853287 274.542 1.04352 277.29 1.39 280.038L2.13411 279.944ZM1.56933 271.784L2.31927 271.775L2.30669 270.755L1.55675 270.764L0.806803 270.774L0.819384 271.794L1.56933 271.784ZM1.55675 270.764L2.30669 270.755L2.29411 269.735L1.54416 269.744L0.794221 269.754L0.806803 270.774L1.55675 270.764ZM1.54416 269.744L2.29411 269.735C2.26064 267.022 2.26367 264.309 2.30321 261.595L1.55329 261.584L0.803367 261.573C0.763635 264.3 0.760587 267.027 0.794221 269.754L1.54416 269.744ZM1.55329 261.584L2.30321 261.595L2.31807 260.575L1.56815 260.564L0.818229 260.553L0.803367 261.573L1.55329 261.584ZM1.56815 260.564L2.31807 260.575L2.33293 259.555L1.58301 259.544L0.833092 259.533L0.818229 260.553L1.56815 260.564ZM1.58301 259.544L2.33293 259.555C2.37257 256.835 2.40911 254.114 2.44253 251.394L1.69258 251.384L0.942639 251.375C0.909233 254.095 0.872717 256.814 0.833092 259.533L1.58301 259.544ZM1.69258 251.384L2.44253 251.394L2.45506 250.374L1.70511 250.364L0.955169 250.355L0.942639 251.375L1.69258 251.384ZM1.70511 250.364L2.45506 250.374L2.46759 249.354L1.71764 249.344L0.967698 249.335L0.955169 250.355L1.70511 250.364ZM1.71764 249.344L2.46759 249.354C2.50091 246.641 2.57156 243.927 2.67953 241.214L1.93013 241.184L1.18072 241.155C1.0722 243.881 1.0012 246.608 0.967698 249.335L1.71764 249.344ZM1.93013 241.184L2.67953 241.214L2.72013 240.194L1.97072 240.164L1.22131 240.135L1.18072 241.155L1.93013 241.184ZM1.97072 240.164L2.72013 240.194L2.76072 239.174L2.01131 239.144L1.2619 239.115L1.22131 240.135L1.97072 240.164ZM2.01131 239.144L2.76072 239.174C2.86956 236.439 2.89592 233.704 2.83981 230.969L2.08996 230.984L1.34012 231C1.39562 233.705 1.36955 236.41 1.2619 239.115L2.01131 239.144ZM2.08996 230.984L2.83981 230.969L2.81888 229.949L2.06903 229.964L1.31919 229.98L1.34012 231L2.08996 230.984ZM2.06903 229.964L2.81888 229.949L2.79795 228.929L2.04811 228.944L1.29826 228.96L1.31919 229.98L2.06903 229.964ZM2.04811 228.944L2.79795 228.929C2.74259 226.231 2.80457 223.533 2.9839 220.834L2.23555 220.784L1.48721 220.735C1.30499 223.476 1.24201 226.218 1.29826 228.96L2.04811 228.944ZM2.23555 220.784L2.9839 220.834L3.05169 219.814L2.30334 219.764L1.555 219.715L1.48721 220.735L2.23555 220.784ZM2.30334 219.764L3.05169 219.814L3.11948 218.794L2.37114 218.744L1.62279 218.695L1.555 219.715L2.30334 219.764ZM2.37114 218.744L3.11948 218.794C3.30256 216.04 3.29426 213.285 3.09459 210.53L2.34656 210.584L1.59852 210.639C1.79317 213.324 1.80126 216.009 1.62279 218.695L2.37114 218.744ZM2.34656 210.584L3.09459 210.53L3.02066 209.51L2.27262 209.564L1.52458 209.619L1.59852 210.639L2.34656 210.584ZM2.27262 209.564L3.02066 209.51L2.94672 208.49L2.19868 208.544L1.45065 208.599L1.52458 209.619L2.27262 209.564ZM2.19868 208.544L2.94672 208.49C2.7507 205.786 2.6405 203.082 2.6161 200.378L1.86613 200.384L1.11616 200.391C1.14085 203.127 1.25234 205.863 1.45065 208.599L2.19868 208.544ZM1.86613 200.384L2.6161 200.378L2.6069 199.358L1.85693 199.364L1.10696 199.371L1.11616 200.391L1.86613 200.384ZM1.85693 199.364L2.6069 199.358L2.5977 198.338L1.84773 198.344L1.09776 198.351L1.10696 199.371L1.85693 199.364ZM1.84773 198.344L2.5977 198.338C2.57342 195.647 2.70452 192.955 2.99107 190.264L2.24529 190.184L1.4995 190.105C1.20689 192.853 1.07296 195.602 1.09776 198.351L1.84773 198.344ZM2.24529 190.184L2.99107 190.264L3.09966 189.244L2.35388 189.164L1.60809 189.085L1.4995 190.105L2.24529 190.184ZM2.35388 189.164L3.09966 189.244L3.20826 188.224L2.46247 188.144L1.71669 188.065L1.60809 189.085L2.35388 189.164ZM2.46247 188.144L3.20826 188.224C3.50397 185.446 3.47744 182.668 3.12878 179.891L2.38462 179.984L1.64046 180.078C1.97476 182.741 2.00013 185.403 1.71669 188.065L2.46247 188.144ZM2.38462 179.984L3.12878 179.891L3.00073 178.871L2.25657 178.964L1.51241 179.058L1.64046 180.078L2.38462 179.984ZM2.25657 178.964L3.00073 178.871L2.87267 177.851L2.12851 177.944L1.38435 178.038L1.51241 179.058L2.25657 178.964ZM2.12851 177.944L2.87267 177.851C2.53909 175.194 2.54354 172.537 2.88606 169.88L2.14222 169.784L1.39837 169.689C1.03966 172.471 1.03498 175.255 1.38435 178.038L2.12851 177.944ZM2.14222 169.784L2.88606 169.88L3.01755 168.86L2.2737 168.764L1.52985 168.669L1.39837 169.689L2.14222 169.784ZM2.2737 168.764L3.01755 168.86L3.14903 167.84L2.40518 167.744L1.66134 167.649L1.52985 168.669L2.2737 168.764ZM2.40518 167.744L3.14903 167.84C3.50844 165.052 3.48344 162.263 3.0742 159.475L2.33216 159.584L1.59011 159.693C1.97947 162.346 2.00316 164.997 1.66134 167.649L2.40518 167.744ZM2.33216 159.584L3.0742 159.475L2.92446 158.455L2.18242 158.564L1.44037 158.673L1.59011 159.693L2.33216 159.584ZM2.18242 158.564L2.92446 158.455L2.77473 157.435L2.03268 157.544L1.29063 157.653L1.44037 158.673L2.18242 158.564ZM2.03268 157.544L2.77473 157.435C2.38282 154.766 2.26666 152.097 2.42593 149.429L1.67726 149.384L0.928593 149.34C0.763149 152.111 0.883935 154.883 1.29063 157.653L2.03268 157.544ZM1.67726 149.384L2.42593 149.429L2.48681 148.409L1.73814 148.364L0.989476 148.32L0.928593 149.34L1.67726 149.384ZM1.73814 148.364L2.48681 148.409L2.54769 147.389L1.79903 147.344L1.05036 147.3L0.989476 148.32L1.73814 148.364ZM1.79903 147.344L2.54769 147.389C2.70978 144.674 2.89616 141.958 3.10684 139.242L2.35909 139.184L1.61133 139.126C1.39997 141.851 1.21298 144.575 1.05036 147.3L1.79903 147.344ZM2.35909 139.184L3.10684 139.242L3.18597 138.222L2.43822 138.164L1.69046 138.106L1.61133 139.126L2.35909 139.184ZM2.43822 138.164L3.18597 138.222L3.2651 137.202L2.51735 137.144L1.7696 137.086L1.69046 138.106L2.43822 138.164ZM2.51735 137.144L3.2651 137.202C3.47924 134.442 3.47049 131.682 3.23885 128.922L2.49148 128.984L1.74411 129.047C1.969 131.727 1.97749 134.407 1.7696 137.086L2.51735 137.144ZM2.49148 128.984L3.23885 128.922L3.15325 127.902L2.40588 127.964L1.65851 128.027L1.74411 129.047L2.49148 128.984ZM2.40588 127.964L3.15325 127.902L3.06765 126.882L2.32028 126.944L1.57291 127.007L1.65851 128.027L2.40588 127.964ZM2.32028 126.944L3.06765 126.882C2.83949 124.163 2.61815 121.444 2.40361 118.725L1.65594 118.784L0.908261 118.843C1.12299 121.565 1.34454 124.286 1.57291 127.007L2.32028 126.944ZM1.65594 118.784L2.40361 118.725L2.32313 117.705L1.57545 117.764L0.827774 117.823L0.908261 118.843L1.65594 118.784ZM1.57545 117.764L2.32313 117.705L2.24264 116.685L1.49496 116.744L0.747287 116.803L0.827774 117.823L1.57545 117.764ZM1.49496 116.744L2.24264 116.685C2.03063 113.999 1.99827 111.312 2.14555 108.625L1.39667 108.584L0.647796 108.543C0.496861 111.297 0.530033 114.05 0.747287 116.803L1.49496 116.744ZM1.39667 108.584L2.14555 108.625L2.20146 107.605L1.45259 107.564L0.70371 107.523L0.647796 108.543L1.39667 108.584ZM1.45259 107.564L2.20146 107.605L2.25738 106.585L1.5085 106.544L0.759624 106.503L0.70371 107.523L1.45259 107.564ZM1.5085 106.544L2.25738 106.585C2.40787 103.84 2.41858 101.095 2.2895 98.3492L1.54033 98.3844L0.791156 98.4196C0.917846 101.114 0.907337 103.809 0.759624 106.503L1.5085 106.544ZM1.54033 98.3844L2.2895 98.3492L2.24154 97.3292L1.49237 97.3644L0.743199 97.3996L0.791156 98.4196L1.54033 98.3844ZM1.49237 97.3644L2.24154 97.3292L2.19359 96.3092L1.44441 96.3444L0.695242 96.3796L0.743199 97.3996L1.49237 97.3644ZM1.44441 96.3444L2.19359 96.3092C2.06607 93.5971 1.98156 90.885 1.94004 88.1729L1.19013 88.1844L0.440221 88.1959C0.481978 90.9238 0.566985 93.6517 0.695242 96.3796L1.44441 96.3444ZM1.19013 88.1844L1.94004 88.1729L1.92443 87.1529L1.17452 87.1644L0.424607 87.1759L0.440221 88.1959L1.19013 88.1844ZM1.17452 87.1644L1.92443 87.1529L1.90882 86.1329L1.15891 86.1444L0.408994 86.1559L0.424607 87.1759L1.17452 87.1644ZM1.15891 86.1444L1.90882 86.1329C1.86785 83.4566 2.05971 80.7798 2.48471 78.102L1.74398 77.9844L1.00325 77.8668C0.564879 80.629 0.366689 83.3921 0.408994 86.1559L1.15891 86.1444ZM1.74398 77.9844L2.48471 78.102L2.64659 77.082L1.90586 76.9644L1.16513 76.8468L1.00325 77.8668L1.74398 77.9844ZM1.90586 76.9644L2.64659 77.082L2.80848 76.062L2.06775 75.9444L1.32702 75.8269L1.16513 76.8468L1.90586 76.9644ZM2.06775 75.9444L2.80848 76.062C3.25096 73.274 3.30545 70.4844 2.97161 67.6953L2.22693 67.7844L1.48225 67.8736C1.79954 70.5244 1.74791 73.1749 1.32702 75.8269L2.06775 75.9444ZM2.22693 67.7844L2.97161 67.6953L2.84953 66.6753L2.10484 66.7644L1.36016 66.8536L1.48225 67.8736L2.22693 67.7844ZM2.10484 66.7644L2.84953 66.6753L2.72744 65.6553L1.98276 65.7444L1.23807 65.8336L1.36016 66.8536L2.10484 66.7644ZM1.98276 65.7444L2.72744 65.6553C2.40304 62.945 2.13229 60.2347 1.91519 57.5245L1.16758 57.5844L0.419977 57.6443C0.63865 60.3741 0.91135 63.1039 1.23807 65.8336L1.98276 65.7444ZM1.16758 57.5844L1.91519 57.5245L1.83348 56.5045L1.08588 56.5644L0.33827 56.6243L0.419977 57.6443L1.16758 57.5844ZM1.08588 56.5644L1.83348 56.5045L1.75177 55.4845L1.00417 55.5444L0.256562 55.6043L0.33827 56.6243L1.08588 56.5644ZM1.00417 55.5444L1.75177 55.4845C1.53593 52.7901 1.45888 50.0958 1.52059 47.4016L0.770784 47.3844L0.0209802 47.3672C-0.0419077 50.113 0.0366285 52.8587 0.256562 55.6043L1.00417 55.5444ZM0.770784 47.3844L1.52059 47.4016L1.54395 46.3816L0.794145 46.3644L0.0443418 46.3472L0.0209802 47.3672L0.770784 47.3844ZM0.794145 46.3644L1.54395 46.3816L1.56731 45.3616L0.817507 45.3444L0.0677034 45.3272L0.0443418 46.3472L0.794145 46.3644ZM0.817507 45.3444L1.56731 45.3616C1.62925 42.6573 1.77603 39.9529 2.00768 37.2484L1.26041 37.1844L0.513147 37.1204C0.278845 39.8559 0.13036 42.5916 0.0677034 45.3272L0.817507 45.3444ZM1.26041 37.1844L2.00768 37.2484L2.09504 36.2284L1.34778 36.1644L0.600512 36.1004L0.513147 37.1204L1.26041 37.1844ZM1.34778 36.1644L2.09504 36.2284L2.1824 35.2084L1.43514 35.1444L0.687877 35.0804L0.600512 36.1004L1.34778 36.1644ZM1.43514 35.1444L2.1824 35.2084C2.41648 32.4755 2.57928 29.7425 2.6708 27.0095L1.92122 26.9844L1.17164 26.9593C1.081 29.6663 0.919744 32.3733 0.687877 35.0804L1.43514 35.1444ZM1.92122 26.9844L2.6708 27.0095L2.70496 25.9895L1.95538 25.9644L1.2058 25.9393L1.17164 26.9593L1.92122 26.9844ZM1.95538 25.9644L2.70496 25.9895L2.73911 24.9695L1.98953 24.9444L1.23995 24.9193L1.2058 25.9393L1.95538 25.9644ZM1.98953 24.9444L2.73911 24.9695C2.82991 22.2581 2.96757 19.5467 3.15211 16.8353L2.40384 16.7844L1.65557 16.7335C1.46987 19.4621 1.33132 22.1907 1.23995 24.9193L1.98953 24.9444ZM2.40384 16.7844L3.15211 16.8353L3.22153 15.8153L2.47327 15.7644L1.725 15.7135L1.65557 16.7335L2.40384 16.7844ZM2.47327 15.7644L3.22153 15.8153L3.29096 14.7953L2.54269 14.7444L1.79442 14.6935L1.725 15.7135L2.47327 15.7644ZM2.54269 14.7444L3.29096 14.7953C3.47284 12.123 3.89764 9.68055 4.56076 7.4645L3.84224 7.24949L3.12372 7.03449C2.42435 9.37165 1.98279 11.9258 1.79442 14.6935L2.54269 14.7444ZM3.84224 7.24949L4.56076 7.4645L4.81622 6.61077L4.0977 6.39577L3.37918 6.18076L3.12372 7.03449L3.84224 7.24949ZM4.0977 6.39577L4.81622 6.61077L5.07169 5.75704L4.35317 5.54204L3.63465 5.32703L3.37918 6.18076L4.0977 6.39577ZM4.35317 5.54204L5.07169 5.75704C5.40937 4.62855 5.70001 3.80482 5.94252 3.26621C6.06507 2.99403 6.16207 2.82486 6.22982 2.73206C6.32819 2.59733 6.27572 2.74087 6.05138 2.77725L5.93134 2.03692L5.81129 1.29659C5.40152 1.36303 5.14421 1.67518 5.01835 1.84757C4.86187 2.0619 4.71524 2.33838 4.57476 2.65039C4.29121 3.28015 3.9782 4.17892 3.63465 5.32703L4.35317 5.54204ZM5.93134 2.03692L6.05138 2.77725L6.19046 2.7547L6.07041 2.01437L5.95037 1.27404L5.81129 1.29659L5.93134 2.03692ZM6.07041 2.01437L6.19046 2.7547L6.32953 2.73215L6.20949 1.99182L6.08944 1.25149L5.95037 1.27404L6.07041 2.01437ZM6.20949 1.99182L6.32953 2.73215C6.45704 2.71147 6.8806 2.68383 7.67211 2.65702C8.43839 2.63106 9.49971 2.60691 10.8581 2.58465L10.8458 1.83476L10.8335 1.08486C9.47187 1.10717 8.40048 1.13148 7.62132 1.15788C6.8674 1.18342 6.3328 1.21203 6.08944 1.25149L6.20949 1.99182ZM10.8458 1.83476L10.8581 2.58465L11.8781 2.56794L11.8658 1.81804L11.8535 1.06814L10.8335 1.08486L10.8458 1.83476Z" fill="#F8AD00"/>
</svg>
