<svg width="340" height="45" viewBox="0 0 340 45" fill="none" xmlns="http://www.w3.org/2000/svg">
<path d="M1.58484 6.9043C1.58484 4.14287 3.82342 1.9043 6.58484 1.9043H333.585C336.346 1.9043 338.585 4.14287 338.585 6.9043V37.9043C338.585 40.6657 336.346 42.9043 333.585 42.9043H6.58484C3.82341 42.9043 1.58484 40.6657 1.58484 37.9043V6.9043Z" fill="#FFFBF1"/>
<path d="M164.686 0.00585938H165.706C168.432 0.00685108 171.159 0.0443873 173.886 0.123047L175.925 0.181641C178.684 0.261257 181.446 0.558996 184.204 1.07227L185.224 1.25977L186.243 1.45312C188.901 1.94771 191.557 2.09895 194.212 1.91016L195.231 1.83984L196.251 1.76367C199.002 1.56807 201.756 1.54336 204.507 1.6875L206.546 1.79297C209.229 1.93347 211.913 1.87658 214.597 1.62305L215.616 1.5293L216.636 1.42969C219.385 1.16994 222.136 1.07569 224.886 1.14844L226.925 1.20703C229.608 1.27802 232.291 1.15218 234.975 0.837891L235.995 0.720703L237.02 0.603516C239.785 0.279812 242.552 0.208147 245.317 0.398438L247.356 0.539062C250.075 0.726092 252.794 0.904561 255.513 1.07227L257.552 1.20117C260.241 1.36707 262.931 1.37093 265.62 1.21289L266.64 1.14844L267.659 1.08984C270.422 0.927458 273.188 1.0042 275.95 1.3125L277.989 1.53516C280.686 1.83619 283.384 2.01514 286.081 2.06836L287.1 2.0918L288.12 2.10938C290.815 2.16255 293.511 2.0822 296.206 1.86914L297.225 1.78711L298.245 1.71094C300.989 1.49406 303.734 1.40251 306.477 1.44727L308.516 1.48242C311.239 1.52682 313.962 1.58533 316.684 1.65234L318.724 1.69922C321.41 1.76534 324.099 1.65368 326.786 1.35938L328.825 1.13672C331.767 0.814864 334.204 1.70253 336.026 3.83203L336.641 4.55273L337.263 5.27344C339.041 7.35176 339.864 9.86364 339.759 12.7559L339.688 14.7949C339.588 17.534 339.382 20.2769 339.073 23.0156L338.956 24.0352L338.845 25.0547C338.541 27.7437 338.407 30.4093 338.446 33.0469L338.464 34.043L338.475 35.0449C338.497 36.4755 338.234 37.7322 337.632 38.7656C337.024 39.8083 336.099 40.5722 334.913 41.0625L334.128 41.3906L333.337 41.7129C331.151 42.6164 328.664 43.1975 325.884 43.459L323.845 43.6465C321.111 43.9037 318.376 44.0881 315.641 44.1914L314.622 44.2266L313.602 44.2676C310.872 44.3707 308.141 44.4129 305.411 44.4023H304.391L303.372 44.3965C300.648 44.3859 297.922 44.352 295.198 44.291L293.159 44.2441C290.419 44.1828 287.678 44.0108 284.938 43.7285L282.899 43.5176C280.207 43.2402 277.511 43.1187 274.819 43.1484L272.78 43.1719C270.092 43.2017 267.401 43.3955 264.712 43.7578L263.692 43.8926L262.673 44.0332C259.919 44.4041 257.165 44.5805 254.411 44.5664L253.391 44.5605H252.372C249.61 44.5464 246.847 44.2984 244.087 43.8223L242.048 43.4707C239.389 43.012 236.73 42.8921 234.073 43.1074L232.034 43.2715C229.286 43.4942 226.538 43.5585 223.79 43.4648L222.77 43.4297L221.745 43.3945C219.05 43.3027 216.354 43.3398 213.659 43.5059L212.64 43.5703L211.62 43.6289C208.892 43.797 206.163 43.9232 203.434 43.998L202.415 44.0215L201.395 44.0508C198.651 44.1261 195.902 44.0659 193.157 43.8691L192.138 43.7988L191.118 43.7227C188.418 43.5291 185.715 43.4408 183.015 43.4531H181.995L180.975 43.459C178.281 43.4713 175.585 43.6155 172.89 43.8926L170.85 44.1035C168.084 44.3879 165.314 44.4144 162.548 44.1797L160.509 44.0039C157.817 43.7756 155.126 43.7003 152.434 43.7695L151.415 43.793L150.395 43.8223C147.634 43.8934 144.871 43.7276 142.11 43.3359L141.091 43.1953L140.065 43.0488C137.425 42.6744 134.785 42.7245 132.143 43.1953L130.104 43.5586C127.327 44.0536 124.547 44.2088 121.766 44.0273L120.747 43.9629L119.727 43.8926C116.996 43.7142 114.261 43.472 111.53 43.1602L109.491 42.9258C106.805 42.619 104.114 42.4966 101.429 42.5566L99.3895 42.6035C96.6924 42.6638 93.9952 42.8427 91.2977 43.1426L89.2587 43.3652C86.5136 43.6704 83.7659 43.8363 81.0204 43.8574L80.0009 43.8633L78.9813 43.875C76.279 43.8957 73.5744 44.0045 70.8719 44.209L69.8524 44.291L68.8329 44.3672C66.09 44.5747 63.3436 44.6529 60.6005 44.6074L58.5614 44.5723C55.8487 44.5273 53.1355 44.5217 50.4227 44.5547L49.4032 44.5664L48.3837 44.584C45.6464 44.6173 42.906 44.5517 40.1688 44.3965L39.1493 44.3379L38.1298 44.2852C35.4072 44.1308 32.6843 43.9613 29.9618 43.7754L27.9227 43.6348C25.2216 43.4504 22.5202 43.3652 19.8192 43.377H18.7938L17.7743 43.3828C15.0562 43.3947 12.2893 43.4109 9.47742 43.4355L7.36804 43.459C5.84142 43.4722 4.53086 43.1094 3.51843 42.293C2.50555 41.4757 1.87948 40.2729 1.57898 38.7832L1.3739 37.752L1.16296 36.7266C0.603281 33.9486 0.270614 31.1785 0.16687 28.418L0.131714 27.3926L0.0906982 26.373C-0.0118696 23.6387 -0.0274244 20.9043 0.0438232 18.1699L0.0731201 17.1504L0.0965576 16.125C0.169549 13.3349 0.635389 10.6849 1.49695 8.17969L1.81335 7.26562L2.1239 6.35742C2.54811 5.12434 2.96625 4.13081 3.37195 3.39844C3.57476 3.03235 3.78286 2.71145 4.00476 2.45508C4.2228 2.20334 4.48359 1.97116 4.79578 1.83984L5.04773 1.74023L5.29382 1.63477C5.74213 1.44619 6.43862 1.32926 7.28601 1.24805C8.15982 1.16439 9.28661 1.11227 10.6552 1.08984L12.6942 1.05469C15.4485 1.00963 18.2024 1.15845 20.9559 1.5L21.9755 1.62305L22.995 1.75195C25.6276 2.07855 28.2623 1.94554 30.8993 1.35352L32.9384 0.896484C35.7598 0.262916 38.5881 0.228164 41.411 0.796875L42.4305 1.00781L43.4559 1.21289C46.1254 1.75079 48.7934 2.01061 51.4598 1.99805L53.4989 1.98633C56.2066 1.97347 58.9181 1.898 61.6259 1.75195L62.6454 1.69336L63.6649 1.64062C66.379 1.49424 69.0953 1.31668 71.8094 1.10742L72.829 1.03125L73.8485 0.949219C76.6118 0.736248 79.3765 0.765695 82.1395 1.03711L84.1786 1.23633C86.88 1.50168 89.581 1.67079 92.2821 1.73438L94.3212 1.78125C96.9912 1.8441 99.6646 1.63979 102.337 1.17188L103.356 0.996094L104.376 0.814453C107.173 0.324644 109.974 0.282985 112.772 0.685547L114.811 0.978516C117.482 1.36262 120.152 1.47136 122.821 1.3125L124.86 1.19531C127.612 1.03155 130.365 1.03682 133.116 1.21875L134.136 1.28906L135.155 1.35352C137.848 1.53155 140.543 1.56757 143.235 1.45312L144.255 1.40625L145.274 1.36523C147.975 1.2504 150.676 1.0356 153.378 0.720703L154.397 0.603516L155.417 0.480469C158.166 0.16004 160.918 -0.000992268 163.667 0L164.686 0.00585938ZM163.667 1.5C160.976 1.49903 158.284 1.66092 155.593 1.97461L153.554 2.20898C150.816 2.52811 148.077 2.74882 145.339 2.86523L144.319 2.90625L143.294 2.94727C140.548 3.06388 137.802 3.03509 135.056 2.85352L134.036 2.7832L133.016 2.71875C130.328 2.54096 127.637 2.52942 124.948 2.68945L123.929 2.75391L122.909 2.8125C120.139 2.97735 117.369 2.85906 114.6 2.46094L113.581 2.31445L112.556 2.16797C109.915 1.78845 107.275 1.82848 104.634 2.29102L103.614 2.47266L102.595 2.64844C99.8268 3.13309 97.056 3.34645 94.286 3.28125L93.2665 3.25781L92.2469 3.22852C89.5086 3.16405 86.7702 2.99943 84.0321 2.73047L81.993 2.53125C79.3165 2.26833 76.6361 2.23701 73.9598 2.44336L72.9403 2.52539L71.9208 2.60156C69.1961 2.81163 66.4716 2.99366 63.7469 3.14062L61.7079 3.24609C58.9764 3.39342 56.2422 3.47332 53.5106 3.48633L52.4911 3.49219L51.4657 3.49805C48.6949 3.51102 45.9248 3.24146 43.1571 2.68359L42.1376 2.47266L41.118 2.26758C38.5018 1.74019 35.8842 1.77351 33.2665 2.36133L31.2274 2.81836C28.4255 3.44734 25.6196 3.58829 22.8134 3.24023L21.7938 3.11133L20.7743 2.98828C18.0889 2.65513 15.4023 2.51072 12.7177 2.55469L10.6786 2.58984C9.3282 2.61197 8.24522 2.65788 7.42664 2.73633C6.58274 2.8172 6.09734 2.92639 5.87976 3.01758L5.62781 3.12305L5.37585 3.22266C5.35337 3.23257 5.27475 3.28558 5.14148 3.43945C5.00981 3.59163 4.85644 3.81456 4.68445 4.125C4.33953 4.74758 3.95947 5.64697 3.54773 6.84375L3.23132 7.75195L2.91492 8.66602C2.10547 11.0193 1.66565 13.5186 1.59656 16.166L1.57312 17.1855L1.54382 18.2051C1.47331 20.9092 1.48922 23.6162 1.5907 26.3203L1.63171 27.3398L1.66687 28.3594C1.76738 31.0372 2.08958 33.7266 2.63367 36.4277L2.8446 37.459L3.04968 38.4844C3.30142 39.7338 3.79239 40.5808 4.46179 41.1211C5.13195 41.6618 6.07008 41.9703 7.35632 41.959L9.4657 41.9355C12.2799 41.9109 15.0478 41.8947 17.7684 41.8828L18.788 41.877H19.8075C22.5449 41.865 25.285 41.9479 28.0223 42.1348L29.0419 42.2051L30.0673 42.2754C32.7835 42.4608 35.5015 42.6312 38.2177 42.7852L40.2567 42.9023C42.9592 43.0555 45.6636 43.1169 48.3661 43.084L49.3856 43.0664L50.4052 43.0547C53.1317 43.0215 55.8583 43.027 58.5848 43.0723L60.6239 43.1074C63.3205 43.1522 66.0189 43.0712 68.7157 42.8672L70.7548 42.7148C73.4916 42.5077 76.2326 42.396 78.9696 42.375L79.9891 42.3633L81.0087 42.3574C83.7018 42.3368 86.3951 42.1764 89.0887 41.877L90.1083 41.7656L91.1278 41.6484C93.8689 41.3437 96.6129 41.1648 99.3544 41.1035L100.374 41.0801L101.399 41.0566C104.153 40.9953 106.908 41.1232 109.661 41.4375L110.681 41.5488L111.7 41.666C114.407 41.9751 117.114 42.2216 119.821 42.3984L120.841 42.4629L121.86 42.5332C124.519 42.7069 127.18 42.5562 129.841 42.082L131.88 41.7188C134.677 41.2202 137.478 41.1694 140.276 41.5664L141.302 41.707L142.321 41.8535C144.999 42.2335 147.677 42.3912 150.354 42.3223L151.374 42.293L152.393 42.2695C155.141 42.1988 157.89 42.2767 160.638 42.5098L162.677 42.6855C165.35 42.9123 168.025 42.8843 170.698 42.6094L171.718 42.5098L172.737 42.4043C175.481 42.1222 178.225 41.9715 180.97 41.959L181.989 41.9531H183.009C185.748 41.9407 188.49 42.0321 191.229 42.2285L192.249 42.2988L193.268 42.375C195.963 42.5682 198.66 42.6247 201.354 42.5508L202.374 42.5215L203.393 42.498C206.104 42.4236 208.815 42.3018 211.526 42.1348L213.565 42.0059C216.309 41.8368 219.054 41.801 221.798 41.8945L223.837 41.9648C226.527 42.0566 229.22 41.9953 231.911 41.7773L232.931 41.6953L233.95 41.6074C236.733 41.3819 239.519 41.5143 242.3 41.9941L244.339 42.3457C247.018 42.8081 249.7 43.0468 252.378 43.0605H253.397L254.417 43.0664C257.102 43.0802 259.788 42.9068 262.474 42.5449L263.493 42.4102L264.513 42.2695C267.262 41.8991 270.012 41.7024 272.763 41.6719L273.788 41.6602L274.807 41.6484C277.555 41.6182 280.304 41.7462 283.052 42.0293L284.071 42.1289L285.091 42.2344C287.79 42.5126 290.489 42.6837 293.188 42.7441L295.227 42.791C297.943 42.8518 300.662 42.8859 303.378 42.8965L304.397 42.9023H305.417C308.126 42.9129 310.835 42.8699 313.544 42.7676L314.563 42.7266L315.583 42.6914C318.289 42.5892 320.998 42.4069 323.704 42.1523L325.743 41.9648C328.402 41.7147 330.739 41.166 332.763 40.3301L334.345 39.6738C335.262 39.2942 335.913 38.7366 336.337 38.0098C336.766 37.2736 336.994 36.3064 336.975 35.0684L336.964 34.0664L336.946 33.0645C336.906 30.3622 337.04 27.6349 337.35 24.8848L337.585 22.8457C337.89 20.1446 338.09 17.443 338.188 14.7422L338.224 13.7227L338.265 12.7031C338.358 10.156 337.635 8.02204 336.12 6.25195L335.505 5.53125L334.884 4.81055C333.413 3.09229 331.485 2.35232 328.989 2.625L327.964 2.73633L326.944 2.84766C324.192 3.14897 321.441 3.26689 318.688 3.19922L316.649 3.15234C313.931 3.08544 311.211 3.02676 308.493 2.98242L306.454 2.94727C303.758 2.90329 301.059 2.99194 298.362 3.20508L297.343 3.28125L296.323 3.36328C293.579 3.58016 290.835 3.66351 288.091 3.60938L287.071 3.58594L286.052 3.56836C283.309 3.51423 280.562 3.33543 277.819 3.0293L276.8 2.91211L275.78 2.80078C273.103 2.502 270.424 2.4325 267.747 2.58984L265.708 2.70703C262.958 2.86862 260.208 2.86496 257.458 2.69531L256.438 2.63086L255.419 2.57227C252.697 2.40434 249.973 2.22633 247.251 2.03906L245.212 1.89844C242.539 1.71461 239.864 1.77864 237.19 2.0918L236.171 2.20898L235.151 2.33203C232.396 2.65466 229.639 2.77993 226.884 2.70703L224.845 2.64844C222.155 2.57731 219.466 2.66971 216.776 2.92383L215.757 3.02344L214.737 3.11719C211.981 3.37765 209.22 3.43742 206.464 3.29297L204.425 3.1875C201.736 3.04664 199.045 3.0666 196.356 3.25781L195.337 3.33398L194.317 3.4043C191.533 3.60223 188.749 3.44158 185.968 2.92383L183.929 2.54883C181.246 2.04955 178.564 1.759 175.884 1.68164L173.845 1.62305C171.132 1.54479 168.418 1.50685 165.706 1.50586H164.686L163.667 1.5Z" fill="#F8AD00"/>
</svg>
