<svg width="430" height="932" viewBox="0 0 430 932" fill="none" xmlns="http://www.w3.org/2000/svg">
<rect width="430" height="932" fill="url(#paint0_linear_2_4)"/>
<path d="M309.276 380.959C309.276 380.959 307.8 393.216 299.282 401.087C290.764 408.958 278.429 409.463 278.429 409.463C278.429 409.463 279.905 397.207 288.424 389.336C296.942 381.465 309.276 380.959 309.276 380.959Z" fill="#97E65E"/>
<g filter="url(#filter0_i_2_4)">
<path d="M207.316 371.918C207.307 369.166 209.799 368.006 211.591 368C213.383 367.994 215.883 369.138 215.892 371.89L215.988 400.241C215.997 402.993 213.505 404.154 211.713 404.16C209.921 404.166 207.421 403.022 207.412 400.27L207.371 388.302L197.899 388.334L197.916 393.326C197.926 396.334 197.163 397.681 194.863 398.777C192.434 399.937 187.893 400.72 182.261 400.739C176.629 400.758 172.083 400.005 169.775 398.925C167.339 397.781 166.566 396.44 166.556 393.432L166.495 375.256C166.487 372.76 168.529 371.217 171.281 371.208L193.041 371.135C195.793 371.125 197.846 372.654 197.855 375.15L197.874 380.91L207.346 380.878L207.316 371.918ZM175 392.188C175.001 392.508 175.194 392.763 175.514 392.826C177.052 393.269 179.484 393.452 182.236 393.443C184.988 393.434 187.42 393.234 188.954 392.78C189.274 392.715 189.465 392.459 189.464 392.139L189.418 378.443L174.954 378.492L175 392.188ZM175.383 410.682C175.375 408.506 176.65 407.03 179.018 407.022L211.21 406.914C213.962 406.904 216.015 408.433 216.024 410.929L216.08 427.569C216.089 430.321 213.597 431.482 211.805 431.488C210.013 431.494 207.513 430.35 207.504 427.598L207.459 414.222L179.043 414.318C176.611 414.326 175.389 412.73 175.383 410.682Z" fill="url(#paint1_linear_2_4)"/>
<path d="M263.897 392.976C264.84 387.917 265.208 383.307 265.197 379.851L265.193 378.699L235.561 378.799C233.321 378.807 232.036 377.275 232.028 375.099C232.021 372.923 233.296 371.383 235.536 371.375L269.392 371.261C271.632 371.254 273.685 372.783 273.693 375.151C273.721 383.535 273.291 388.72 272.16 395.188C271.784 397.365 269.674 398.076 268.138 398.018C265.962 397.961 263.461 396.433 263.709 394.256L263.897 392.976ZM224.703 404.372C224.697 402.516 226.099 400.655 228.339 400.648C228.659 400.647 229.107 400.709 229.491 400.836C236.858 402.731 244.861 403.6 253.373 403.571C261.948 403.542 269.881 402.62 277.235 400.675C277.618 400.546 278.066 400.544 278.386 400.543C280.626 400.535 282.04 402.323 282.047 404.179C282.052 405.715 281.161 407.254 278.987 407.837C272.593 409.651 265.364 410.635 257.685 410.917L257.742 427.621C257.75 430.181 255.643 431.468 253.467 431.475C251.355 431.482 249.174 430.21 249.166 427.65L249.109 410.946C241.429 410.716 234.193 409.78 227.787 408.01C225.609 407.441 224.708 405.908 224.703 404.372Z" fill="url(#paint2_linear_2_4)"/>
<path d="M204.608 441.928C204.599 439.176 207.091 438.016 208.883 438.01C210.675 438.004 213.175 439.147 213.184 441.899L213.21 449.707L218.522 449.689C220.826 449.681 222.111 451.213 222.119 453.389C222.126 455.565 220.851 457.105 218.547 457.113L213.235 457.131L213.265 465.771C213.274 468.523 210.782 469.683 208.99 469.689C207.198 469.695 204.698 468.552 204.689 465.8L204.608 441.928ZM164.622 465.039C164.617 463.567 165.508 462.22 167.042 461.447C171.258 459.257 174.576 456.301 176.739 452.326C177.948 450.146 178.195 447.585 178.189 445.665L178.182 443.873C178.173 441.121 180.665 439.961 182.457 439.955C184.249 439.949 186.749 441.092 186.758 443.844L186.764 445.444C186.771 447.492 187.036 450.179 188.13 452.16C190.32 456.12 193.593 458.733 197.311 460.705C198.85 461.532 199.814 462.68 199.819 464.152C199.827 466.52 198.104 468.126 195.672 468.006C194.904 467.945 194.071 467.756 193.43 467.438C189.52 465.531 185.219 461.833 182.516 457.427C179.779 461.852 175.824 465.641 171.48 467.96C170.713 468.346 169.69 468.606 168.538 468.61C166.298 468.617 164.629 467.151 164.622 465.039ZM172.212 476.213C172.205 474.421 173.415 472.625 175.847 472.617L208.487 472.507C211.239 472.498 213.292 474.027 213.301 476.523L213.333 486.187C213.342 488.619 211.426 490.033 208.93 490.042L181.539 490.134L181.553 494.358L211.313 494.258C213.745 494.249 214.967 496.037 214.973 497.829C214.979 499.621 213.769 501.417 211.337 501.426L177.801 501.539C175.049 501.548 172.996 500.019 172.987 497.523L172.955 487.795C172.946 485.299 174.989 483.756 177.741 483.747L204.749 483.656L204.735 479.688L175.872 479.785C173.44 479.793 172.218 478.005 172.212 476.213Z" fill="url(#paint3_linear_2_4)"/>
<path d="M264.133 462.975C265.076 457.916 265.444 453.307 265.433 449.851L265.429 448.699L235.797 448.799C233.557 448.806 232.272 447.275 232.264 445.099C232.257 442.923 233.532 441.382 235.772 441.375L269.628 441.261C271.868 441.253 273.921 442.782 273.929 445.15C273.957 453.534 273.527 458.72 272.396 465.188C272.02 467.365 269.91 468.076 268.374 468.017C266.198 467.96 263.697 466.433 263.945 464.256L264.133 462.975ZM224.939 474.372C224.933 472.516 226.335 470.655 228.575 470.647C228.895 470.646 229.343 470.709 229.727 470.835C237.094 472.731 245.097 473.6 253.609 473.571C262.185 473.542 270.117 472.619 277.471 470.674C277.854 470.545 278.302 470.544 278.622 470.543C280.862 470.535 282.277 472.322 282.283 474.178C282.288 475.714 281.397 477.253 279.223 477.837C272.829 479.65 265.6 480.635 257.921 480.916L257.978 497.62C257.986 500.18 255.879 501.467 253.703 501.475C251.591 501.482 249.41 500.209 249.402 497.649L249.345 480.945C241.665 480.715 234.429 479.78 228.023 478.009C225.845 477.441 224.944 475.908 224.939 474.372Z" fill="url(#paint4_linear_2_4)"/>
</g>
<path d="M119.434 528.135C119.434 528.135 108.683 532.261 98.4779 528.668C88.2728 525.075 82.4784 515.123 82.4784 515.123C82.4784 515.123 93.2298 510.997 103.435 514.59C113.64 518.183 119.434 528.135 119.434 528.135Z" fill="#97E65E"/>
<g filter="url(#filter1_i_2_4)">
<path d="M192.787 529.876C188.672 536.71 182.935 542.423 176.084 546.51C169.234 550.597 161.481 552.932 153.512 553.307C145.544 553.682 137.606 552.086 130.402 548.661C123.197 545.235 116.949 540.086 112.21 533.669C107.471 527.252 104.388 519.765 103.234 511.872C102.079 503.978 102.89 495.922 105.592 488.417C108.295 480.911 112.807 474.189 118.729 468.843C124.651 463.498 131.799 459.696 139.541 457.774L151.231 504.852L192.787 529.876Z" fill="#FF8A04"/>
</g>
<g filter="url(#filter2_i_2_4)">
<path d="M187.146 526.611C183.6 532.499 178.657 537.422 172.755 540.943C166.852 544.465 160.172 546.476 153.306 546.8C146.44 547.123 139.601 545.748 133.393 542.796C127.186 539.845 121.802 535.408 117.719 529.879C113.636 524.35 110.979 517.899 109.984 511.098C108.99 504.297 109.688 497.355 112.017 490.888C114.346 484.422 118.233 478.629 123.336 474.023C128.438 469.418 134.597 466.142 141.268 464.486L151.341 505.05L187.146 526.611Z" fill="#FFB351"/>
</g>
<path d="M151.978 505.52C161.194 510.599 166.2 515.127 166.2 515.127C166.2 515.127 146.143 517.31 142.362 508.267C138.58 499.224 146.596 487.259 146.596 487.259C146.596 487.259 148.196 496.477 151.978 505.52Z" fill="#B37421"/>
<defs>
<filter id="filter0_i_2_4" x="164.622" y="368" width="120.661" height="136.539" filterUnits="userSpaceOnUse" color-interpolation-filters="sRGB">
<feFlood flood-opacity="0" result="BackgroundImageFix"/>
<feBlend mode="normal" in="SourceGraphic" in2="BackgroundImageFix" result="shape"/>
<feColorMatrix in="SourceAlpha" type="matrix" values="0 0 0 0 0 0 0 0 0 0 0 0 0 0 0 0 0 0 127 0" result="hardAlpha"/>
<feOffset dx="3" dy="3"/>
<feGaussianBlur stdDeviation="5"/>
<feComposite in2="hardAlpha" operator="arithmetic" k2="-1" k3="1"/>
<feColorMatrix type="matrix" values="0 0 0 0 0.532583 0 0 0 0 0.390561 0 0 0 0 0 0 0 0 0.25 0"/>
<feBlend mode="normal" in2="shape" result="effect1_innerShadow_2_4"/>
</filter>
<filter id="filter1_i_2_4" x="102.723" y="457.774" width="93.0639" height="98.5868" filterUnits="userSpaceOnUse" color-interpolation-filters="sRGB">
<feFlood flood-opacity="0" result="BackgroundImageFix"/>
<feBlend mode="normal" in="SourceGraphic" in2="BackgroundImageFix" result="shape"/>
<feColorMatrix in="SourceAlpha" type="matrix" values="0 0 0 0 0 0 0 0 0 0 0 0 0 0 0 0 0 0 127 0" result="hardAlpha"/>
<feOffset dx="3" dy="3"/>
<feGaussianBlur stdDeviation="5"/>
<feComposite in2="hardAlpha" operator="arithmetic" k2="-1" k3="1"/>
<feColorMatrix type="matrix" values="0 0 0 0 0.532583 0 0 0 0 0.390561 0 0 0 0 0 0 0 0 0.25 0"/>
<feBlend mode="normal" in2="shape" result="effect1_innerShadow_2_4"/>
</filter>
<filter id="filter2_i_2_4" x="109.545" y="464.486" width="80.6016" height="85.3602" filterUnits="userSpaceOnUse" color-interpolation-filters="sRGB">
<feFlood flood-opacity="0" result="BackgroundImageFix"/>
<feBlend mode="normal" in="SourceGraphic" in2="BackgroundImageFix" result="shape"/>
<feColorMatrix in="SourceAlpha" type="matrix" values="0 0 0 0 0 0 0 0 0 0 0 0 0 0 0 0 0 0 127 0" result="hardAlpha"/>
<feOffset dx="3" dy="3"/>
<feGaussianBlur stdDeviation="5"/>
<feComposite in2="hardAlpha" operator="arithmetic" k2="-1" k3="1"/>
<feColorMatrix type="matrix" values="0 0 0 0 1 0 0 0 0 0.580688 0 0 0 0 0.032358 0 0 0 0.7 0"/>
<feBlend mode="normal" in2="shape" result="effect1_innerShadow_2_4"/>
</filter>
<linearGradient id="paint0_linear_2_4" x1="215" y1="0" x2="215" y2="932" gradientUnits="userSpaceOnUse">
<stop stop-color="#FFF1D1"/>
<stop offset="1" stop-color="#FFDC8A"/>
</linearGradient>
<linearGradient id="paint1_linear_2_4" x1="161.401" y1="477.466" x2="266.913" y2="363.264" gradientUnits="userSpaceOnUse">
<stop stop-color="#FF8A04"/>
<stop offset="0.985577" stop-color="#FFB300"/>
</linearGradient>
<linearGradient id="paint2_linear_2_4" x1="161.401" y1="477.466" x2="266.913" y2="363.264" gradientUnits="userSpaceOnUse">
<stop stop-color="#FF8A04"/>
<stop offset="0.985577" stop-color="#FFB300"/>
</linearGradient>
<linearGradient id="paint3_linear_2_4" x1="161.401" y1="477.466" x2="266.913" y2="363.264" gradientUnits="userSpaceOnUse">
<stop stop-color="#FF8A04"/>
<stop offset="0.985577" stop-color="#FFB300"/>
</linearGradient>
<linearGradient id="paint4_linear_2_4" x1="161.401" y1="477.466" x2="266.913" y2="363.264" gradientUnits="userSpaceOnUse">
<stop stop-color="#FF8A04"/>
<stop offset="0.985577" stop-color="#FFB300"/>
</linearGradient>
</defs>
</svg>
