<svg width="141" height="147" viewBox="0 0 141 147" fill="none" xmlns="http://www.w3.org/2000/svg">
<path d="M23.0616 123.036L25.3353 107.979L103.759 119.821L101.485 134.878L23.0616 123.036Z" fill="#FFDC8B" stroke="#858585"/>
<path d="M24.8258 115.602L26.3416 105.564L105.393 117.501L103.877 127.539L24.8258 115.602Z" fill="#97E65E" stroke="#858585"/>
<path d="M108.045 99.934L27.2428 82.5989C27.2428 82.5989 27.9895 74.5392 26.628 69.6721C24.5978 62.4146 17.9336 61.0251 15.5371 53.8801C12.8292 45.8067 11.9123 39.7404 15.6212 32.0752C18.6219 25.8737 22.0939 22.7219 28.3711 19.8832C32.0186 18.2336 34.3513 17.7202 38.3504 17.5399C43.5545 17.3053 51.4308 20.1568 51.4308 20.1568C51.4308 20.1568 58.2412 13.8773 63.6122 11.7291C70.9239 8.80473 76.3334 7.55655 83.7244 10.2743C89.0328 12.2262 95.2301 19.0703 95.2301 19.0703L100.995 27.6411C100.995 27.6411 108.174 26.414 112.572 27.4642C117.763 28.7039 120.264 30.9579 124.362 34.3781C130.28 39.3182 131.257 42.2684 132.943 49.7912C134.792 58.0441 135.535 62.3748 130.977 71.3119C127.634 77.8658 113.018 84.0008 113.018 84.0008L108.045 99.934Z" fill="white" stroke="#858585"/>
<path d="M24.1066 105.056L20.2223 130.779L99.2734 142.716C102.313 125.422 109.296 89.9423 112.914 86.3818M101.621 84.6765C112.862 85.3045 135.202 79.8653 134.626 53.0838" stroke="#858585" stroke-width="1.8" stroke-linecap="round" stroke-linejoin="round"/>
<path d="M25.6685 111.709L87.1527 120.994" stroke="#858585" stroke-width="1.8" stroke-linecap="round" stroke-linejoin="round"/>
<path d="M39.4943 122.139L99.0963 131.139" stroke="#858585" stroke-width="1.8" stroke-linecap="round" stroke-linejoin="round"/>
<path d="M24.9948 94.9235L26.7001 83.6305M26.7001 83.6305L105.905 98.7992M26.7001 83.6305L26.4076 69.639" stroke="#858585" stroke-width="1.8" stroke-linecap="round" stroke-linejoin="round"/>
<path d="M35.3068 73.3793C24.6215 70.4824 9.61234 56.7 15.4218 35.0834C20.1842 17.3634 39.3258 13.8369 47.5408 18.9275" stroke="#858585" stroke-width="1.8" stroke-linecap="round" stroke-linejoin="round"/>
<path d="M47.7385 33.5468C46.8746 29.3523 50.4608 15.5187 59.2104 12.8198" stroke="#858585" stroke-width="1.8" stroke-linecap="round" stroke-linejoin="round"/>
<path d="M67.9352 10.2866C79.264 7.50543 102.165 9.68018 103.138 40.6285" stroke="#858585" stroke-width="1.8" stroke-linecap="round" stroke-linejoin="round"/>
<path d="M131.314 46.3369C132.331 39.6018 120.105 22.8267 102.429 28.3296" stroke="#858585" stroke-width="1.8" stroke-linecap="round" stroke-linejoin="round"/>
<path d="M47.7009 72.0426L50.4463 87.8578" stroke="#858585" stroke-width="1.8" stroke-linecap="round" stroke-linejoin="round"/>
<path d="M70.607 69.0845L67.2912 91.0431" stroke="#858585" stroke-width="1.8" stroke-linecap="round" stroke-linejoin="round"/>
<path d="M91.1801 77.3248L84.2685 94.4185" stroke="#858585" stroke-width="1.8" stroke-linecap="round" stroke-linejoin="round"/>
</svg>
