<svg width="361" height="153" viewBox="0 0 361 153" fill="none" xmlns="http://www.w3.org/2000/svg">
<path d="M1.92029 19.3149C1.92029 9.9261 9.53145 2.31494 18.9203 2.31494H341.92C351.309 2.31494 358.92 9.9261 358.92 19.3149V133.315C358.92 142.704 351.309 150.315 341.92 150.315H18.9203C9.53145 150.315 1.92029 142.704 1.92029 133.315V19.3149Z" fill="#FFF1F1"/>
<path d="M37.9603 2.32578L37.8401 3.31853L37.9603 2.32578ZM52.9203 2.55425L52.8093 1.56043L52.9203 2.55425ZM81.4803 1.89391L81.3912 2.88993L81.4803 1.89391ZM105.96 1.9852L106.043 2.98181L105.96 1.9852ZM107.32 1.87287L107.238 0.876264L107.32 1.87287ZM119.56 1.4876L119.593 0.488125L119.56 1.4876ZM120.92 1.5317L120.888 2.53117L120.92 1.5317ZM133.16 2.49262L133.295 1.50175L133.16 2.49262ZM135.88 2.86283L135.745 3.8537L135.88 2.86283ZM149.48 2.06089L149.666 3.04349L149.48 2.06089ZM173.96 1.45178L173.885 0.454596L173.96 1.45178ZM190.28 1.98344L190.141 2.97373L190.28 1.98344ZM201.16 2.54187L201.123 1.54258L201.16 2.54187ZM214.76 2.03238L214.723 1.03306L214.76 2.03238ZM216.12 1.98198L216.157 2.98129L216.12 1.98198ZM217.48 1.93158L217.443 0.932268L217.48 1.93158ZM228.36 1.34134L228.289 0.343883L228.36 1.34134ZM241.96 1.86509L241.761 2.84501L241.96 1.86509ZM243.32 2.14177L243.52 1.16184L243.32 2.14177ZM244.68 2.41844L244.481 3.39837L244.68 2.41844ZM255.56 2.42666L255.758 3.40687L255.56 2.42666ZM256.92 2.15203L256.722 1.17182L256.92 2.15203ZM269.16 1.36886L269.052 2.36303L269.16 1.36886ZM271.88 1.66384L271.772 2.65801L271.88 1.66384ZM282.76 1.91579L282.698 0.917714L282.76 1.91579ZM296.36 2.30465L296.198 3.29135L296.36 2.30465ZM297.72 2.52861L297.883 1.5419L297.72 2.52861ZM309.96 2.48703L309.751 1.50907L309.96 2.48703ZM312.68 1.90631L312.889 2.88427L312.68 1.90631ZM323.56 1.07176L323.5 2.06996L323.56 1.07176ZM337.185 1.83413L337.135 2.8329L337.185 1.83413ZM349.947 5.25011L350.497 4.41503L349.947 5.25011ZM352.23 6.75406L352.78 5.91897L352.23 6.75406ZM357.139 15.1413L358.137 15.0777L357.139 15.1413ZM357.224 16.4862L356.227 16.5498L357.224 16.4862ZM357.31 17.831L358.308 17.7674L357.31 17.831ZM358.225 28.6504L359.219 28.5458L358.225 28.6504ZM358.368 30.0104L357.373 30.1149L358.368 30.0104ZM358.511 31.3704L359.505 31.2658L358.511 31.3704ZM359.131 42.2504L358.131 42.2591L359.131 42.2504ZM359.143 43.6104L360.143 43.6016L359.143 43.6104ZM359.155 44.9704L358.155 44.9791L359.155 44.9704ZM358.494 55.8504L357.502 55.7212L358.494 55.8504ZM358.14 58.5704L359.131 58.6995L358.14 58.5704ZM358.372 69.4504L359.357 69.28L358.372 69.4504ZM358.607 70.8103L357.621 70.9807L358.607 70.8103ZM358.842 72.1703L359.827 72L358.842 72.1703ZM359.476 83.0504L360.474 83.1066L359.476 83.0504ZM359.399 84.4104L358.401 84.3541L359.399 84.4104ZM359.323 85.7704L358.324 85.7141L359.323 85.7704ZM358.569 98.0104L357.572 97.9448L358.569 98.0104ZM358.48 99.3704L359.478 99.4359L358.48 99.3704ZM358.629 110.25L357.633 110.343L358.629 110.25ZM358.755 111.61L359.751 111.518L358.755 111.61ZM358.882 112.97L357.886 113.063L358.882 112.97ZM359.43 123.85L358.43 123.858L359.43 123.85ZM359.451 126.57L360.451 126.563L359.451 126.57ZM357.098 136.622L357.985 137.083L357.098 136.622ZM356.499 137.775L357.386 138.236L356.499 137.775ZM355.9 138.928L355.012 138.467L355.9 138.928ZM349.218 146.755L348.618 145.955L349.218 146.755ZM348.147 147.558L348.747 148.358L348.147 147.558ZM347.075 148.362L346.475 147.562L347.075 148.362ZM337.326 150.554L337.142 151.537L337.326 150.554ZM323.689 149.181L323.66 148.181L323.689 149.181ZM320.969 149.261L320.999 150.261L320.969 149.261ZM310.089 150.377L309.917 149.392L310.089 150.377ZM308.729 150.615L308.902 151.6L308.729 150.615ZM307.369 150.854L307.197 149.869L307.369 150.854ZM296.489 151.786L296.485 152.786L296.489 151.786ZM293.769 151.775L293.774 150.775L293.769 151.775ZM282.889 150.839L282.724 151.825L282.889 150.839ZM281.529 150.61L281.695 149.624L281.529 150.61ZM280.169 150.382L280.004 151.368L280.169 150.382ZM269.289 149.82L269.225 148.822L269.289 149.82ZM266.569 149.996L266.634 150.994L266.569 149.996ZM255.689 150.382L255.696 151.382L255.689 150.382ZM252.969 150.398L252.963 149.399L252.969 150.398ZM242.089 150.261L242.121 149.262L242.089 150.261ZM240.729 150.219L240.698 151.218L240.729 150.219ZM239.369 150.176L239.401 149.177L239.369 150.176ZM228.489 149.875L228.514 148.875L228.489 149.875ZM225.769 149.809L225.745 150.809L225.769 149.809ZM214.889 149.466L214.928 148.467L214.889 149.466ZM213.529 149.414L213.491 150.413L213.529 149.414ZM212.169 149.361L212.208 148.361L212.169 149.361ZM201.289 149.984L201.138 148.995L201.289 149.984ZM198.569 150.401L198.721 151.389L198.569 150.401ZM187.689 150.928L187.746 149.93L187.689 150.928ZM186.329 150.852L186.273 151.85L186.329 150.852ZM184.969 150.775L185.026 149.777L184.969 150.775ZM174.089 150.975L174.182 151.97L174.089 150.975ZM172.729 151.101L172.637 150.106L172.729 151.101ZM171.369 151.228L171.462 152.224L171.369 151.228ZM160.489 151.016L160.359 152.007L160.489 151.016ZM157.769 150.657L157.9 149.665L157.769 150.657ZM146.889 150.116L146.922 151.116L146.889 150.116ZM144.169 150.205L144.137 149.206L144.169 150.205ZM133.289 150.395L133.287 149.395L133.289 150.395ZM119.689 150.72L119.633 149.722L119.689 150.72ZM118.329 150.797L118.273 149.799L118.329 150.797ZM116.969 150.874L116.913 149.875L116.969 150.874ZM103.369 150.998L103.347 151.998L103.369 150.998ZM92.4895 150.747L92.5132 149.747L92.4895 150.747ZM91.1295 150.715L91.1058 151.714L91.1295 150.715ZM89.7695 150.682L89.7458 151.682L89.7695 150.682ZM78.8895 150.479L78.9031 149.479L78.8895 150.479ZM77.5295 150.461L77.5158 151.461L77.5295 150.461ZM76.1695 150.442L76.1831 149.442L76.1695 150.442ZM65.2895 150.585L65.2496 149.586L65.2895 150.585ZM62.5695 150.694L62.5296 149.695L62.5695 150.694ZM51.6895 151.116L51.6518 150.117L51.6895 151.116ZM50.3295 151.167L50.3671 152.166L50.3295 151.167ZM48.9695 151.218L48.9319 150.219L48.9695 151.218ZM38.0895 151.381L38.0972 150.381L38.0895 151.381ZM36.7295 151.371L36.7218 152.371L36.7295 151.371ZM35.3695 151.36L35.3772 150.36L35.3695 151.36ZM24.4503 151.121L24.4862 150.122L24.4503 151.121ZM23.0805 151.072L23.0445 152.072L23.0805 151.072ZM21.7106 151.023L21.6747 152.022L21.7106 151.023ZM12.1208 147.511L11.4931 148.29L12.1208 147.511ZM11.0931 146.683L11.7208 145.904L11.0931 146.683ZM10.0654 145.854L9.43773 146.632L10.0654 145.854ZM4.62525 137.615L3.65982 137.876L4.62525 137.615ZM1.66206 122.069L0.669032 122.187L1.66206 122.069ZM1.65486 94.8687L0.658162 94.7875L1.65486 94.8687ZM2.28761 83.9887L1.28821 83.9539L2.28761 83.9887ZM2.38223 81.2687L1.38283 81.2339L2.38223 81.2687ZM2.70595 69.0287L1.70614 69.0089L2.70595 69.0287ZM2.71202 26.8687L1.71213 26.8535L2.71202 26.8687ZM4.42294 16.719L3.47781 16.3923L4.42294 16.719ZM5.23695 14.3641L4.29182 14.0374L5.23695 14.3641ZM11.0297 6.63492L10.4427 5.82532L11.0297 6.63492ZM12.0708 5.88004L12.6578 6.68964L12.0708 5.88004ZM13.112 5.12517L12.525 4.31557L13.112 5.12517ZM17.9341 2.18937L17.8078 3.18136L17.9341 2.18937ZM25.7203 1.991L25.7679 2.98986L27.1279 2.92508L27.0803 1.92621L27.0327 0.927341L25.6727 0.99213L25.7203 1.991ZM27.0803 1.92621L27.1279 2.92508C30.6982 2.75499 34.2687 2.88608 37.8401 3.31853L37.9603 2.32578L38.0805 1.33304C34.3985 0.887183 30.7157 0.751886 27.0327 0.927341L27.0803 1.92621ZM37.9603 2.32578L37.8401 3.31853L39.2001 3.48321L39.3203 2.49047L39.4405 1.49772L38.0805 1.33304L37.9603 2.32578ZM39.3203 2.49047L39.2001 3.48321L40.5601 3.6479L40.6803 2.65515L40.8005 1.6624L39.4405 1.49772L39.3203 2.49047ZM40.6803 2.65515L40.5601 3.6479C44.2634 4.09634 47.9677 4.11373 51.6713 3.69999L51.5603 2.70617L51.4493 1.71235C47.8995 2.1089 44.3505 2.09227 40.8005 1.6624L40.6803 2.65515ZM51.5603 2.70617L51.6713 3.69999L53.0313 3.54806L52.9203 2.55425L52.8093 1.56043L51.4493 1.71235L51.5603 2.70617ZM52.9203 2.55425L53.0313 3.54806L54.3913 3.39614L54.2803 2.40232L54.1693 1.4085L52.8093 1.56043L52.9203 2.55425ZM54.2803 2.40232L54.3913 3.39614C57.9966 2.99339 61.6017 2.70846 65.2066 2.54132L65.1603 1.54239L65.114 0.543464C61.4656 0.712617 57.8173 1.00097 54.1693 1.4085L54.2803 2.40232ZM65.1603 1.54239L65.2066 2.54132L66.5666 2.47826L66.5203 1.47934L66.474 0.48041L65.114 0.543464L65.1603 1.54239ZM66.5203 1.47934L66.5666 2.47826L67.9266 2.41521L67.8803 1.41628L67.834 0.417355L66.474 0.48041L66.5203 1.47934ZM67.8803 1.41628L67.9266 2.41521C71.508 2.24916 75.0894 2.32629 78.6712 2.64665L78.7603 1.65063L78.8494 0.654602C75.1778 0.326213 71.5059 0.24711 67.834 0.417355L67.8803 1.41628ZM78.7603 1.65063L78.6712 2.64665L80.0312 2.76829L80.1203 1.77227L80.2094 0.776243L78.8494 0.654602L78.7603 1.65063ZM80.1203 1.77227L80.0312 2.76829L81.3912 2.88993L81.4803 1.89391L81.5694 0.897883L80.2094 0.776243L80.1203 1.77227ZM81.4803 1.89391L81.3912 2.88993C85.0461 3.21683 88.7011 3.38756 92.3563 3.40209L92.3603 2.4021L92.3643 1.4021C88.7661 1.3878 85.1679 1.21974 81.5694 0.897883L81.4803 1.89391ZM92.3603 2.4021L92.3563 3.40209L93.7163 3.40749L93.7203 2.4075L93.7243 1.40751L92.3643 1.4021L92.3603 2.4021ZM93.7203 2.4075L93.7163 3.40749L95.0763 3.4129L95.0803 2.41291L95.0843 1.41292L93.7243 1.40751L93.7203 2.4075ZM95.0803 2.41291L95.0763 3.4129C98.7319 3.42743 102.387 3.28373 106.043 2.98181L105.96 1.9852L105.878 0.988597C102.28 1.28579 98.682 1.42722 95.0843 1.41292L95.0803 2.41291ZM105.96 1.9852L106.043 2.98181L107.403 2.86948L107.32 1.87287L107.238 0.876264L105.878 0.988597L105.96 1.9852ZM107.32 1.87287L107.403 2.86948L108.763 2.75714L108.68 1.76054L108.598 0.763931L107.238 0.876264L107.32 1.87287ZM108.68 1.76054L108.763 2.75714C112.351 2.46073 115.94 2.37072 119.528 2.48707L119.56 1.4876L119.593 0.488125C115.928 0.369284 112.263 0.461234 108.598 0.763931L108.68 1.76054ZM119.56 1.4876L119.528 2.48707L120.888 2.53117L120.92 1.5317L120.953 0.532224L119.593 0.488125L119.56 1.4876ZM120.92 1.5317L120.888 2.53117L122.248 2.57527L122.28 1.5758L122.313 0.576323L120.953 0.532224L120.92 1.5317ZM122.28 1.5758L122.248 2.57527C125.84 2.69175 129.432 2.99445 133.025 3.48348L133.16 2.49262L133.295 1.50175C129.635 1.00355 125.974 0.695041 122.313 0.576323L122.28 1.5758ZM133.16 2.49262L133.025 3.48348L134.385 3.66859L134.52 2.67772L134.655 1.68686L133.295 1.50175L133.16 2.49262ZM134.52 2.67772L134.385 3.66859L135.745 3.8537L135.88 2.86283L136.015 1.87197L134.655 1.68686L134.52 2.67772ZM135.88 2.86283L135.745 3.8537C139.48 4.36195 143.215 4.26292 146.946 3.55761L146.76 2.57501L146.575 1.59241C143.053 2.25809 139.534 2.35095 136.015 1.87197L135.88 2.86283ZM146.76 2.57501L146.946 3.55761L148.306 3.30055L148.12 2.31795L147.935 1.33535L146.575 1.59241L146.76 2.57501ZM148.12 2.31795L148.306 3.30055L149.666 3.04349L149.48 2.06089L149.295 1.07828L147.935 1.33535L148.12 2.31795ZM149.48 2.06089L149.666 3.04349C153.213 2.3731 156.757 2.14635 160.299 2.36214L160.36 1.36399L160.421 0.365844C156.711 0.139836 153.001 0.37768 149.295 1.07828L149.48 2.06089ZM160.36 1.36399L160.299 2.36214L161.66 2.44498L161.72 1.44683L161.781 0.448683L160.421 0.365844L160.36 1.36399ZM161.72 1.44683L161.66 2.44498L163.02 2.52782L163.08 1.52967L163.141 0.531522L161.781 0.448683L161.72 1.44683ZM163.08 1.52967L163.02 2.52782C166.691 2.75148 170.363 2.72519 174.035 2.44896L173.96 1.45178L173.885 0.454596C170.304 0.724033 166.722 0.749668 163.141 0.531522L163.08 1.52967ZM173.96 1.45178L174.035 2.44896L175.395 2.34665L175.32 1.34947L175.245 0.352283L173.885 0.454596L173.96 1.45178ZM175.32 1.34947L175.395 2.34665L176.755 2.24434L176.68 1.24715L176.605 0.249971L175.245 0.352283L175.32 1.34947ZM176.68 1.24715L176.755 2.24434C180.31 1.97691 183.865 2.09264 187.421 2.59188L187.56 1.60159L187.699 0.611304C184.002 0.0922942 180.304 -0.0282707 176.605 0.249971L176.68 1.24715ZM187.56 1.60159L187.421 2.59188L188.781 2.78281L188.92 1.79252L189.059 0.802227L187.699 0.611304L187.56 1.60159ZM188.92 1.79252L188.781 2.78281L190.141 2.97373L190.28 1.98344L190.419 0.99315L189.059 0.802227L188.92 1.79252ZM190.28 1.98344L190.141 2.97373C193.826 3.491 197.512 3.68025 201.198 3.54116L201.16 2.54187L201.123 1.54258C197.556 1.67717 193.988 1.49414 190.419 0.99315L190.28 1.98344ZM201.16 2.54187L201.198 3.54116L202.558 3.48984L202.52 2.49055L202.483 1.49126L201.123 1.54258L201.16 2.54187ZM202.52 2.49055L202.558 3.48984L203.918 3.43852L203.88 2.43924L203.843 1.43995L202.483 1.49126L202.52 2.49055ZM203.88 2.43924L203.918 3.43852C207.544 3.30169 211.171 3.16608 214.797 3.03169L214.76 2.03238L214.723 1.03306C211.096 1.16747 207.469 1.3031 203.843 1.43995L203.88 2.43924ZM214.76 2.03238L214.797 3.03169L216.157 2.98129L216.12 1.98198L216.083 0.982666L214.723 1.03306L214.76 2.03238ZM216.12 1.98198L216.157 2.98129L217.517 2.9309L217.48 1.93158L217.443 0.932268L216.083 0.982666L216.12 1.98198ZM217.48 1.93158L217.517 2.9309C221.155 2.79608 224.794 2.59871 228.432 2.3388L228.36 1.34134L228.289 0.343883C224.674 0.602168 221.058 0.798295 217.443 0.932268L217.48 1.93158ZM228.36 1.34134L228.432 2.3388L229.792 2.24164L229.72 1.24418L229.649 0.246721L228.289 0.343883L228.36 1.34134ZM229.72 1.24418L229.792 2.24164L231.152 2.14447L231.08 1.14702L231.009 0.149559L229.649 0.246721L229.72 1.24418ZM231.08 1.14702L231.152 2.14447C234.686 1.89196 238.222 2.12498 241.761 2.84501L241.96 1.86509L242.16 0.88516C238.446 0.129571 234.728 -0.116126 231.009 0.149559L231.08 1.14702ZM241.96 1.86509L241.761 2.84501L243.121 3.12169L243.32 2.14177L243.52 1.16184L242.16 0.88516L241.96 1.86509ZM243.32 2.14177L243.121 3.12169L244.481 3.39837L244.68 2.41844L244.88 1.43852L243.52 1.16184L243.32 2.14177ZM244.68 2.41844L244.481 3.39837C248.239 4.16284 252 4.16569 255.758 3.40687L255.56 2.42666L255.362 1.44644C251.867 2.15229 248.375 2.14967 244.88 1.43852L244.68 2.41844ZM255.56 2.42666L255.758 3.40687L257.118 3.13225L256.92 2.15203L256.722 1.17182L255.362 1.44644L255.56 2.42666ZM256.92 2.15203L257.118 3.13225L258.478 2.85762L258.28 1.87741L258.082 0.89719L256.722 1.17182L256.92 2.15203ZM258.28 1.87741L258.478 2.85762C262.006 2.14531 265.529 1.98095 269.052 2.36303L269.16 1.36886L269.268 0.374691C265.538 -0.0298393 261.808 0.144835 258.082 0.89719L258.28 1.87741ZM269.16 1.36886L269.052 2.36303L270.412 2.51052L270.52 1.51635L270.628 0.522181L269.268 0.374691L269.16 1.36886ZM270.52 1.51635L270.412 2.51052L271.772 2.65801L271.88 1.66384L271.988 0.66967L270.628 0.522181L270.52 1.51635ZM271.88 1.66384L271.772 2.65801C275.455 3.05741 279.139 3.14274 282.822 2.91386L282.76 1.91579L282.698 0.917714C279.128 1.13952 275.559 1.05688 271.988 0.66967L271.88 1.66384ZM282.76 1.91579L282.822 2.91386L284.182 2.82936L284.12 1.83129L284.058 0.833211L282.698 0.917714L282.76 1.91579ZM284.12 1.83129L284.182 2.82936L285.542 2.74486L285.48 1.74678L285.418 0.748708L284.058 0.833211L284.12 1.83129ZM285.48 1.74678L285.542 2.74486C289.093 2.52423 292.644 2.70618 296.198 3.29135L296.36 2.30465L296.523 1.31794C292.823 0.708614 289.121 0.518652 285.418 0.748708L285.48 1.74678ZM296.36 2.30465L296.198 3.29135L297.558 3.51532L297.72 2.52861L297.883 1.5419L296.523 1.31794L296.36 2.30465ZM297.72 2.52861L297.558 3.51532L298.918 3.73929L299.08 2.75258L299.243 1.76587L297.883 1.5419L297.72 2.52861ZM299.08 2.75258L298.918 3.73929C302.669 4.35702 306.421 4.26511 310.169 3.46499L309.96 2.48703L309.751 1.50907C306.246 2.25752 302.745 2.34264 299.243 1.76587L299.08 2.75258ZM309.96 2.48703L310.169 3.46499L311.529 3.17463L311.32 2.19667L311.112 1.21871L309.751 1.50907L309.96 2.48703ZM311.32 2.19667L311.529 3.17463L312.889 2.88427L312.68 1.90631L312.471 0.928352L311.112 1.21871L311.32 2.19667ZM312.68 1.90631L312.889 2.88427C316.429 2.12844 319.966 1.85757 323.5 2.06996L323.56 1.07176L323.62 0.0735612C319.902 -0.149883 316.185 0.135614 312.471 0.928352L312.68 1.90631ZM323.56 1.07176L323.5 2.06996L324.86 2.15168L324.92 1.15348L324.98 0.155281L323.62 0.0735612L323.56 1.07176ZM324.92 1.15348L324.86 2.15168L326.22 2.2334L326.28 1.2352L326.34 0.237L324.98 0.155281L324.92 1.15348ZM326.28 1.2352L326.22 2.2334C329.85 2.45152 333.489 2.65136 337.135 2.8329L337.185 1.83413L337.234 0.835371C333.595 0.65417 329.964 0.454713 326.34 0.237L326.28 1.2352ZM337.185 1.83413L337.135 2.8329L338.501 2.90091L338.551 1.90215L338.6 0.903385L337.234 0.835371L337.185 1.83413ZM338.551 1.90215L338.501 2.90091L339.867 2.96892L339.917 1.97016L339.966 0.971399L338.6 0.903385L338.551 1.90215ZM339.917 1.97016L339.867 2.96892C343.331 3.14142 346.502 4.17827 349.397 6.0852L349.947 5.25011L350.497 4.41503C347.304 2.31143 343.788 1.16165 339.966 0.971399L339.917 1.97016ZM349.947 5.25011L349.397 6.0852L350.538 6.83717L351.088 6.00209L351.639 5.167L350.497 4.41503L349.947 5.25011ZM351.088 6.00209L350.538 6.83717L351.68 7.58915L352.23 6.75406L352.78 5.91897L351.639 5.167L351.088 6.00209ZM352.23 6.75406L351.68 7.58915C354.466 9.42469 355.933 11.9371 356.141 15.2049L357.139 15.1413L358.137 15.0777C357.888 11.173 356.082 8.09396 352.78 5.91897L352.23 6.75406ZM357.139 15.1413L356.141 15.2049L356.227 16.5498L357.224 16.4862L358.222 16.4226L358.137 15.0777L357.139 15.1413ZM357.224 16.4862L356.227 16.5498L356.312 17.8946L357.31 17.831L358.308 17.7674L358.222 16.4226L357.224 16.4862ZM357.31 17.831L356.312 17.8946C356.542 21.4947 356.848 25.1148 357.23 28.7549L358.225 28.6504L359.219 28.5458C358.84 24.9326 358.536 21.3398 358.308 17.7674L357.31 17.831ZM358.225 28.6504L357.23 28.7549L357.373 30.1149L358.368 30.0104L359.362 29.9058L359.219 28.5458L358.225 28.6504ZM358.368 30.0104L357.373 30.1149L357.516 31.4749L358.511 31.3704L359.505 31.2658L359.362 29.9058L358.368 30.0104ZM358.511 31.3704L357.516 31.4749C357.894 35.0699 358.099 38.6646 358.131 42.2591L359.131 42.2504L360.131 42.2416C360.098 38.5827 359.89 34.9241 359.505 31.2658L358.511 31.3704ZM359.131 42.2504L358.131 42.2591L358.143 43.6191L359.143 43.6104L360.143 43.6016L360.131 42.2416L359.131 42.2504ZM359.143 43.6104L358.143 43.6191L358.155 44.9791L359.155 44.9704L360.155 44.9616L360.143 43.6016L359.143 43.6104ZM359.155 44.9704L358.155 44.9791C358.186 48.5593 357.969 52.1399 357.502 55.7212L358.494 55.8504L359.485 55.9795C359.964 52.3075 360.187 48.6347 360.155 44.9616L359.155 44.9704ZM358.494 55.8504L357.502 55.7212L357.325 57.0812L358.317 57.2104L359.308 57.3395L359.485 55.9795L358.494 55.8504ZM358.317 57.2104L357.325 57.0812L357.148 58.4412L358.14 58.5704L359.131 58.6995L359.308 57.3395L358.317 57.2104ZM358.14 58.5704L357.148 58.4412C356.662 62.1681 356.742 65.8957 357.386 69.6207L358.372 69.4504L359.357 69.28C358.747 65.7516 358.672 62.2259 359.131 58.6995L358.14 58.5704ZM358.372 69.4504L357.386 69.6207L357.621 70.9807L358.607 70.8103L359.592 70.64L359.357 69.28L358.372 69.4504ZM358.607 70.8103L357.621 70.9807L357.857 72.3407L358.842 72.1703L359.827 72L359.592 70.64L358.607 70.8103ZM358.842 72.1703L357.857 72.3407C358.471 75.8936 358.678 79.4442 358.477 82.9941L359.476 83.0504L360.474 83.1066C360.683 79.4032 360.467 75.7005 359.827 72L358.842 72.1703ZM359.476 83.0504L358.477 82.9941L358.401 84.3541L359.399 84.4104L360.398 84.4666L360.474 83.1066L359.476 83.0504ZM359.399 84.4104L358.401 84.3541L358.324 85.7141L359.323 85.7704L360.321 85.8266L360.398 84.4666L359.399 84.4104ZM359.323 85.7704L358.324 85.7141C358.12 89.3377 357.899 92.9613 357.661 96.5848L358.659 96.6504L359.657 96.7159C359.895 93.0861 360.116 89.4564 360.321 85.8266L359.323 85.7704ZM358.659 96.6504L357.661 96.5848L357.572 97.9448L358.569 98.0104L359.567 98.0759L359.657 96.7159L358.659 96.6504ZM358.569 98.0104L357.572 97.9448L357.482 99.3048L358.48 99.3704L359.478 99.4359L359.567 98.0759L358.569 98.0104ZM358.48 99.3704L357.482 99.3048C357.241 102.984 357.291 106.664 357.633 110.343L358.629 110.25L359.624 110.158C359.292 106.584 359.243 103.01 359.478 99.4359L358.48 99.3704ZM358.629 110.25L357.633 110.343L357.759 111.703L358.755 111.61L359.751 111.518L359.624 110.158L358.629 110.25ZM358.755 111.61L357.759 111.703L357.886 113.063L358.882 112.97L359.877 112.878L359.751 111.518L358.755 111.61ZM358.882 112.97L357.886 113.063C358.22 116.662 358.402 120.26 358.43 123.858L359.43 123.85L360.43 123.843C360.401 120.187 360.217 116.533 359.877 112.878L358.882 112.97ZM359.43 123.85L358.43 123.858L358.44 125.218L359.44 125.21L360.44 125.203L360.43 123.843L359.43 123.85ZM359.44 125.21L358.44 125.218L358.451 126.578L359.451 126.57L360.451 126.563L360.44 125.203L359.44 125.21ZM359.451 126.57L358.451 126.578C358.478 130.05 357.728 133.238 356.21 136.161L357.098 136.622L357.985 137.083C359.661 133.857 360.48 130.344 360.451 126.563L359.451 126.57ZM357.098 136.622L356.21 136.161L355.611 137.314L356.499 137.775L357.386 138.236L357.985 137.083L357.098 136.622ZM356.499 137.775L355.611 137.314L355.012 138.467L355.9 138.928L356.787 139.389L357.386 138.236L356.499 137.775ZM355.9 138.928L355.012 138.467C353.487 141.405 351.359 143.899 348.618 145.955L349.218 146.755L349.818 147.555C352.792 145.325 355.119 142.601 356.787 139.389L355.9 138.928ZM349.218 146.755L348.618 145.955L347.547 146.758L348.147 147.558L348.747 148.358L349.818 147.555L349.218 146.755ZM348.147 147.558L347.547 146.758L346.475 147.562L347.075 148.362L347.675 149.162L348.747 148.358L348.147 147.558ZM347.075 148.362L346.475 147.562C343.852 149.529 340.888 150.203 337.509 149.571L337.326 150.554L337.142 151.537C341.048 152.267 344.585 151.48 347.675 149.162L347.075 148.362ZM337.326 150.554L337.509 149.571L336.143 149.315L335.96 150.298L335.776 151.281L337.142 151.537L337.326 150.554ZM335.96 150.298L336.143 149.315L334.777 149.059L334.594 150.042L334.41 151.025L335.776 151.281L335.96 150.298ZM334.594 150.042L334.777 149.059C331.066 148.365 327.36 148.072 323.66 148.181L323.689 149.181L323.719 150.18C327.273 150.075 330.836 150.357 334.41 151.025L334.594 150.042ZM323.689 149.181L323.66 148.181L322.3 148.221L322.329 149.221L322.359 150.221L323.719 150.18L323.689 149.181ZM322.329 149.221L322.3 148.221L320.94 148.262L320.969 149.261L320.999 150.261L322.359 150.221L322.329 149.221ZM320.969 149.261L320.94 148.262C317.264 148.37 313.59 148.747 309.917 149.392L310.089 150.377L310.262 151.362C313.842 150.733 317.421 150.367 320.999 150.261L320.969 149.261ZM310.089 150.377L309.917 149.392L308.557 149.63L308.729 150.615L308.902 151.6L310.262 151.362L310.089 150.377ZM308.729 150.615L308.557 149.63L307.197 149.869L307.369 150.854L307.542 151.839L308.902 151.6L308.729 150.615ZM307.369 150.854L307.197 149.869C303.627 150.495 300.06 150.801 296.494 150.786L296.489 151.786L296.485 152.786C300.172 152.801 303.858 152.485 307.542 151.839L307.369 150.854ZM296.489 151.786L296.494 150.786L295.134 150.781L295.129 151.781L295.125 152.781L296.485 152.786L296.489 151.786ZM295.129 151.781L295.134 150.781L293.774 150.775L293.769 151.775L293.765 152.775L295.125 152.781L295.129 151.781ZM293.769 151.775L293.774 150.775C290.202 150.761 286.629 150.453 283.055 149.853L282.889 150.839L282.724 151.825C286.403 152.443 290.084 152.76 293.765 152.775L293.769 151.775ZM282.889 150.839L283.055 149.853L281.695 149.624L281.529 150.61L281.364 151.596L282.724 151.825L282.889 150.839ZM281.529 150.61L281.695 149.624L280.335 149.395L280.169 150.382L280.004 151.368L281.364 151.596L281.529 150.61ZM280.169 150.382L280.335 149.395C276.633 148.773 272.929 148.582 269.225 148.822L269.289 149.82L269.354 150.818C272.903 150.588 276.452 150.771 280.004 151.368L280.169 150.382ZM269.289 149.82L269.225 148.822L267.865 148.91L267.929 149.908L267.994 150.906L269.354 150.818L269.289 149.82ZM267.929 149.908L267.865 148.91L266.505 148.998L266.569 149.996L266.634 150.994L267.994 150.906L267.929 149.908ZM266.569 149.996L266.505 148.998C262.898 149.232 259.29 149.36 255.683 149.382L255.689 150.382L255.696 151.382C259.342 151.359 262.988 151.23 266.634 150.994L266.569 149.996ZM255.689 150.382L255.683 149.382L254.323 149.39L254.329 150.39L254.336 151.39L255.696 151.382L255.689 150.382ZM254.329 150.39L254.323 149.39L252.963 149.399L252.969 150.398L252.976 151.398L254.336 151.39L254.329 150.39ZM252.969 150.398L252.963 149.399C249.349 149.421 245.735 149.375 242.121 149.262L242.089 150.261L242.058 151.261C245.697 151.375 249.336 151.421 252.976 151.398L252.969 150.398ZM242.089 150.261L242.121 149.262L240.761 149.219L240.729 150.219L240.698 151.218L242.058 151.261L242.089 150.261ZM240.729 150.219L240.761 149.219L239.401 149.177L239.369 150.176L239.338 151.176L240.698 151.218L240.729 150.219ZM239.369 150.176L239.401 149.177C235.772 149.063 232.143 148.962 228.514 148.875L228.489 149.875L228.465 150.874C232.09 150.962 235.714 151.062 239.338 151.176L239.369 150.176ZM228.489 149.875L228.514 148.875L227.154 148.842L227.129 149.842L227.105 150.841L228.465 150.874L228.489 149.875ZM227.129 149.842L227.154 148.842L225.794 148.809L225.769 149.809L225.745 150.809L227.105 150.841L227.129 149.842ZM225.769 149.809L225.794 148.809C222.172 148.722 218.55 148.608 214.928 148.467L214.889 149.466L214.851 150.466C218.482 150.607 222.114 150.721 225.745 150.809L225.769 149.809ZM214.889 149.466L214.928 148.467L213.568 148.414L213.529 149.414L213.491 150.413L214.851 150.466L214.889 149.466ZM213.529 149.414L213.568 148.414L212.208 148.361L212.169 149.361L212.131 150.36L213.491 150.413L213.529 149.414ZM212.169 149.361L212.208 148.361C208.517 148.218 204.827 148.429 201.138 148.995L201.289 149.984L201.441 150.972C205.005 150.425 208.568 150.221 212.131 150.36L212.169 149.361ZM201.289 149.984L201.138 148.995L199.778 149.204L199.929 150.192L200.081 151.181L201.441 150.972L201.289 149.984ZM199.929 150.192L199.778 149.204L198.418 149.412L198.569 150.401L198.721 151.389L200.081 151.181L199.929 150.192ZM198.569 150.401L198.418 149.412C194.859 149.958 191.302 150.131 187.746 149.93L187.689 150.928L187.633 151.927C191.33 152.135 195.026 151.956 198.721 151.389L198.569 150.401ZM187.689 150.928L187.746 149.93L186.386 149.853L186.329 150.852L186.273 151.85L187.633 151.927L187.689 150.928ZM186.329 150.852L186.386 149.853L185.026 149.777L184.969 150.775L184.913 151.773L186.273 151.85L186.329 150.852ZM184.969 150.775L185.026 149.777C181.349 149.569 177.673 149.637 173.997 149.979L174.089 150.975L174.182 151.97C177.759 151.637 181.336 151.572 184.913 151.773L184.969 150.775ZM174.089 150.975L173.997 149.979L172.637 150.106L172.729 151.101L172.822 152.097L174.182 151.97L174.089 150.975ZM172.729 151.101L172.637 150.106L171.277 150.232L171.369 151.228L171.462 152.224L172.822 152.097L172.729 151.101ZM171.369 151.228L171.277 150.232C167.725 150.563 164.173 150.494 160.62 150.025L160.489 151.016L160.359 152.007C164.059 152.496 167.761 152.568 171.462 152.224L171.369 151.228ZM160.489 151.016L160.62 150.025L159.26 149.845L159.129 150.836L158.999 151.828L160.359 152.007L160.489 151.016ZM159.129 150.836L159.26 149.845L157.9 149.665L157.769 150.657L157.639 151.648L158.999 151.828L159.129 150.836ZM157.769 150.657L157.9 149.665C154.22 149.179 150.539 148.997 146.857 149.117L146.889 150.116L146.922 151.116C150.494 150.999 154.066 151.176 157.639 151.648L157.769 150.657ZM146.889 150.116L146.857 149.117L145.497 149.161L145.529 150.161L145.562 151.16L146.922 151.116L146.889 150.116ZM145.529 150.161L145.497 149.161L144.137 149.206L144.169 150.205L144.202 151.205L145.562 151.16L145.529 150.161ZM144.169 150.205L144.137 149.206C140.52 149.324 136.904 149.387 133.287 149.395L133.289 150.395L133.292 151.395C136.928 151.387 140.565 151.324 144.202 151.205L144.169 150.205ZM133.289 150.395L133.287 149.395L131.927 149.398L131.929 150.398L131.932 151.398L133.292 151.395L133.289 150.395ZM131.929 150.398L131.927 149.398L130.567 149.401L130.569 150.401L130.572 151.401L131.932 151.398L131.929 150.398ZM130.569 150.401L130.567 149.401C126.923 149.409 123.278 149.516 119.633 149.722L119.689 150.72L119.746 151.719C123.355 151.514 126.963 151.409 130.572 151.401L130.569 150.401ZM119.689 150.72L119.633 149.722L118.273 149.799L118.329 150.797L118.386 151.795L119.746 151.719L119.689 150.72ZM118.329 150.797L118.273 149.799L116.913 149.875L116.969 150.874L117.026 151.872L118.386 151.795L118.329 150.797ZM116.969 150.874L116.913 149.875C113.313 150.079 109.712 150.14 106.112 150.059L106.089 151.059L106.067 152.059C109.72 152.141 113.373 152.079 117.026 151.872L116.969 150.874ZM106.089 151.059L106.112 150.059L104.752 150.029L104.729 151.029L104.707 152.028L106.067 152.059L106.089 151.059ZM104.729 151.029L104.752 150.029L103.392 149.998L103.369 150.998L103.347 151.998L104.707 152.028L104.729 151.029ZM103.369 150.998L103.392 149.998C99.7657 149.917 96.1394 149.833 92.5132 149.747L92.4895 150.747L92.4658 151.747C96.0928 151.833 99.7199 151.916 103.347 151.998L103.369 150.998ZM92.4895 150.747L92.5132 149.747L91.1532 149.715L91.1295 150.715L91.1058 151.714L92.4658 151.747L92.4895 150.747ZM91.1295 150.715L91.1532 149.715L89.7932 149.683L89.7695 150.682L89.7458 151.682L91.1058 151.714L91.1295 150.715ZM89.7695 150.682L89.7932 149.683C86.1631 149.597 82.5331 149.529 78.9031 149.479L78.8895 150.479L78.8758 151.479C82.4991 151.529 86.1224 151.596 89.7458 151.682L89.7695 150.682ZM78.8895 150.479L78.9031 149.479L77.5431 149.461L77.5295 150.461L77.5158 151.461L78.8758 151.479L78.8895 150.479ZM77.5295 150.461L77.5431 149.461L76.1831 149.442L76.1695 150.442L76.1558 151.442L77.5158 151.461L77.5295 150.461ZM76.1695 150.442L76.1831 149.442C72.5386 149.393 68.8941 149.441 65.2496 149.586L65.2895 150.585L65.3294 151.584C68.9382 151.44 72.547 151.393 76.1558 151.442L76.1695 150.442ZM65.2895 150.585L65.2496 149.586L63.8896 149.64L63.9295 150.64L63.9694 151.639L65.3294 151.584L65.2895 150.585ZM63.9295 150.64L63.8896 149.64L62.5296 149.695L62.5695 150.694L62.6094 151.693L63.9694 151.639L63.9295 150.64ZM62.5695 150.694L62.5296 149.695C58.9037 149.839 55.2777 149.98 51.6518 150.117L51.6895 151.116L51.7271 152.115C55.3545 151.979 58.9819 151.838 62.6094 151.693L62.5695 150.694ZM51.6895 151.116L51.6518 150.117L50.2919 150.168L50.3295 151.167L50.3671 152.166L51.7271 152.115L51.6895 151.116ZM50.3295 151.167L50.2919 150.168L48.9319 150.219L48.9695 151.218L49.0071 152.218L50.3671 152.166L50.3295 151.167ZM48.9695 151.218L48.9319 150.219C45.3203 150.355 41.7087 150.409 38.0972 150.381L38.0895 151.381L38.0818 152.381C41.7236 152.409 45.3653 152.355 49.0071 152.218L48.9695 151.218ZM38.0895 151.381L38.0972 150.381L36.7372 150.371L36.7295 151.371L36.7218 152.371L38.0818 152.381L38.0895 151.381ZM36.7295 151.371L36.7372 150.371L35.3772 150.36L35.3695 151.36L35.3618 152.36L36.7218 152.371L36.7295 151.371ZM35.3695 151.36L35.3772 150.36C31.76 150.332 28.1297 150.253 24.4862 150.122L24.4503 151.121L24.4143 152.121C28.0765 152.252 31.7256 152.332 35.3618 152.36L35.3695 151.36ZM24.4503 151.121L24.4862 150.122L23.1164 150.073L23.0805 151.072L23.0445 152.072L24.4143 152.121L24.4503 151.121ZM23.0805 151.072L23.1164 150.073L21.7466 150.024L21.7106 151.023L21.6747 152.022L23.0445 152.072L23.0805 151.072ZM21.7106 151.023L21.7466 150.024C18.3008 149.9 15.3139 148.802 12.7485 146.733L12.1208 147.511L11.4931 148.29C14.4085 150.641 17.8148 151.884 21.6747 152.022L21.7106 151.023ZM12.1208 147.511L12.7485 146.733L11.7208 145.904L11.0931 146.683L10.4654 147.461L11.4931 148.29L12.1208 147.511ZM11.0931 146.683L11.7208 145.904L10.6932 145.075L10.0654 145.854L9.43773 146.632L10.4654 147.461L11.0931 146.683ZM10.0654 145.854L10.6932 145.075C8.11095 142.993 6.41994 140.426 5.59068 137.354L4.62525 137.615L3.65982 137.876C4.60328 141.37 6.53907 144.295 9.43773 146.632L10.0654 145.854ZM4.62525 137.615L5.59068 137.354L5.2583 136.123L4.29287 136.384L3.32744 136.645L3.65982 137.876L4.62525 137.615ZM4.29287 136.384L5.2583 136.123L4.92591 134.892L3.96048 135.153L2.99505 135.414L3.32744 136.645L4.29287 136.384ZM3.96048 135.153L4.92591 134.892C4.0531 131.66 3.40336 128.253 2.97804 124.671L1.98502 124.789L0.991995 124.907C1.42792 128.578 2.09516 132.081 2.99505 135.414L3.96048 135.153ZM1.98502 124.789L2.97804 124.671L2.81656 123.311L1.82354 123.429L0.830513 123.547L0.991995 124.907L1.98502 124.789ZM1.82354 123.429L2.81656 123.311L2.65508 121.951L1.66206 122.069L0.669032 122.187L0.830513 123.547L1.82354 123.429ZM1.66206 122.069L2.65508 121.951C2.229 118.362 2.01251 114.774 2.00551 111.187L1.00551 111.189L0.00551593 111.191C0.0126692 114.856 0.233877 118.522 0.669032 122.187L1.66206 122.069ZM1.00551 111.189L2.00551 111.187L2.00286 109.827L1.00286 109.829L0.00286198 109.831L0.00551593 111.191L1.00551 111.189ZM1.00286 109.829L2.00286 109.827L2.0002 108.467L1.00021 108.469L0.000208139 108.471L0.00286198 109.831L1.00286 109.829ZM1.00021 108.469L2.0002 108.467C1.99318 104.868 2.13637 101.269 2.42979 97.67L1.4331 97.5887L0.436407 97.5075C0.138485 101.162 -0.00692332 104.816 0.000208139 108.471L1.00021 108.469ZM1.4331 97.5887L2.42979 97.67L2.54067 96.31L1.54398 96.2287L0.547285 96.1475L0.436407 97.5075L1.4331 97.5887ZM1.54398 96.2287L2.54067 96.31L2.65155 94.95L1.65486 94.8687L0.658162 94.7875L0.547285 96.1475L1.54398 96.2287ZM1.65486 94.8687L2.65155 94.95C2.94848 91.3079 3.1603 87.6657 3.287 84.0235L2.28761 83.9887L1.28821 83.9539C1.16259 87.5651 0.952578 91.1762 0.658162 94.7875L1.65486 94.8687ZM2.28761 83.9887L3.287 84.0235L3.33431 82.6635L2.33492 82.6287L1.33552 82.5939L1.28821 83.9539L2.28761 83.9887ZM2.33492 82.6287L3.33431 82.6635L3.38162 81.3035L2.38223 81.2687L1.38283 81.2339L1.33552 82.5939L2.33492 82.6287ZM2.38223 81.2687L3.38162 81.3035C3.50796 77.6718 3.60704 74.0402 3.67886 70.4085L2.67905 70.3887L1.67925 70.3689C1.60763 73.9906 1.50882 77.6123 1.38283 81.2339L2.38223 81.2687ZM2.67905 70.3887L3.67886 70.4085L3.70575 69.0485L2.70595 69.0287L1.70614 69.0089L1.67925 70.3689L2.67905 70.3887ZM2.70595 69.0287L3.70575 69.0485L3.73265 67.6885L2.73284 67.6687L1.73304 67.6489L1.70614 69.0089L2.70595 69.0287ZM2.73284 67.6687L3.73265 67.6885C3.80436 64.0624 3.87917 60.4363 3.95709 56.8102L2.95732 56.7887L1.95755 56.7672C1.87961 60.3945 1.80477 64.0217 1.73304 67.6489L2.73284 67.6687ZM2.95732 56.7887L3.95709 56.8102L3.98632 55.4502L2.98655 55.4287L1.98678 55.4072L1.95755 56.7672L2.95732 56.7887ZM2.98655 55.4287L3.98632 55.4502L4.01554 54.0902L3.01577 54.0687L2.016 54.0472L1.98678 55.4072L2.98655 55.4287ZM3.01577 54.0687L4.01554 54.0902C4.09391 50.443 4.06002 46.7958 3.91386 43.1487L2.91466 43.1887L1.91546 43.2288C2.05998 46.8349 2.09349 50.4411 2.016 54.0472L3.01577 54.0687ZM2.91466 43.1887L3.91386 43.1487L3.85935 41.7887L2.86016 41.8287L1.86096 41.8688L1.91546 43.2288L2.91466 43.1887ZM2.86016 41.8287L3.85935 41.7887L3.80485 40.4287L2.80565 40.4687L1.80646 40.5088L1.86096 41.8688L2.86016 41.8287ZM2.80565 40.4687L3.80485 40.4287C3.66025 36.8204 3.61545 33.2122 3.67044 29.604L2.67056 29.5887L1.67067 29.5735C1.61512 33.2186 1.66038 36.8637 1.80646 40.5088L2.80565 40.4687ZM2.67056 29.5887L3.67044 29.604L3.69117 28.244L2.69129 28.2287L1.6914 28.2135L1.67067 29.5735L2.67056 29.5887ZM2.69129 28.2287L3.69117 28.244L3.7119 26.884L2.71202 26.8687L1.71213 26.8535L1.6914 28.2135L2.69129 28.2287ZM2.71202 26.8687L3.7119 26.884C3.76571 23.3537 4.32042 20.0765 5.36807 17.0457L4.42294 16.719L3.47781 16.3923C2.35479 19.6411 1.76888 23.1304 1.71213 26.8535L2.71202 26.8687ZM4.42294 16.719L5.36807 17.0457L5.77507 15.8683L4.82994 15.5416L3.88482 15.2149L3.47781 16.3923L4.42294 16.719ZM4.82994 15.5416L5.77507 15.8683L6.18207 14.6908L5.23695 14.3641L4.29182 14.0374L3.88482 15.2149L4.82994 15.5416ZM5.23695 14.3641L6.18207 14.6908C7.19812 11.7515 9.00054 9.34126 11.6166 7.44452L11.0297 6.63492L10.4427 5.82532C7.50584 7.9546 5.44645 10.6972 4.29182 14.0374L5.23695 14.3641ZM11.0297 6.63492L11.6166 7.44452L12.6578 6.68964L12.0708 5.88004L11.4838 5.07044L10.4427 5.82532L11.0297 6.63492ZM12.0708 5.88004L12.6578 6.68964L13.699 5.93477L13.112 5.12517L12.525 4.31557L11.4838 5.07044L12.0708 5.88004ZM13.112 5.12517L13.699 5.93477C15.08 4.93348 16.1505 4.20402 16.9199 3.73561C17.3067 3.50011 17.5957 3.344 17.7974 3.25301C17.8986 3.20737 17.9576 3.1874 17.9824 3.18049C18.0243 3.16887 17.947 3.19908 17.8078 3.18136L17.9341 2.18937L18.0604 1.19738C17.8117 1.16571 17.5883 1.21429 17.4475 1.25336C17.2898 1.29715 17.1296 1.36021 16.975 1.42992C16.6653 1.56962 16.2967 1.77351 15.8799 2.02731C15.0418 2.53751 13.9205 3.30384 12.525 4.31557L13.112 5.12517ZM17.9341 2.18937L17.8078 3.18136L17.9722 3.20229L18.0985 2.2103L18.2248 1.21831L18.0604 1.19738L17.9341 2.18937ZM18.0985 2.2103L17.9722 3.20229L18.1365 3.22322L18.2629 2.23123L18.3892 1.23924L18.2248 1.21831L18.0985 2.2103ZM18.2629 2.23123L18.1365 3.22322C18.4521 3.2634 19.165 3.257 20.1447 3.22881C21.1702 3.1993 22.5923 3.14114 24.4079 3.05465L24.3603 2.05579L24.3127 1.05692C22.5016 1.1432 21.0941 1.20067 20.0872 1.22964C19.5832 1.24414 19.1851 1.25134 18.8894 1.25166C18.7415 1.25182 18.624 1.25024 18.5345 1.24733C18.4899 1.24588 18.455 1.24418 18.4287 1.24247C18.4157 1.24162 18.4058 1.24083 18.3987 1.24019C18.3915 1.23953 18.3885 1.23916 18.3892 1.23924L18.2629 2.23123ZM24.3603 2.05579L24.4079 3.05465L25.7679 2.98986L25.7203 1.991L25.6727 0.99213L24.3127 1.05692L24.3603 2.05579Z" fill="#FF9F72"/>
<path d="M112.559 77.9435C112.563 78.4053 112.478 78.8563 112.303 79.2964L111.776 80.6168C111.6 81.057 111.532 81.5131 111.57 81.9852L111.685 83.4016C111.723 83.8737 111.722 84.3445 111.681 84.814L111.558 86.2225C111.517 86.692 111.338 87.1161 111.023 87.4947L110.076 88.6304C109.761 89.0089 109.495 89.398 109.278 89.7975L108.628 90.9961C108.411 91.3957 108.29 91.8481 108.265 92.3534L108.189 93.8694C108.163 94.3748 108.012 94.8151 107.734 95.1904L106.9 96.3164C106.622 96.6917 106.339 97.0608 106.05 97.4239L105.184 98.513C104.895 98.876 104.564 99.1998 104.191 99.4844L103.07 100.338C102.696 100.623 102.396 100.977 102.17 101.4L101.492 102.669C101.265 103.092 100.944 103.417 100.529 103.642L99.282 104.318C98.8664 104.543 98.4594 104.77 98.0612 104.997L96.8667 105.68C96.4685 105.908 96.108 106.193 95.7851 106.536L94.8166 107.566C94.4937 107.909 94.1092 108.149 93.6631 108.287L92.3246 108.7C91.8785 108.837 91.4697 109.052 91.0983 109.344L89.9842 110.22C89.6128 110.512 89.1891 110.673 88.7133 110.704L87.2856 110.795C86.8097 110.826 86.375 110.99 85.9815 111.287L84.8009 112.18C84.4073 112.477 83.9837 112.682 83.53 112.793L82.1688 113.126C81.715 113.237 81.2491 113.24 80.771 113.134L79.3366 112.817C78.8585 112.711 78.3929 112.722 77.9399 112.849L76.5809 113.23C76.1279 113.356 75.6741 113.342 75.2193 113.186L73.8549 112.718C73.4001 112.562 72.943 112.497 72.4836 112.524L71.1054 112.606C70.646 112.633 70.1808 112.657 69.7099 112.679L68.297 112.743C67.826 112.764 67.3665 112.713 66.9185 112.59L65.5743 112.222C65.1263 112.099 64.6902 111.943 64.2661 111.753L62.9939 111.185C62.5698 110.996 62.1258 110.855 61.6619 110.763L60.2701 110.486C59.8062 110.394 59.3804 110.216 58.9928 109.951L57.83 109.159C57.4424 108.895 57.0567 108.633 56.6728 108.375L55.5212 107.6C55.1373 107.342 54.7935 107.032 54.4898 106.67L53.5785 105.585C53.2747 105.223 52.8979 104.956 52.448 104.782L51.0984 104.26C50.6486 104.086 50.2882 103.807 50.0172 103.424L49.2044 102.275C48.9335 101.892 48.64 101.535 48.324 101.204L47.3759 100.21C47.0598 99.8792 46.7646 99.5303 46.4902 99.1637L45.667 98.0639C45.3926 97.6973 45.0987 97.3419 44.7854 96.9976L43.8454 95.9647C43.532 95.6204 43.2666 95.2441 43.0491 94.8359L42.3967 93.6111C42.1792 93.2029 41.9586 92.7953 41.7347 92.3885L41.0633 91.1679C40.8394 90.7611 40.644 90.341 40.477 89.9077L39.976 88.6078C39.809 88.1745 39.714 87.7209 39.691 87.247L39.6221 85.8255C39.5991 85.3516 39.4837 84.9019 39.2759 84.4763L38.6525 83.1995C38.4446 82.7739 38.3099 82.3308 38.2483 81.8701L38.0634 80.488C38.0018 80.0273 38.0068 79.5639 38.0783 79.0979L38.2929 77.6997C38.3644 77.2336 38.4146 76.7724 38.4435 76.3159L38.5301 74.9467C38.5589 74.4903 38.5097 74.0257 38.3824 73.5531L38.0005 72.135C37.8732 71.6623 37.8974 71.2053 38.073 70.764L38.5999 69.4399C38.7755 68.9985 38.9211 68.5558 39.0365 68.1118L39.3829 66.7796C39.4984 66.3355 39.6083 65.8892 39.7128 65.4405L40.0261 64.0944C40.1306 63.6458 40.2259 63.1889 40.3122 62.7239L40.571 61.3289C40.6573 60.8639 40.883 60.4641 41.2482 60.1295L42.3436 59.1256C42.7087 58.791 42.9496 58.3924 43.0662 57.9297L43.4159 56.5416C43.5324 56.0788 43.7 55.6403 43.9184 55.2259L44.5739 53.9828C44.7923 53.5684 45.1064 53.2295 45.5161 52.9663L46.7453 52.1764C47.1551 51.9132 47.5103 51.6099 47.811 51.2668L48.7132 50.2373C49.014 49.8941 49.2837 49.5118 49.5225 49.0903L50.2389 47.8259C50.4777 47.4044 50.827 47.1118 51.2869 46.948L52.6664 46.4568C53.1262 46.2931 53.5453 46.0848 53.9236 45.832L55.0586 45.0736C55.437 44.8208 55.7783 44.497 56.0828 44.1024L56.996 42.9185C57.3005 42.5238 57.7081 42.3253 58.2188 42.3228L59.7511 42.3154C60.2619 42.3129 60.6978 42.1452 61.0588 41.8123L62.1418 40.8136C62.5028 40.4807 62.9048 40.2433 63.3476 40.1014L64.6762 39.6756C65.119 39.5337 65.5811 39.4825 66.0624 39.5219L67.5064 39.6401C67.9877 39.6795 68.4425 39.5797 68.8709 39.3406L70.156 38.6232C70.5844 38.3841 71.0329 38.2841 71.5016 38.3232L72.9076 38.4404C73.3763 38.4795 73.8415 38.4945 74.3031 38.4855L75.6881 38.4583C76.1497 38.4493 76.6057 38.5068 77.056 38.6308L78.4071 39.0027C78.8574 39.1267 79.3208 39.1462 79.7971 39.0614L81.2261 38.807C81.7024 38.7222 82.1487 38.8042 82.5651 39.053L83.8141 39.7994C84.2305 40.0482 84.675 40.1815 85.1477 40.1993L86.5656 40.2527C87.0383 40.2705 87.4824 40.3813 87.8981 40.5851L89.145 41.1966C89.5606 41.4005 89.994 41.5656 90.4452 41.6921L91.7987 42.0716C92.2498 42.1981 92.6893 42.3568 93.1171 42.5479L94.4006 43.121C94.8284 43.312 95.1791 43.6186 95.4527 44.0409L96.2733 45.3076C96.5469 45.7298 96.8547 46.0897 97.1968 46.3873L98.2229 47.28C98.565 47.5775 98.9604 47.819 99.4091 48.0043L100.755 48.5601C101.204 48.7454 101.538 49.0512 101.756 49.4775L102.412 50.7565C102.63 51.1828 102.952 51.5187 103.376 51.7641L104.651 52.5005C105.075 52.746 105.422 53.0592 105.691 53.4402L106.498 54.583C106.767 54.9639 107.007 55.3629 107.216 55.7798L107.844 57.0306C108.053 57.4476 108.265 57.8618 108.48 58.2732L109.123 59.5076C109.337 59.9191 109.554 60.3317 109.772 60.7456L110.426 61.9871C110.644 62.401 110.81 62.8344 110.925 63.2875L111.269 64.6468C111.383 65.0999 111.449 65.5622 111.466 66.0338L111.516 67.4484C111.533 67.92 111.621 68.3757 111.779 68.8157L112.253 70.1357C112.412 70.5757 112.505 71.027 112.533 71.4897L112.617 72.8776C112.646 73.3402 112.685 73.7627 112.736 74.145L112.889 75.2918C112.939 75.6741 112.929 75.8653 112.858 75.8653H112.644C112.573 75.8653 112.539 76.0962 112.544 76.558L112.559 77.9435Z" fill="#FFA67C"/>
<path d="M157.551 62.9478V87.8853H154.024V62.9478H157.551ZM144.043 64.6978C147.789 64.6978 150.578 68.1431 150.578 73.5571C150.578 79.0259 147.789 82.4438 144.043 82.4438C140.215 82.4438 137.426 79.0259 137.453 73.5571C137.426 68.1431 140.215 64.6978 144.043 64.6978ZM144.043 67.8423C142.102 67.8423 140.817 69.8657 140.817 73.5571C140.817 77.2759 142.102 79.272 144.043 79.272C145.93 79.272 147.215 77.2759 147.215 73.5571C147.215 69.8657 145.93 67.8423 144.043 67.8423ZM182.434 62.9478V87.8306H179.125V62.9478H182.434ZM177.348 63.3579V86.6821H174.067V74.2954H170.786V71.479H174.067V63.3579H177.348ZM168.789 69.6196C168.789 73.7485 170.075 77.9321 173.711 80.0103L171.661 82.5806C169.446 81.2681 167.983 79.0396 167.149 76.3735C166.287 79.272 164.784 81.7329 162.5 83.1274L160.395 80.5571C164.059 78.3149 165.426 73.8306 165.426 69.6196V68.2798H161.352V65.4907H172.563V68.2798H168.789V69.6196ZM211.473 65.2446V68.2251C211.473 71.6431 211.473 75.0337 210.571 80.1743L207.043 79.8735C207.973 75.0884 207.973 71.5337 208 68.2251V68.0337H193.918V65.2446H211.473ZM214.262 81.7056V84.5767H191.567V81.7056H214.262ZM228.453 64.9985V76.9478H216.504V64.9985H228.453ZM219.95 67.7876V74.2134H225.008V67.7876H219.95ZM235.508 62.9478V70.1118H238.871V72.9829H235.508V81.104H232.008V62.9478H235.508ZM236.411 84.604V87.3931H219.375V79.3267H222.848V84.604H236.411ZM269.168 72.6548V75.3892H246.418V72.6548H269.168ZM266.461 68.5532V71.2876H249.262V63.4399H266.27V66.229H252.735V68.5532H266.461ZM266.352 76.8657V83.3735H252.489V84.9048H267.008V87.6118H249.071V80.8853H262.907V79.4907H249.043V76.8657H266.352ZM281.965 63.3032C287.68 63.3032 290.989 64.8071 291.016 67.5415C290.989 70.3032 287.68 71.8071 281.965 71.8071C276.223 71.8071 272.887 70.3032 272.887 67.5415C272.887 64.8071 276.223 63.3032 281.965 63.3032ZM281.965 65.8462C278.301 65.8462 276.524 66.4478 276.551 67.5415C276.524 68.772 278.301 69.2368 281.965 69.2368C285.657 69.2368 287.407 68.772 287.407 67.5415C287.407 66.4478 285.657 65.8462 281.965 65.8462ZM293.313 72.9829V75.7446H270.618V72.9829H293.313ZM290.551 77.1938V83.5376H276.688V85.0415H291.207V87.6665H273.27V81.104H287.106V79.7368H273.243V77.1938H290.551ZM304.961 65.354V74.9517H298.864V79.4087C301.229 79.3813 303.485 79.2856 306.028 78.8892L306.274 81.6782C303.02 82.2251 300.34 82.3071 297.25 82.3071H295.528V72.1626H301.598V68.1704H295.5V65.354H304.961ZM316.336 62.9478V87.8306H313.028V75.1704H310.621V86.6274H307.422V63.3579H310.621V72.354H313.028V62.9478H316.336ZM324.676 65.5181L324.321 79.3813H320.821L320.465 65.5181H324.676ZM322.598 85.561C321.313 85.561 320.274 84.522 320.301 83.2642C320.274 82.0063 321.313 80.9946 322.598 80.9946C323.801 80.9946 324.868 82.0063 324.868 83.2642C324.868 84.522 323.801 85.561 322.598 85.561Z" fill="#FF682D"/>
<rect x="60.9203" y="61.3149" width="30" height="30" fill="#FF6E2A"/>
</svg>
