<svg width="361" height="154" viewBox="0 0 361 154" fill="none" xmlns="http://www.w3.org/2000/svg">
<path d="M1.92029 19.3149C1.92029 9.9261 9.53145 2.31494 18.9203 2.31494H341.92C351.309 2.31494 358.92 9.9261 358.92 19.3149V134.315C358.92 143.704 351.309 151.315 341.92 151.315H18.9203C9.53145 151.315 1.92029 143.704 1.92029 134.315V19.3149Z" fill="#E3FFCF"/>
<path d="M323.623 0.0727539L324.983 0.158691L326.342 0.236816C329.964 0.454459 333.594 0.657227 337.233 0.838379L338.6 0.900879L339.967 0.971191C343.788 1.16155 347.305 2.31304 350.498 4.4165L352.78 5.9165C356.081 8.09149 357.89 11.1759 358.139 15.0806L358.311 17.7681C358.539 21.3401 358.837 24.9364 359.217 28.5493L359.366 29.9087L359.506 31.2681C359.891 34.9256 360.099 38.5866 360.131 42.2446L360.139 43.604L360.155 44.9634C360.187 48.6359 359.961 52.3076 359.483 55.979L359.311 57.3384L359.131 58.6978C358.672 62.2242 358.748 65.7554 359.358 69.2837L359.827 72.0024C360.466 75.7013 360.683 79.4022 360.475 83.104L360.319 85.8228C360.114 89.4517 359.893 93.0844 359.655 96.7134L359.569 98.0728L359.475 99.4321C359.24 103.006 359.291 106.584 359.623 110.159L359.873 112.877C360.213 116.532 360.4 120.191 360.428 123.846L360.444 125.206L360.452 126.565C360.48 130.33 359.746 133.866 358.241 137.159L357.702 138.338L357.155 139.526C355.65 142.818 353.474 145.666 350.639 148.065L349.623 148.932L348.6 149.799C345.635 152.308 342.134 153.196 338.194 152.487L336.819 152.245L335.444 151.995C331.849 151.347 328.272 151.077 324.717 151.182L321.998 151.26C318.421 151.366 314.843 151.734 311.264 152.362L309.905 152.604L308.545 152.838C304.861 153.485 301.17 153.799 297.483 153.784H296.123L294.764 153.776C291.083 153.761 287.404 153.441 283.725 152.823L281.006 152.37C277.456 151.773 273.905 151.585 270.358 151.815L268.991 151.909L267.631 151.995C263.986 152.231 260.339 152.363 256.694 152.385L253.975 152.401C250.337 152.423 246.699 152.374 243.061 152.26L241.702 152.221L240.334 152.174C236.712 152.061 233.09 151.965 229.467 151.877L228.108 151.838L226.748 151.807C223.117 151.72 219.482 151.605 215.85 151.463L214.491 151.417L213.131 151.362C209.57 151.223 206.007 151.425 202.444 151.971L199.725 152.393C196.03 152.96 192.328 153.133 188.631 152.924L187.272 152.854L185.912 152.776C182.337 152.574 178.762 152.638 175.186 152.971L173.819 153.096L172.459 153.221C168.759 153.566 165.057 153.499 161.358 153.01L158.639 152.651C155.066 152.179 151.492 152.003 147.92 152.12L146.561 152.159L145.202 152.206C141.566 152.325 137.931 152.385 134.295 152.393L132.928 152.401H131.569C127.962 152.409 124.355 152.517 120.748 152.721L119.389 152.792L118.03 152.87C114.377 153.076 110.721 153.139 107.069 153.057L104.35 152.995C100.723 152.913 97.0938 152.831 93.4672 152.745L90.7484 152.682C87.1251 152.596 83.4967 152.528 79.8734 152.479L78.514 152.463L77.1547 152.44C73.5463 152.391 69.935 152.444 66.3265 152.588L64.9672 152.635L63.6078 152.69C59.9808 152.835 56.3519 152.975 52.725 153.112L50.0062 153.221C46.3657 153.358 42.725 153.405 39.0844 153.377L36.3656 153.362C32.7325 153.334 29.0861 153.272 25.4359 153.174L22.7015 153.096C18.8676 152.993 15.4215 151.861 12.389 149.698L11.3109 148.932L10.2406 148.167C7.20831 146.003 5.12003 143.197 4.01404 139.768L3.23279 137.362C2.17445 134.081 1.42826 130.594 0.990601 126.909L0.834351 125.549L0.670288 124.19C0.235133 120.525 0.0133788 116.856 0.00622559 113.19V111.831L-0.00158691 110.471C-0.00871654 106.818 0.138146 103.164 0.435913 99.5103L0.545288 98.1509L0.654663 96.7837C0.948886 93.1742 1.16189 89.565 1.28748 85.9556L1.38123 83.2368C1.50721 79.6154 1.60648 75.9911 1.6781 72.3696L1.70935 71.0103L1.73279 69.6509C1.80451 66.0239 1.88141 62.395 1.95935 58.7681L1.9906 57.4087L2.01404 56.0493C2.09153 52.4432 2.05699 48.8351 1.91248 45.229L1.8031 42.5103C1.65702 38.8652 1.61473 35.2179 1.67029 31.5728L1.69373 30.2134L1.70935 28.854C1.76567 25.1587 2.20616 21.6314 3.02966 18.2759L3.33435 17.0415L3.63123 15.8149C4.4836 12.3428 6.25707 9.36504 8.92029 6.90869L9.8656 6.0415L10.8109 5.1665C12.0878 3.98898 13.1979 3.07581 14.1312 2.44775C15.0174 1.85158 15.9052 1.3993 16.7015 1.37744L17.0687 1.36182L17.4281 1.354C18.3897 1.32761 20.682 1.23 24.3109 1.05713L25.6703 0.994629L27.0297 0.924316C30.7127 0.748861 34.4024 0.884714 38.0844 1.33057L40.8031 1.65869C44.3524 2.08831 47.9025 2.10984 51.4515 1.71338L52.8109 1.55713L54.1703 1.40869C57.818 1.00122 61.4675 0.710642 65.1156 0.541504L67.8344 0.416504C71.5062 0.246284 75.1786 0.322502 78.85 0.650879L81.5687 0.900879C85.1672 1.22273 88.7675 1.38657 92.3656 1.40088L95.0844 1.4165C98.6821 1.4308 102.283 1.28401 105.881 0.986816L107.241 0.877441L108.6 0.760254C112.264 0.457723 115.928 0.368029 119.592 0.486816L120.952 0.533691L122.311 0.572754C125.972 0.691472 129.635 1.00424 133.295 1.50244L134.655 1.68994L136.014 1.86963C139.533 2.34861 143.055 2.26188 146.577 1.59619L149.295 1.08057C153.002 0.380039 156.71 0.143685 160.42 0.369629L161.78 0.447754L163.139 0.533691C166.72 0.751837 170.308 0.725003 173.889 0.455566L176.608 0.252441C180.306 -0.0255766 184.005 0.0929143 187.702 0.611816L189.061 0.799316L190.42 0.994629C193.989 1.49549 197.557 1.67608 201.123 1.5415L202.483 1.49463L203.842 1.43994C207.469 1.30309 211.098 1.1681 214.725 1.03369L216.084 0.979004L217.444 0.932129C221.058 0.798178 224.673 0.604405 228.287 0.346191L229.647 0.244629L231.006 0.150879C234.725 -0.114806 238.448 0.129666 242.162 0.885254L243.522 1.15869L244.881 1.43994C248.376 2.15073 251.871 2.15348 255.366 1.44775L258.084 0.900879C261.81 0.148727 265.542 -0.0270453 269.272 0.377441L270.631 0.525879L271.991 0.666504C275.56 1.05352 279.132 1.13827 282.702 0.916504L284.061 0.830566L285.42 0.752441C289.122 0.522585 292.823 0.705898 296.522 1.31494L299.241 1.76807C302.742 2.34466 306.244 2.25807 309.748 1.51025L311.108 1.22119L312.475 0.932129C316.187 0.139805 319.906 -0.150639 323.623 0.0727539ZM2.00623 113.19C2.01335 116.776 2.22895 120.361 2.65466 123.948L2.81873 125.307L2.97498 126.674C3.39863 130.241 4.12358 133.597 5.13904 136.745L5.52966 137.948L5.91248 139.159C6.8809 142.16 8.6991 144.616 11.3969 146.542L12.475 147.307L13.5453 148.073C16.2421 149.997 19.3045 151.004 22.7562 151.096L25.4906 151.174C29.1268 151.272 32.7544 151.334 36.3734 151.362L37.7406 151.37L39.1 151.377C42.7093 151.405 46.3187 151.357 49.9281 151.221L51.2953 151.167L52.6547 151.12C56.2797 150.983 59.9047 150.843 63.5297 150.698L66.2484 150.588C69.8929 150.443 73.5414 150.39 77.1859 150.44L78.5453 150.463L79.9047 150.479C83.5342 150.529 87.1658 150.596 90.7953 150.682L105.748 151.026L107.116 151.057C110.714 151.138 114.313 151.081 117.912 150.877L120.631 150.721C124.276 150.515 127.924 150.409 131.569 150.401H132.928L134.287 150.393C137.904 150.385 141.523 150.324 145.139 150.206L146.498 150.159L147.858 150.12C151.538 149.999 155.218 150.181 158.897 150.667L160.264 150.846L161.623 151.026C165.175 151.495 168.729 151.56 172.28 151.229L174.998 150.979C178.674 150.637 182.354 150.569 186.03 150.776L188.748 150.932C192.304 151.132 195.863 150.954 199.42 150.409L200.78 150.206L202.139 149.995C205.828 149.429 209.519 149.218 213.209 149.362L214.569 149.417L215.928 149.463C219.55 149.604 223.174 149.72 226.795 149.807L228.155 149.838L229.514 149.877C233.143 149.965 236.776 150.061 240.405 150.174L241.764 150.221L243.123 150.26C246.737 150.373 250.354 150.423 253.967 150.401L256.686 150.385C260.292 150.363 263.9 150.228 267.506 149.995L270.225 149.823C273.929 149.583 277.633 149.771 281.334 150.393L282.694 150.627L284.053 150.854C287.627 151.455 291.201 151.761 294.772 151.776L296.131 151.784H297.491C301.056 151.798 304.626 151.496 308.194 150.87L309.553 150.627L310.92 150.393C314.593 149.749 318.269 149.369 321.944 149.26L324.662 149.182C328.359 149.073 332.076 149.354 335.803 150.026L337.17 150.276L338.545 150.518C341.927 151.127 344.815 150.374 347.303 148.268L348.327 147.401L349.35 146.542C351.968 144.326 353.963 141.707 355.342 138.69L356.42 136.331C357.798 133.315 358.478 130.067 358.452 126.581L358.444 125.221L358.428 123.862C358.4 120.264 358.223 116.663 357.889 113.065L357.756 111.706L357.631 110.346C357.289 106.668 357.241 102.986 357.483 99.3071L357.569 97.9478L357.662 96.5884C357.9 92.9648 358.122 89.337 358.327 85.7134L358.405 84.354L358.475 82.9946C358.675 79.4448 358.472 75.8912 357.858 72.3384L357.389 69.6196C356.745 65.8948 356.661 62.1666 357.147 58.4399L357.327 57.0806L357.498 55.7212C357.965 52.1399 358.186 48.5592 358.155 44.979L358.139 43.6196L358.131 42.2603C358.1 38.6658 357.892 35.0662 357.514 31.4712L357.233 28.7524C356.85 25.1131 356.54 21.4925 356.311 17.8931L356.139 15.2056C355.931 11.9378 354.464 9.42392 351.678 7.58838L349.397 6.08838C346.502 4.18145 343.33 3.14368 339.866 2.97119L337.131 2.83057C333.486 2.64908 329.846 2.45487 326.217 2.23682L324.858 2.15088L323.498 2.07275C319.964 1.86055 316.429 2.12954 312.889 2.88525L310.17 3.46338C306.423 4.26336 302.671 4.35418 298.92 3.73682L297.561 3.51807L296.202 3.2915C292.649 2.70649 289.095 2.52429 285.545 2.74463L284.186 2.83057L282.819 2.9165C279.136 3.14509 275.453 3.05796 271.772 2.65869L269.053 2.36182C265.53 1.97973 262.002 2.14169 258.475 2.854L257.116 3.13525L255.756 3.40869C252 4.1669 248.239 4.16473 244.483 3.40088L243.123 3.11963L241.764 2.84619C238.226 2.12638 234.688 1.89092 231.155 2.14307L229.795 2.24463L228.428 2.33838C224.791 2.59817 221.151 2.79735 217.514 2.93213L216.155 2.979L214.795 3.03369C211.17 3.16803 207.545 3.30316 203.92 3.43994L202.561 3.48682L201.202 3.5415C197.515 3.68059 193.824 3.48846 190.139 2.97119L188.78 2.78369L187.42 2.58838C183.865 2.08935 180.31 1.97732 176.756 2.24463L174.037 2.44775C170.366 2.72393 166.693 2.74939 163.022 2.52588L161.662 2.44775L160.303 2.36182C156.76 2.14602 153.209 2.37111 149.662 3.0415L146.944 3.55713C143.214 4.26189 139.481 4.3617 135.748 3.854L134.389 3.6665L133.022 3.48682C129.43 2.99805 125.839 2.68921 122.248 2.57275L120.889 2.53369L119.53 2.48682C115.942 2.37048 112.352 2.46392 108.764 2.76025L106.045 2.979C102.39 3.28092 98.732 3.43103 95.0765 3.4165L92.3578 3.40088C88.7026 3.38635 85.0439 3.21996 81.389 2.89307L78.6703 2.64307C75.0894 2.32284 71.5086 2.25056 67.9281 2.4165L65.2094 2.5415C61.6044 2.70864 57.9943 2.99032 54.389 3.39307L53.0297 3.54932L51.6703 3.69775C47.9673 4.11136 44.2636 4.09915 40.5609 3.65088L39.2015 3.48682L37.8422 3.31494C34.2719 2.88262 30.7004 2.75447 27.1312 2.92432L25.764 2.98682L24.4047 3.05713C20.7832 3.22965 18.4688 3.32694 17.4828 3.354L17.1234 3.36182L16.7562 3.37744C16.5791 3.3823 16.1075 3.5263 15.2484 4.104C14.4349 4.65147 13.4054 5.48894 12.1625 6.63525L10.2719 8.38525C7.89344 10.5795 6.33347 13.2081 5.57654 16.2915L5.27185 17.5181L4.97498 18.7524C4.18976 21.9517 3.76355 25.329 3.70935 28.8853L3.69373 30.2446L3.67029 31.604C3.61529 35.2122 3.6585 38.8239 3.8031 42.4321L3.91248 45.1509C4.05854 48.7967 4.09235 52.4425 4.01404 56.0884L3.98279 57.4478L3.95935 58.8071C3.88143 62.4332 3.8045 66.0638 3.73279 69.6899L3.70935 71.0493L3.6781 72.4087C3.60628 76.0403 3.50756 79.6755 3.38123 83.3071L3.28748 86.0259C3.16079 89.6665 2.95142 93.3073 2.65466 96.9478L2.53748 98.3071L2.4281 99.6665C2.13477 103.264 1.99149 106.866 1.99841 110.463L2.00623 111.831V113.19Z" fill="#97E65E"/>
</svg>
