<?xml version="1.0" encoding="UTF-8"?>
<svg version="1.1" xmlns="http://www.w3.org/2000/svg" width="512" height="512">
<path d="M0 0 C0.53238281 0.57363281 1.06476563 1.14726563 1.61328125 1.73828125 C3.00234102 3.2200743 3.00234102 3.2200743 5.45703125 3.48828125 C13.92907051 5.19310021 20.19309198 17.22339045 24.74755859 24.06298828 C31.49912826 34.5048896 36.81818551 45.30118155 41 57 C41.37898438 58.03125 41.75796875 59.0625 42.1484375 60.125 C49.99795756 83.26042755 50.25224449 109.291221 45 133 C44.76651855 134.06758545 44.76651855 134.06758545 44.52832031 135.15673828 C40.81269725 151.32081108 33.16132603 166.69392258 22 179 C21.31550781 179.81339844 20.63101562 180.62679687 19.92578125 181.46484375 C11.8226029 190.90642858 2.59525183 198.24202157 -7.9375 204.75 C-8.6399585 205.18562256 -9.34241699 205.62124512 -10.06616211 206.07006836 C-16.55475889 209.96352133 -23.01235628 212.77493367 -30 216 C-16.8 216.33 -3.6 216.66 10 217 C10.33 216.01 10.66 215.02 11 214 C38.99347053 212.81902546 63.36846049 223.1231162 84.0703125 241.71484375 C96.2761305 253.10588326 105.31725205 267.07082203 112.18457031 282.20996094 C112.92804597 283.84204583 113.70824327 285.45727543 114.4921875 287.0703125 C126.683173 313.54422776 121.64633344 345.56533626 112 372 C109.91561114 377.12412263 107.51504592 382.07362139 105 387 C104.49726562 388.16015625 104.49726562 388.16015625 103.984375 389.34375 C103 391 103 391 100 392 C98.44100063 394.2159833 98.44100063 394.2159833 96.9375 396.9375 C87.75117355 411.71217504 73.82559833 420.86944396 57 425 C51.28675386 426.00098585 45.76695739 426.14588676 39.98924255 426.14044189 C38.50050781 426.14489858 38.50050781 426.14489858 36.98169762 426.1494453 C33.66414071 426.15809983 30.34662003 426.1596378 27.02905273 426.16113281 C24.64682438 426.16576332 22.26459676 426.1707883 19.88237 426.17617798 C13.4151099 426.18928249 6.94785672 426.1957805 0.48058581 426.20018864 C-3.56341447 426.20295758 -7.60741238 426.20719614 -11.65141106 426.21169281 C-22.86443843 426.22388137 -34.07746392 426.23418107 -45.29049778 426.2375679 C-46.00732721 426.23778747 -46.72415664 426.23800703 -47.46270817 426.23823325 C-48.54041944 426.23856067 -48.54041944 426.23856067 -49.63990265 426.2388947 C-51.09562846 426.23933816 -52.55135427 426.23978472 -54.00708008 426.24023438 C-54.72915923 426.2404558 -55.45123837 426.24067723 -56.19519871 426.24090537 C-67.883271 426.24484948 -79.57128079 426.26229352 -91.25932897 426.2855939 C-103.28069257 426.30936379 -115.30202489 426.32177233 -127.32341236 426.32293582 C-134.06428652 426.32384949 -140.80507926 426.32952355 -147.54593086 426.34775543 C-153.89153191 426.36428654 -160.23697896 426.3663671 -166.58259392 426.35761642 C-168.90364368 426.35684872 -171.2247019 426.36115334 -173.54573059 426.37107468 C-197.27763372 426.46651826 -216.04191741 423.61748866 -233.8125 406.5625 C-242.96279679 396.92462079 -246.82371206 386.41049844 -251 374 C-251.31678711 373.0620459 -251.63357422 372.1240918 -251.95996094 371.15771484 C-252.92483615 368.27620685 -253.8728099 365.38981296 -254.8125 362.5 C-255.1024585 361.61739502 -255.39241699 360.73479004 -255.69116211 359.82543945 C-259.23561395 348.67185492 -260.39135172 338.13418553 -260.375 326.4375 C-260.37445618 325.77869843 -260.37391235 325.11989685 -260.37335205 324.44113159 C-260.3318949 313.48865002 -259.45520813 303.4050674 -256 293 C-255.78569336 292.3507959 -255.57138672 291.7015918 -255.35058594 291.03271484 C-245.76568586 263.05234061 -225.76770006 240.87817457 -199.30297852 227.82104492 C-194.22973771 225.43040184 -189.0571847 223.43271933 -183.75 221.625 C-183.05430908 221.38628174 -182.35861816 221.14756348 -181.6418457 220.90161133 C-168.4056154 216.63658665 -155.01351413 216.59744063 -141.25 216.375 C-139.28123424 216.33674006 -137.31248378 216.29768393 -135.34375 216.2578125 C-130.56262695 216.16269568 -125.78142595 216.0783527 -121 216 C-121.73532959 215.53964355 -122.47065918 215.07928711 -123.22827148 214.60498047 C-124.69115601 213.68289795 -124.69115601 213.68289795 -126.18359375 212.7421875 C-127.14579834 212.13745605 -128.10800293 211.53272461 -129.09936523 210.90966797 C-136.5381335 206.01226494 -143.14073859 200.08137961 -149.6953125 194.078125 C-151.60753082 192.35388746 -153.55522763 190.73451794 -155.5625 189.125 C-174.74596132 172.74666746 -185.95983565 144.58398044 -188 120 C-189.73296306 86.05249155 -177.92290649 53.86747942 -155.25 28.5 C-154.5178125 27.72527344 -153.785625 26.95054688 -153.03125 26.15234375 C-151.17385774 24.18422234 -149.46613064 22.15298267 -147.75 20.0625 C-110.50384008 -22.18940807 -45.87035342 -33.77778877 0 0 Z " fill="#78D3FE" transform="translate(333,56)"/>
<path d="M0 0 C0.94190186 0.61705811 0.94190186 0.61705811 1.90283203 1.24658203 C6.13828607 4.14367413 9.54409158 7.16477412 11.8125 11.890625 C13.04674532 14.2683623 14.67591535 16.10674341 16.45385742 18.09667969 C40.48434325 44.99629241 51.6627149 79.57221198 50.0390625 115.39404297 C48.07838115 145.79043928 35.20116095 173.04616123 12.58349609 193.48339844 C7.06578517 198.17952394 1.02158905 202.12295016 -5.125 205.9375 C-6.01131104 206.4941333 -6.01131104 206.4941333 -6.91552734 207.06201172 C-30.44623014 221.54090373 -62.24209374 229.21395171 -89.625 223.625 C-91.79709652 223.08384622 -93.96450519 222.52325837 -96.125 221.9375 C-97.42630859 221.63005859 -97.42630859 221.63005859 -98.75390625 221.31640625 C-113.14466563 217.59744596 -124.14493653 208.4643616 -135.125 198.9375 C-135.6917041 198.44668945 -136.2584082 197.95587891 -136.84228516 197.45019531 C-160.61365711 176.67630208 -160.61365711 176.67630208 -163.6484375 163.69921875 C-163.96983191 161.70714539 -163.96983191 161.70714539 -166.1875 160.6875 C-166.826875 160.44 -167.46625 160.1925 -168.125 159.9375 C-168.125 161.9175 -168.125 163.8975 -168.125 165.9375 C-181.29571561 149.56000145 -182.3398291 123.30298345 -180.8515625 103.25390625 C-177.55476608 76.35080341 -164.70290971 50.71403827 -146.15625 31.08984375 C-144.29885774 29.12172234 -142.59113064 27.09048267 -140.875 25 C-106.6386988 -13.8375353 -44.51326866 -29.18849637 0 0 Z " fill="#77D3FE" transform="translate(326.125,51.0625)"/>
<path d="M0 0 C10.9817736 5.97766754 17.79894482 17.5181431 24 28 C24.67933594 29.11632812 25.35867188 30.23265625 26.05859375 31.3828125 C43.2709489 60.77839845 47.30484419 97.0257284 40 130 C39.8443457 130.71172363 39.68869141 131.42344727 39.52832031 132.15673828 C35.81269725 148.32081108 28.16132603 163.69392258 17 176 C16.31550781 176.81339844 15.63101563 177.62679687 14.92578125 178.46484375 C-3.71907556 200.18928194 -29.4203572 212.94074121 -57 219 C-58.11117187 219.2475 -59.22234375 219.495 -60.3671875 219.75 C-76.70514464 222.68349854 -96.12004592 223.15025538 -112 218 C-112.62874023 217.80664062 -113.25748047 217.61328125 -113.90527344 217.4140625 C-129.10302547 212.66339038 -140.68300421 203.68832948 -152.49951172 193.3125 C-153.89588162 192.09107394 -155.30866353 190.8884809 -156.72265625 189.6875 C-166.44238189 181.27475447 -174.24203289 171.51593421 -180 160 C-180.13415472 157.3276379 -180.04318541 154.67749512 -180 152 C-175.31523588 153.41846377 -175.31523588 153.41846377 -173.91796875 155.99609375 C-173.67691406 156.80175781 -173.43585938 157.60742188 -173.1875 158.4375 C-167.4833467 174.15210416 -152.82876494 186.0160318 -140 196 C-139.06671875 196.76183594 -138.1334375 197.52367187 -137.171875 198.30859375 C-117.25987685 214.09444255 -93.68751976 218.19201442 -68.81445312 215.33251953 C-36.07042018 210.8692116 -4.39045063 194.53535503 15.91015625 168.10864258 C35.50669993 141.51172807 40.35905599 107.99169599 35.54467773 75.87988281 C30.82857017 48.45649609 17.07141346 23.99273778 -2 4 C-1.34 2.68 -0.68 1.36 0 0 Z " fill="#00060A" transform="translate(338,59)"/>
<path d="M0 0 C27.62794034 0.27991834 52.24645955 12.90952391 71.47924805 32.30419922 C81.50016387 42.87640613 89.126038 55.24158914 95.12207031 68.45996094 C95.86554597 70.09204583 96.64574327 71.70727543 97.4296875 73.3203125 C109.620673 99.79422776 104.58383344 131.81533626 94.9375 158.25 C92.85311114 163.37412263 90.45254592 168.32362139 87.9375 173.25 C87.54046875 174.0440625 87.1434375 174.838125 86.734375 175.65625 C86.47140625 176.1821875 86.2084375 176.708125 85.9375 177.25 C84.6175 176.92 83.2975 176.59 81.9375 176.25 C82.54640772 170.69819433 84.53077429 166.08645024 86.6875 161 C90.56236858 151.58092852 93.57790274 142.15273758 95.9375 132.25 C96.18371094 131.25484375 96.42992187 130.2596875 96.68359375 129.234375 C102.41112267 101.58423541 94.71295206 76.3860076 79.99267578 53.1394043 C64.15803833 29.14978001 41.99591233 13.40010066 13.9375 7 C7.35009493 5.81650011 0.61130543 5.58813947 -6.0625 5.25 C-6.625 3.3125 -6.625 3.3125 -7.0625 1.25 C-5.23344418 -0.57905582 -2.46115806 0.03329639 0 0 Z " fill="#000406" transform="translate(350.0625,269.75)"/>
<path d="M0 0 C12.54 0 25.08 0 38 0 C31.29662173 3.35168913 24.29551991 3.16244539 16.9375 3.125 C16.17373047 3.12886719 15.40996094 3.13273437 14.62304688 3.13671875 C9.98867006 3.12878996 5.54773702 2.9343855 1 2 C0.67 1.34 0.34 0.68 0 0 Z " fill="#59C0F1" transform="translate(236,273)"/>
</svg>
